<mxfile host="app.diagrams.net" modified="2023-05-25T13:54:34.599Z" agent="Mozilla/5.0 (Windows NT 10.0; Win64; x64) AppleWebKit/537.36 (KHTML, like Gecko) Chrome/110.0.0.0 YaBrowser/23.3.3.719 Yowser/2.5 Safari/537.36" etag="YbQ8Pjq9VYJJzC_VvZF-" version="21.3.2" type="device" pages="5">
  <diagram name="Страница 1" id="dtjgtgLtooqQBHX3oq-K">
    <mxGraphModel dx="2086" dy="696" grid="1" gridSize="10" guides="1" tooltips="1" connect="1" arrows="1" fold="1" page="1" pageScale="1" pageWidth="827" pageHeight="1169" math="0" shadow="0">
      <root>
        <mxCell id="0" />
        <mxCell id="1" parent="0" />
        <mxCell id="qx8Psn1ScZQ2in4cu_1u-1" value="&lt;p style=&quot;margin:0px;margin-top:4px;text-align:center;&quot;&gt;&lt;b&gt;Мероприятия&lt;/b&gt;&lt;/p&gt;&lt;hr size=&quot;1&quot;&gt;&lt;p style=&quot;margin:0px;margin-left:4px;&quot;&gt;+ Текстовое поле &quot;Мероприятия&quot; для верхнего меню основного экрана&lt;/p&gt;&lt;p style=&quot;margin:0px;margin-left:4px;&quot;&gt;+ Текстовое поле с надписью &quot;Фильтры&quot;&lt;/p&gt;&lt;p style=&quot;margin:0px;margin-left:4px;&quot;&gt;+ Кнопка фильтра &quot;Внешние&quot;&lt;/p&gt;&lt;p style=&quot;margin:0px;margin-left:4px;&quot;&gt;+ Кнопка фильтра &quot;Внутренние&quot;&lt;/p&gt;&lt;p style=&quot;margin:0px;margin-left:4px;&quot;&gt;+ Поисковая строка &quot;Поиск мероприятия&quot;&lt;br&gt;&lt;/p&gt;&lt;p style=&quot;margin:0px;margin-left:4px;&quot;&gt;+ Карточки мероприятий&lt;/p&gt;&amp;nbsp;+ Кнопка &quot;Открыть описание&quot; на карточке мероприятия&lt;br&gt;&amp;nbsp;+ Кнопка &quot;Участвовать&quot; на карточке мероприятия&lt;br&gt;&lt;hr size=&quot;1&quot;&gt;&lt;p style=&quot;margin:0px;margin-left:4px;&quot;&gt;+ Выбор карточки мероприятия&lt;/p&gt;&lt;p style=&quot;margin:0px;margin-left:4px;&quot;&gt;+ Регистрация на мероприятие&lt;/p&gt;&lt;p style=&quot;margin:0px;margin-left:4px;&quot;&gt;+ Поиск мероприятия по названию&lt;/p&gt;&lt;p style=&quot;margin:0px;margin-left:4px;&quot;&gt;+ Фильтрация мероприятий по типу&lt;/p&gt;" style="verticalAlign=top;align=left;overflow=fill;fontSize=12;fontFamily=Helvetica;html=1;whiteSpace=wrap;" parent="1" vertex="1">
          <mxGeometry x="-81" y="101" width="340" height="240" as="geometry" />
        </mxCell>
        <mxCell id="rZW8BFmAkzOGYNL0ekdx-1" value="&lt;p style=&quot;margin:0px;margin-top:4px;text-align:center;&quot;&gt;&lt;b&gt;Мои мероприятия&lt;/b&gt;&lt;/p&gt;&lt;hr size=&quot;1&quot;&gt;&lt;p style=&quot;border-color: var(--border-color); margin: 0px 0px 0px 4px;&quot;&gt;+ Текстовое поле &quot;Мои мероприятия&quot; для верхнего меню модального окна&lt;/p&gt;&lt;p style=&quot;margin:0px;margin-left:4px;&quot;&gt;+ Поисковая строка &quot;Поиск мероприятия&quot;&lt;/p&gt;&lt;p style=&quot;margin:0px;margin-left:4px;&quot;&gt;+ Карточки мероприятий с пройденной регистрацией&lt;/p&gt;&lt;hr size=&quot;1&quot;&gt;&lt;p style=&quot;margin:0px;margin-left:4px;&quot;&gt;+ Выбор карточки мероприятия&lt;br&gt;&lt;/p&gt;&lt;p style=&quot;margin:0px;margin-left:4px;&quot;&gt;+ Поиск мероприятия по названию&lt;br&gt;&lt;/p&gt;&lt;p style=&quot;border-color: var(--border-color); margin: 0px 0px 0px 4px;&quot;&gt;&lt;br&gt;&lt;/p&gt;" style="verticalAlign=top;align=left;overflow=fill;fontSize=12;fontFamily=Helvetica;html=1;whiteSpace=wrap;" parent="1" vertex="1">
          <mxGeometry x="-81" y="656" width="310" height="140" as="geometry" />
        </mxCell>
        <mxCell id="rZW8BFmAkzOGYNL0ekdx-2" value="&lt;p style=&quot;margin:0px;margin-top:4px;text-align:center;&quot;&gt;&lt;b&gt;Профиль (без авторизации)&lt;/b&gt;&lt;/p&gt;&lt;hr size=&quot;1&quot;&gt;&lt;p style=&quot;margin:0px;margin-left:4px;&quot;&gt;+ Текстовое поле &quot;Профиль&quot; для верхнего меню основного экрана&lt;br&gt;&lt;/p&gt;&lt;p style=&quot;margin:0px;margin-left:4px;&quot;&gt;+ Текстовое поле с информацией об авторизации&lt;/p&gt;&lt;p style=&quot;margin:0px;margin-left:4px;&quot;&gt;+ Поле ввода имени пользователя&lt;/p&gt;&lt;p style=&quot;margin:0px;margin-left:4px;&quot;&gt;+ Поле ввода пароля&lt;/p&gt;&lt;p style=&quot;margin:0px;margin-left:4px;&quot;&gt;+ Кнопка &quot;Войти&quot;&lt;/p&gt;&lt;p style=&quot;margin:0px;margin-left:4px;&quot;&gt;+ Кнопка &quot;Войти через личный кабинет&quot;&lt;/p&gt;&lt;hr size=&quot;1&quot;&gt;&lt;p style=&quot;margin:0px;margin-left:4px;&quot;&gt;+ Авторизация в системе с помощью имени пользователя и пароля&lt;/p&gt;&lt;p style=&quot;margin:0px;margin-left:4px;&quot;&gt;+ Авторизация в системе с помощью аккаунта личного кабинета&lt;/p&gt;" style="verticalAlign=top;align=left;overflow=fill;fontSize=12;fontFamily=Helvetica;html=1;whiteSpace=wrap;" parent="1" vertex="1">
          <mxGeometry x="739" y="576" width="260" height="230" as="geometry" />
        </mxCell>
        <mxCell id="rZW8BFmAkzOGYNL0ekdx-4" value="&lt;p style=&quot;margin:0px;margin-top:4px;text-align:center;&quot;&gt;&lt;b&gt;Настройки&lt;/b&gt;&lt;/p&gt;&lt;hr size=&quot;1&quot;&gt;&lt;p style=&quot;margin:0px;margin-left:4px;&quot;&gt;+ Текстовое поле &quot;Настройки&quot; для верхнего меню основного экрана&lt;br&gt;&lt;/p&gt;&lt;p style=&quot;margin:0px;margin-left:4px;&quot;&gt;+ Кнопка возврата в предыдущее окно&lt;br&gt;&lt;/p&gt;&lt;p style=&quot;margin:0px;margin-left:4px;&quot;&gt;+ Текстовое поле &quot;Темная тема приложения:&quot;&lt;/p&gt;&lt;p style=&quot;margin:0px;margin-left:4px;&quot;&gt;+ Переключатель графической темной темы приложения&lt;/p&gt;&lt;p style=&quot;margin:0px;margin-left:4px;&quot;&gt;+ Кнопка &quot;Изменить язык приложения&quot;&lt;/p&gt;&lt;hr size=&quot;1&quot;&gt;&lt;p style=&quot;margin:0px;margin-left:4px;&quot;&gt;+ Изменение графической темы приложения&lt;/p&gt;&lt;p style=&quot;margin:0px;margin-left:4px;&quot;&gt;+ Изменение языка приложения&amp;nbsp;&lt;/p&gt;&lt;p style=&quot;margin:0px;margin-left:4px;&quot;&gt;+ Возврат в предыдущее окно&lt;/p&gt;" style="verticalAlign=top;align=left;overflow=fill;fontSize=12;fontFamily=Helvetica;html=1;whiteSpace=wrap;" parent="1" vertex="1">
          <mxGeometry x="379" y="216" width="270" height="200" as="geometry" />
        </mxCell>
        <mxCell id="rZW8BFmAkzOGYNL0ekdx-5" value="&lt;p style=&quot;margin:0px;margin-top:4px;text-align:center;&quot;&gt;&lt;b&gt;Страница мероприятия&lt;/b&gt;&lt;/p&gt;&lt;hr size=&quot;1&quot;&gt;&lt;p style=&quot;margin:0px;margin-left:4px;&quot;&gt;+ Текстовое поле с названием мероприятия для верхнего меню основного экрана&lt;br&gt;&lt;/p&gt;&lt;p style=&quot;margin:0px;margin-left:4px;&quot;&gt;+ Кнопка возврата в предыдущее окно&lt;br&gt;&lt;/p&gt;&lt;p style=&quot;margin:0px;margin-left:4px;&quot;&gt;+ карусель изображений мероприятия&lt;/p&gt;&lt;p style=&quot;margin:0px;margin-left:4px;&quot;&gt;+ Текстовое поле названия мероприятия&lt;/p&gt;&lt;p style=&quot;margin:0px;margin-left:4px;&quot;&gt;+ Текстовое поле тегов мероприятия&lt;/p&gt;&lt;p style=&quot;margin:0px;margin-left:4px;&quot;&gt;+ Текстовое поле даты и времени проведения мероприятия&lt;/p&gt;&lt;p style=&quot;margin:0px;margin-left:4px;&quot;&gt;+ Текстовое поле &quot;Место проведения&quot;&lt;/p&gt;&lt;p style=&quot;margin:0px;margin-left:4px;&quot;&gt;+ Текстовое поле с местом проведения мероприятия&lt;/p&gt;&lt;p style=&quot;margin:0px;margin-left:4px;&quot;&gt;+ Текстовое поле &quot;Уже участвуют:&quot;&lt;/p&gt;&lt;p style=&quot;margin:0px;margin-left:4px;&quot;&gt;+ Текстовое поле с количеством участников мероприятия&lt;/p&gt;&lt;p style=&quot;margin:0px;margin-left:4px;&quot;&gt;+ Текстовое поле &quot;Регистрация доступна до&quot;&lt;/p&gt;&lt;p style=&quot;margin:0px;margin-left:4px;&quot;&gt;+ Текстовое поле с датой и временем конца регистрации на мероприятие&lt;/p&gt;&lt;p style=&quot;margin:0px;margin-left:4px;&quot;&gt;+ Кнопка &quot;Участвовать&quot;&lt;/p&gt;&lt;p style=&quot;margin:0px;margin-left:4px;&quot;&gt;+ Кнопка &quot;Посмотреть QR-код&quot;&lt;/p&gt;&lt;hr size=&quot;1&quot;&gt;&lt;p style=&quot;margin:0px;margin-left:4px;&quot;&gt;+ Регистрация на мероприятие&lt;/p&gt;&lt;p style=&quot;margin:0px;margin-left:4px;&quot;&gt;+ Переход на страницу пройденной регистрацией&lt;/p&gt;&lt;p style=&quot;margin:0px;margin-left:4px;&quot;&gt;+ Возврат в предыдущее окно&lt;/p&gt;" style="verticalAlign=top;align=left;overflow=fill;fontSize=12;fontFamily=Helvetica;html=1;whiteSpace=wrap;" parent="1" vertex="1">
          <mxGeometry x="-431" y="166" width="260" height="410" as="geometry" />
        </mxCell>
        <mxCell id="rZW8BFmAkzOGYNL0ekdx-6" value="&lt;p style=&quot;margin:0px;margin-top:4px;text-align:center;&quot;&gt;&lt;b&gt;Страница мероприятия с пройденной регистрацией&lt;/b&gt;&lt;/p&gt;&lt;hr size=&quot;1&quot;&gt;&lt;p style=&quot;margin:0px;margin-left:4px;&quot;&gt;+ Текстовое поле с названием мероприятия для верхнего меню основного экрана&lt;br&gt;&lt;/p&gt;&lt;p style=&quot;margin:0px;margin-left:4px;&quot;&gt;+ Кнопка возврата в предыдущее окно&lt;br&gt;&lt;/p&gt;&lt;p style=&quot;margin:0px;margin-left:4px;&quot;&gt;+ Текстовое поле названия мероприятия&lt;/p&gt;&lt;p style=&quot;margin:0px;margin-left:4px;&quot;&gt;+ Текстовое поле тегов мероприятия&lt;/p&gt;&lt;p style=&quot;margin:0px;margin-left:4px;&quot;&gt;+ Текстовое поле даты и времени проведения мероприятия&lt;br&gt;&lt;/p&gt;&lt;p style=&quot;margin:0px;margin-left:4px;&quot;&gt;+ Изображение QR-кода&lt;/p&gt;&lt;p style=&quot;margin:0px;margin-left:4px;&quot;&gt;+ Кнопка сохранения данных в pdf-файл&lt;/p&gt;&lt;p style=&quot;margin:0px;margin-left:4px;&quot;&gt;+ Кнопка отправки pdf-файла&lt;/p&gt;&lt;p style=&quot;margin:0px;margin-left:4px;&quot;&gt;+ Кнопка сохранения данных о мероприятии в календаре&lt;/p&gt;&lt;p style=&quot;margin:0px;margin-left:4px;&quot;&gt;+ Текстовое поле &quot;Место проведения&quot;&lt;/p&gt;&lt;p style=&quot;margin:0px;margin-left:4px;&quot;&gt;+ Текстовое поле с местом проведения мероприятия&lt;/p&gt;&lt;p style=&quot;margin:0px;margin-left:4px;&quot;&gt;+ Кнопка &quot;Страница мероприятия&quot;&lt;/p&gt;&lt;p style=&quot;margin:0px;margin-left:4px;&quot;&gt;+ Кнопка &quot;Отменить регистрацию&quot;&lt;/p&gt;&lt;hr size=&quot;1&quot;&gt;&lt;p style=&quot;margin:0px;margin-left:4px;&quot;&gt;+ Отмена регистрации на мероприятие&lt;/p&gt;&lt;p style=&quot;margin:0px;margin-left:4px;&quot;&gt;+ Переход на страницу мероприятия&lt;/p&gt;&lt;p style=&quot;margin:0px;margin-left:4px;&quot;&gt;+ Сохранение данных в pdf-файл&lt;/p&gt;&lt;p style=&quot;margin:0px;margin-left:4px;&quot;&gt;+ Отправка pdf-файла&lt;/p&gt;&lt;p style=&quot;margin:0px;margin-left:4px;&quot;&gt;+ Сохранение данных о мероприятии в календаре&lt;/p&gt;&lt;p style=&quot;margin:0px;margin-left:4px;&quot;&gt;+ Возврат в предыдущее окно&lt;br&gt;&lt;/p&gt;&lt;p style=&quot;margin:0px;margin-left:4px;&quot;&gt;+ Увеличение QR-кода&lt;br&gt;&lt;/p&gt;" style="verticalAlign=top;align=left;overflow=fill;fontSize=12;fontFamily=Helvetica;html=1;whiteSpace=wrap;" parent="1" vertex="1">
          <mxGeometry x="-446" y="656" width="290" height="420" as="geometry" />
        </mxCell>
        <mxCell id="W-fshxjDvWvPwKtsiL-p-2" value="&lt;p style=&quot;margin:0px;margin-top:4px;text-align:center;&quot;&gt;&lt;b&gt;Основной экран приложения&lt;/b&gt;&lt;/p&gt;&lt;hr size=&quot;1&quot;&gt;&lt;p style=&quot;border-color: var(--border-color); margin: 0px 0px 0px 4px;&quot;&gt;+ Верхнее меню с текстовым полем для заголовка&lt;/p&gt;&lt;p style=&quot;border-color: var(--border-color); margin: 0px 0px 0px 4px;&quot;&gt;+ Кнопка вызова меню настроек на верхнем меню&lt;/p&gt;&lt;p style=&quot;border-color: var(--border-color); margin: 0px 0px 0px 4px;&quot;&gt;+ Экран фрагмента&lt;/p&gt;&lt;p style=&quot;margin:0px;margin-left:4px;&quot;&gt;+ Нижнее меню с набором кнопок&lt;/p&gt;&lt;p style=&quot;margin:0px;margin-left:4px;&quot;&gt;+ Кнопка &quot;Мои мероприятия&quot; нижнего меню&lt;br style=&quot;border-color: var(--border-color);&quot;&gt;+ Кнопка &quot;Мероприятия&quot; нижнего меню&lt;br style=&quot;border-color: var(--border-color);&quot;&gt;+ Кнопка &quot;Профиль&quot; нижнего меню&lt;br&gt;&lt;/p&gt;&lt;hr size=&quot;1&quot;&gt;&lt;p style=&quot;margin:0px;margin-left:4px;&quot;&gt;&lt;span style=&quot;background-color: initial;&quot;&gt;+ Переход в меню настроек&lt;/span&gt;&lt;br&gt;&lt;/p&gt;&lt;p style=&quot;border-color: var(--border-color); margin: 0px 0px 0px 4px;&quot;&gt;+ Переход в окно &quot;Профиль&quot;&lt;/p&gt;&lt;p style=&quot;border-color: var(--border-color); margin: 0px 0px 0px 4px;&quot;&gt;+ Переход в окно &quot;Мероприятия&quot;&lt;/p&gt;&lt;p style=&quot;border-color: var(--border-color); margin: 0px 0px 0px 4px;&quot;&gt;+ Переход в окно &quot;Мои мероприятия&quot;&lt;br&gt;&lt;/p&gt;" style="verticalAlign=top;align=left;overflow=fill;fontSize=12;fontFamily=Helvetica;html=1;whiteSpace=wrap;" parent="1" vertex="1">
          <mxGeometry x="349" y="566" width="310" height="210" as="geometry" />
        </mxCell>
        <mxCell id="W-fshxjDvWvPwKtsiL-p-3" value="&lt;p style=&quot;margin:0px;margin-top:4px;text-align:center;&quot;&gt;&lt;b style=&quot;border-color: var(--border-color);&quot;&gt;Профиль (авторизованный)&lt;/b&gt;&lt;br&gt;&lt;/p&gt;&lt;hr size=&quot;1&quot;&gt;&lt;p style=&quot;margin:0px;margin-left:4px;&quot;&gt;+ Текстовое поле &quot;Профиль&quot; для верхнего меню основного экрана&lt;br&gt;&lt;/p&gt;&lt;p style=&quot;margin:0px;margin-left:4px;&quot;&gt;+ Текстовое поле с ФИО авторизованного пользователя&lt;/p&gt;&lt;p style=&quot;margin:0px;margin-left:4px;&quot;&gt;+ Текстовое поле с названием группы авторизованного пользователя&lt;/p&gt;&lt;p style=&quot;margin:0px;margin-left:4px;&quot;&gt;+ Кнопка &quot;Выйти из аккаунта&quot;&lt;/p&gt;&lt;hr size=&quot;1&quot;&gt;&lt;p style=&quot;margin:0px;margin-left:4px;&quot;&gt;+ Выход из аккаунта пользователя&lt;/p&gt;" style="verticalAlign=top;align=left;overflow=fill;fontSize=12;fontFamily=Helvetica;html=1;whiteSpace=wrap;" parent="1" vertex="1">
          <mxGeometry x="1060" y="341" width="260" height="170" as="geometry" />
        </mxCell>
        <mxCell id="4-OcaDWb1pI56sViG0Ku-1" value="" style="endArrow=diamondThin;endFill=0;endSize=24;html=1;rounded=0;entryX=-0.002;entryY=0.617;entryDx=0;entryDy=0;entryPerimeter=0;exitX=1;exitY=0.286;exitDx=0;exitDy=0;exitPerimeter=0;dashed=1;" parent="1" source="rZW8BFmAkzOGYNL0ekdx-1" target="W-fshxjDvWvPwKtsiL-p-2" edge="1">
          <mxGeometry width="160" relative="1" as="geometry">
            <mxPoint x="229" y="700" as="sourcePoint" />
            <mxPoint x="299" y="766" as="targetPoint" />
          </mxGeometry>
        </mxCell>
        <mxCell id="4-OcaDWb1pI56sViG0Ku-2" value="" style="endArrow=diamondThin;endFill=0;endSize=24;html=1;rounded=0;exitX=1;exitY=0.5;exitDx=0;exitDy=0;entryX=-0.005;entryY=0.141;entryDx=0;entryDy=0;entryPerimeter=0;dashed=1;" parent="1" source="qx8Psn1ScZQ2in4cu_1u-1" target="W-fshxjDvWvPwKtsiL-p-2" edge="1">
          <mxGeometry width="160" relative="1" as="geometry">
            <mxPoint x="259" y="425.5" as="sourcePoint" />
            <mxPoint x="319" y="666" as="targetPoint" />
            <Array as="points">
              <mxPoint x="319" y="221" />
              <mxPoint x="319" y="596" />
            </Array>
          </mxGeometry>
        </mxCell>
        <mxCell id="4-OcaDWb1pI56sViG0Ku-4" value="" style="endArrow=diamondThin;endFill=0;endSize=24;html=1;rounded=0;dashed=1;" parent="1" edge="1">
          <mxGeometry width="160" relative="1" as="geometry">
            <mxPoint x="739" y="637" as="sourcePoint" />
            <mxPoint x="659" y="637" as="targetPoint" />
          </mxGeometry>
        </mxCell>
        <mxCell id="4-OcaDWb1pI56sViG0Ku-7" value="" style="endArrow=diamondThin;endFill=0;endSize=24;html=1;rounded=0;exitX=0.477;exitY=1.002;exitDx=0;exitDy=0;exitPerimeter=0;entryX=0.517;entryY=-0.015;entryDx=0;entryDy=0;entryPerimeter=0;dashed=1;" parent="1" source="rZW8BFmAkzOGYNL0ekdx-4" target="W-fshxjDvWvPwKtsiL-p-2" edge="1">
          <mxGeometry width="160" relative="1" as="geometry">
            <mxPoint x="509" y="486" as="sourcePoint" />
            <mxPoint x="669" y="486" as="targetPoint" />
          </mxGeometry>
        </mxCell>
        <mxCell id="4-OcaDWb1pI56sViG0Ku-8" value="" style="endArrow=diamondThin;endFill=0;endSize=24;html=1;rounded=0;entryX=0;entryY=0.5;entryDx=0;entryDy=0;dashed=1;" parent="1" target="qx8Psn1ScZQ2in4cu_1u-1" edge="1">
          <mxGeometry width="160" relative="1" as="geometry">
            <mxPoint x="-170" y="221" as="sourcePoint" />
            <mxPoint x="59" y="226" as="targetPoint" />
          </mxGeometry>
        </mxCell>
        <mxCell id="4-OcaDWb1pI56sViG0Ku-9" value="" style="endArrow=diamondThin;endFill=0;endSize=24;html=1;rounded=0;exitX=0.999;exitY=0.19;exitDx=0;exitDy=0;exitPerimeter=0;entryX=-0.002;entryY=0.567;entryDx=0;entryDy=0;entryPerimeter=0;dashed=1;" parent="1" source="rZW8BFmAkzOGYNL0ekdx-6" target="rZW8BFmAkzOGYNL0ekdx-1" edge="1">
          <mxGeometry width="160" relative="1" as="geometry">
            <mxPoint x="-151" y="716" as="sourcePoint" />
            <mxPoint x="-81" y="716" as="targetPoint" />
          </mxGeometry>
        </mxCell>
        <mxCell id="4-OcaDWb1pI56sViG0Ku-10" value="&lt;p style=&quot;margin:0px;margin-top:4px;text-align:center;&quot;&gt;&lt;b&gt;Страница QR-кода&lt;/b&gt;&lt;/p&gt;&lt;hr size=&quot;1&quot;&gt;&lt;p style=&quot;margin:0px;margin-left:4px;&quot;&gt;+ Текстовое поле с названием мероприятия для верхнего меню основного экрана&lt;br&gt;&lt;/p&gt;&lt;p style=&quot;margin:0px;margin-left:4px;&quot;&gt;+ Кнопка возврата в предыдущее окно&lt;br&gt;&lt;/p&gt;&lt;p style=&quot;margin:0px;margin-left:4px;&quot;&gt;+ изображение QR-кода&lt;/p&gt;&lt;hr size=&quot;1&quot;&gt;&lt;p style=&quot;margin:0px;margin-left:4px;&quot;&gt;&lt;span style=&quot;background-color: initial;&quot;&gt;+ Возврат в предыдущее окно&lt;/span&gt;&lt;br&gt;&lt;/p&gt;&lt;p style=&quot;margin:0px;margin-left:4px;&quot;&gt;&lt;br&gt;&lt;/p&gt;" style="verticalAlign=top;align=left;overflow=fill;fontSize=12;fontFamily=Helvetica;html=1;whiteSpace=wrap;" parent="1" vertex="1">
          <mxGeometry x="-81" y="806" width="260" height="120" as="geometry" />
        </mxCell>
        <mxCell id="4-OcaDWb1pI56sViG0Ku-11" value="" style="endArrow=none;endFill=0;endSize=24;html=1;rounded=0;startArrow=diamondThin;startFill=0;startSize=24;exitX=0.427;exitY=1.002;exitDx=0;exitDy=0;exitPerimeter=0;entryX=0.435;entryY=-0.003;entryDx=0;entryDy=0;entryPerimeter=0;dashed=1;" parent="1" source="rZW8BFmAkzOGYNL0ekdx-5" target="rZW8BFmAkzOGYNL0ekdx-6" edge="1">
          <mxGeometry width="160" relative="1" as="geometry">
            <mxPoint x="-331" y="606" as="sourcePoint" />
            <mxPoint x="-171" y="606" as="targetPoint" />
          </mxGeometry>
        </mxCell>
        <mxCell id="4-OcaDWb1pI56sViG0Ku-12" value="" style="endArrow=diamondThin;endFill=0;endSize=24;html=1;rounded=0;exitX=-0.002;exitY=0.418;exitDx=0;exitDy=0;exitPerimeter=0;entryX=1;entryY=0.475;entryDx=0;entryDy=0;entryPerimeter=0;dashed=1;" parent="1" source="4-OcaDWb1pI56sViG0Ku-10" target="rZW8BFmAkzOGYNL0ekdx-6" edge="1">
          <mxGeometry width="160" relative="1" as="geometry">
            <mxPoint x="-116" y="926" as="sourcePoint" />
            <mxPoint x="-156" y="926" as="targetPoint" />
          </mxGeometry>
        </mxCell>
        <mxCell id="4-OcaDWb1pI56sViG0Ku-13" value="&lt;p style=&quot;margin:0px;margin-top:4px;text-align:center;&quot;&gt;&lt;b style=&quot;border-color: var(--border-color);&quot;&gt;Выход&lt;/b&gt;&lt;br&gt;&lt;/p&gt;&lt;hr size=&quot;1&quot;&gt;&lt;p style=&quot;margin:0px;margin-left:4px;&quot;&gt;+ Изображение в виде иконки выхода&lt;/p&gt;&lt;p style=&quot;margin:0px;margin-left:4px;&quot;&gt;+ Текстовое поле &quot;Выход&quot;&lt;br&gt;&lt;/p&gt;&lt;p style=&quot;margin:0px;margin-left:4px;&quot;&gt;+ Текстовое поле &quot;Вы действительно хотите выйти из аккаунта?&quot;&lt;/p&gt;&lt;p style=&quot;margin:0px;margin-left:4px;&quot;&gt;+ Кнопка &quot;Да&quot;&lt;/p&gt;&lt;p style=&quot;margin:0px;margin-left:4px;&quot;&gt;+ Кнопка &quot;Нет&quot;&lt;br&gt;&lt;/p&gt;&lt;hr size=&quot;1&quot;&gt;&lt;p style=&quot;margin:0px;margin-left:4px;&quot;&gt;+ Выход из аккаунта пользователя&lt;br&gt;&lt;/p&gt;&lt;p style=&quot;margin:0px;margin-left:4px;&quot;&gt;+ Отмена выхода из аккаунта пользователя&lt;/p&gt;" style="verticalAlign=top;align=left;overflow=fill;fontSize=12;fontFamily=Helvetica;html=1;whiteSpace=wrap;" parent="1" vertex="1">
          <mxGeometry x="1370" y="341" width="260" height="170" as="geometry" />
        </mxCell>
        <mxCell id="4-OcaDWb1pI56sViG0Ku-14" value="" style="endArrow=diamondThin;endFill=0;endSize=24;html=1;rounded=0;exitX=-0.001;exitY=0.415;exitDx=0;exitDy=0;exitPerimeter=0;entryX=1.001;entryY=0.413;entryDx=0;entryDy=0;entryPerimeter=0;dashed=1;" parent="1" source="4-OcaDWb1pI56sViG0Ku-13" target="W-fshxjDvWvPwKtsiL-p-3" edge="1">
          <mxGeometry width="160" relative="1" as="geometry">
            <mxPoint x="1364" y="415.64" as="sourcePoint" />
            <mxPoint x="1320" y="415.64" as="targetPoint" />
          </mxGeometry>
        </mxCell>
        <mxCell id="4-OcaDWb1pI56sViG0Ku-15" value="&lt;p style=&quot;margin:0px;margin-top:4px;text-align:center;&quot;&gt;&lt;b style=&quot;border-color: var(--border-color);&quot;&gt;Смена языка&lt;/b&gt;&lt;br&gt;&lt;/p&gt;&lt;hr size=&quot;1&quot;&gt;&lt;p style=&quot;margin:0px;margin-left:4px;&quot;&gt;+ Изображение в виде иконки переводчика&lt;/p&gt;&lt;p style=&quot;margin:0px;margin-left:4px;&quot;&gt;+ Текстовое поле &quot;Сменить язык&quot;&lt;br&gt;&lt;/p&gt;&lt;p style=&quot;margin:0px;margin-left:4px;&quot;&gt;+ Текстовое поле &quot;Русский&quot;&lt;/p&gt;&lt;p style=&quot;margin:0px;margin-left:4px;&quot;&gt;+ Радиокнопка&lt;/p&gt;&lt;p style=&quot;border-color: var(--border-color); margin: 0px 0px 0px 4px;&quot;&gt;+ Текстовое поле &quot;English&quot;&lt;/p&gt;&lt;p style=&quot;border-color: var(--border-color); margin: 0px 0px 0px 4px;&quot;&gt;+ Радиокнопка&lt;/p&gt;&lt;hr size=&quot;1&quot;&gt;&lt;p style=&quot;margin:0px;margin-left:4px;&quot;&gt;+ Смена языка приложения&lt;/p&gt;" style="verticalAlign=top;align=left;overflow=fill;fontSize=12;fontFamily=Helvetica;html=1;whiteSpace=wrap;" parent="1" vertex="1">
          <mxGeometry x="384" y="16" width="260" height="150" as="geometry" />
        </mxCell>
        <mxCell id="4-OcaDWb1pI56sViG0Ku-16" value="" style="endArrow=diamondThin;endFill=0;endSize=24;html=1;rounded=0;exitX=0.477;exitY=1.002;exitDx=0;exitDy=0;exitPerimeter=0;dashed=1;" parent="1" edge="1">
          <mxGeometry width="160" relative="1" as="geometry">
            <mxPoint x="503.5" y="166" as="sourcePoint" />
            <mxPoint x="505" y="216" as="targetPoint" />
          </mxGeometry>
        </mxCell>
        <mxCell id="4-OcaDWb1pI56sViG0Ku-17" value="&lt;p style=&quot;margin:0px;margin-top:4px;text-align:center;&quot;&gt;&lt;b style=&quot;border-color: var(--border-color);&quot;&gt;Отмена регистрации&lt;/b&gt;&lt;br&gt;&lt;/p&gt;&lt;hr size=&quot;1&quot;&gt;&lt;p style=&quot;margin:0px;margin-left:4px;&quot;&gt;+ Изображение в виде иконки отмены регистрации&lt;/p&gt;&lt;p style=&quot;margin:0px;margin-left:4px;&quot;&gt;+ Текстовое поле &quot;Внимание&quot;&lt;br&gt;&lt;/p&gt;&lt;p style=&quot;margin:0px;margin-left:4px;&quot;&gt;+ Текстовое поле &quot;Вы действительно хотите отменить регистрацию на данное мероприятие?&quot;&lt;/p&gt;&lt;p style=&quot;margin:0px;margin-left:4px;&quot;&gt;+ Кнопка &quot;Да&quot;&lt;/p&gt;&lt;p style=&quot;margin:0px;margin-left:4px;&quot;&gt;+ Кнопка &quot;Нет&quot;&lt;br&gt;&lt;/p&gt;&lt;hr size=&quot;1&quot;&gt;&lt;p style=&quot;margin:0px;margin-left:4px;&quot;&gt;+ Отмена регистрации на мероприятие&lt;/p&gt;" style="verticalAlign=top;align=left;overflow=fill;fontSize=12;fontFamily=Helvetica;html=1;whiteSpace=wrap;" parent="1" vertex="1">
          <mxGeometry x="-81" y="936" width="260" height="190" as="geometry" />
        </mxCell>
        <mxCell id="4-OcaDWb1pI56sViG0Ku-18" value="" style="endArrow=diamondThin;endFill=0;endSize=24;html=1;rounded=0;exitX=-0.002;exitY=0.418;exitDx=0;exitDy=0;exitPerimeter=0;entryX=1;entryY=0.475;entryDx=0;entryDy=0;entryPerimeter=0;dashed=1;" parent="1" edge="1">
          <mxGeometry width="160" relative="1" as="geometry">
            <mxPoint x="-81" y="996" as="sourcePoint" />
            <mxPoint x="-155" y="996" as="targetPoint" />
          </mxGeometry>
        </mxCell>
        <mxCell id="hrLa5t8px0gnA0s7FKmb-1" value="&lt;p style=&quot;margin:0px;margin-top:4px;text-align:center;&quot;&gt;&lt;b style=&quot;border-color: var(--border-color);&quot;&gt;Авторизация&lt;/b&gt;&lt;br&gt;&lt;/p&gt;&lt;hr size=&quot;1&quot;&gt;&lt;p style=&quot;margin:0px;margin-left:4px;&quot;&gt;+ Изображение в виде иконки авторизации&lt;/p&gt;&lt;p style=&quot;margin:0px;margin-left:4px;&quot;&gt;+ Текстовое поле &quot;Войти как:&quot;&lt;br&gt;&lt;/p&gt;&lt;p style=&quot;margin:0px;margin-left:4px;&quot;&gt;+ Текстовое поле &quot;Студент&quot;&lt;/p&gt;&lt;p style=&quot;margin:0px;margin-left:4px;&quot;&gt;+ Радиокнопка&lt;/p&gt;&lt;p style=&quot;border-color: var(--border-color); margin: 0px 0px 0px 4px;&quot;&gt;+ Текстовое поле &quot;Ответственный за мероприятие&quot;&lt;/p&gt;&lt;p style=&quot;border-color: var(--border-color); margin: 0px 0px 0px 4px;&quot;&gt;+ Радиокнопка&lt;/p&gt;&lt;hr size=&quot;1&quot;&gt;&lt;p style=&quot;margin:0px;margin-left:4px;&quot;&gt;+ Авторизация в качестве студента&lt;/p&gt;&lt;p style=&quot;margin:0px;margin-left:4px;&quot;&gt;+ Авторизация в качестве ответственного за мероприятие&lt;/p&gt;" style="verticalAlign=top;align=left;overflow=fill;fontSize=12;fontFamily=Helvetica;html=1;whiteSpace=wrap;" parent="1" vertex="1">
          <mxGeometry x="1060" y="576" width="260" height="194" as="geometry" />
        </mxCell>
        <mxCell id="hrLa5t8px0gnA0s7FKmb-2" value="" style="endArrow=diamondThin;endFill=0;endSize=24;html=1;rounded=0;dashed=1;exitX=-0.002;exitY=0.364;exitDx=0;exitDy=0;exitPerimeter=0;entryX=1.004;entryY=0.303;entryDx=0;entryDy=0;entryPerimeter=0;" parent="1" source="hrLa5t8px0gnA0s7FKmb-1" target="rZW8BFmAkzOGYNL0ekdx-2" edge="1">
          <mxGeometry width="160" relative="1" as="geometry">
            <mxPoint x="1079" y="656" as="sourcePoint" />
            <mxPoint x="999" y="656" as="targetPoint" />
          </mxGeometry>
        </mxCell>
        <mxCell id="hrLa5t8px0gnA0s7FKmb-5" value="" style="endArrow=diamondThin;endFill=0;endSize=24;html=1;rounded=0;entryX=0.5;entryY=0;entryDx=0;entryDy=0;dashed=1;exitX=0.5;exitY=1;exitDx=0;exitDy=0;" parent="1" source="W-fshxjDvWvPwKtsiL-p-3" target="hrLa5t8px0gnA0s7FKmb-1" edge="1">
          <mxGeometry width="160" relative="1" as="geometry">
            <mxPoint x="1220" y="540" as="sourcePoint" />
            <mxPoint x="1350" y="596" as="targetPoint" />
          </mxGeometry>
        </mxCell>
        <mxCell id="hrLa5t8px0gnA0s7FKmb-8" value="&lt;p style=&quot;margin:0px;margin-top:4px;text-align:center;&quot;&gt;&lt;b style=&quot;border-color: var(--border-color);&quot;&gt;Регистрация на мероприятие&lt;/b&gt;&lt;br&gt;&lt;/p&gt;&lt;hr size=&quot;1&quot;&gt;&lt;p style=&quot;margin:0px;margin-left:4px;&quot;&gt;+ Изображение в виде иконки регистрации&lt;/p&gt;&lt;p style=&quot;margin:0px;margin-left:4px;&quot;&gt;+ Текстовое поле &quot;Зарегистрироваться как:&quot;&lt;br&gt;&lt;/p&gt;&lt;p style=&quot;margin:0px;margin-left:4px;&quot;&gt;+ Текстовое поле &quot;Участник&quot;&lt;/p&gt;&lt;p style=&quot;margin:0px;margin-left:4px;&quot;&gt;+ Радиокнопка&lt;/p&gt;&lt;p style=&quot;border-color: var(--border-color); margin: 0px 0px 0px 4px;&quot;&gt;+ Текстовое поле &quot;Зритель&quot;&lt;/p&gt;&lt;p style=&quot;border-color: var(--border-color); margin: 0px 0px 0px 4px;&quot;&gt;+ Радиокнопка&lt;/p&gt;&lt;hr size=&quot;1&quot;&gt;&lt;p style=&quot;margin:0px;margin-left:4px;&quot;&gt;+ Регистрация на мероприятие&lt;/p&gt;" style="verticalAlign=top;align=left;overflow=fill;fontSize=12;fontFamily=Helvetica;html=1;whiteSpace=wrap;" parent="1" vertex="1">
          <mxGeometry x="-41" y="402" width="260" height="148" as="geometry" />
        </mxCell>
        <mxCell id="hrLa5t8px0gnA0s7FKmb-10" value="" style="endArrow=diamondThin;endFill=0;endSize=24;html=1;rounded=0;exitX=0.5;exitY=1;exitDx=0;exitDy=0;dashed=1;entryX=0.553;entryY=-0.001;entryDx=0;entryDy=0;entryPerimeter=0;" parent="1" source="hrLa5t8px0gnA0s7FKmb-8" target="rZW8BFmAkzOGYNL0ekdx-1" edge="1">
          <mxGeometry width="160" relative="1" as="geometry">
            <mxPoint x="60" y="600" as="sourcePoint" />
            <mxPoint x="40" y="550" as="targetPoint" />
          </mxGeometry>
        </mxCell>
        <mxCell id="hrLa5t8px0gnA0s7FKmb-14" value="" style="endArrow=diamondThin;endFill=0;endSize=24;html=1;rounded=0;dashed=1;entryX=0;entryY=0.25;entryDx=0;entryDy=0;" parent="1" target="hrLa5t8px0gnA0s7FKmb-8" edge="1">
          <mxGeometry width="160" relative="1" as="geometry">
            <mxPoint x="-170" y="440" as="sourcePoint" />
            <mxPoint x="-100" y="520" as="targetPoint" />
          </mxGeometry>
        </mxCell>
      </root>
    </mxGraphModel>
  </diagram>
  <diagram id="PAqf2tTf54U8kuPaEFG_" name="Страница 2">
    <mxGraphModel dx="4424" dy="820" grid="1" gridSize="10" guides="1" tooltips="1" connect="1" arrows="1" fold="1" page="1" pageScale="1" pageWidth="827" pageHeight="1169" math="0" shadow="0">
      <root>
        <mxCell id="0" />
        <mxCell id="1" parent="0" />
        <mxCell id="H3C_5nCBZ4pXajR4vEzF-1" value="&lt;p style=&quot;margin:0px;margin-top:4px;text-align:center;&quot;&gt;&lt;b&gt;Мероприятия&lt;/b&gt;&lt;/p&gt;&lt;hr size=&quot;1&quot;&gt;&lt;p style=&quot;margin:0px;margin-left:4px;&quot;&gt;+ Текстовое поле &quot;Мероприятия&quot; для верхнего меню основного экрана&lt;/p&gt;&lt;p style=&quot;margin:0px;margin-left:4px;&quot;&gt;+ Текстовое поле с надписью &quot;Фильтры&quot;&lt;/p&gt;&lt;p style=&quot;margin:0px;margin-left:4px;&quot;&gt;+ Кнопка фильтра &quot;Внешние&quot;&lt;/p&gt;&lt;p style=&quot;margin:0px;margin-left:4px;&quot;&gt;+ Кнопка фильтра &quot;Внутренние&quot;&lt;/p&gt;&lt;p style=&quot;margin:0px;margin-left:4px;&quot;&gt;+ Поисковая строка &quot;Поиск мероприятия&quot;&lt;br&gt;&lt;/p&gt;&lt;p style=&quot;margin:0px;margin-left:4px;&quot;&gt;+ Карточки мероприятий&lt;/p&gt;&amp;nbsp;+ Кнопка &quot;Открыть описание&quot; на карточке мероприятия&lt;br&gt;&lt;hr size=&quot;1&quot;&gt;&lt;p style=&quot;margin:0px;margin-left:4px;&quot;&gt;+ Выбор карточки мероприятия&lt;/p&gt;&lt;p style=&quot;margin:0px;margin-left:4px;&quot;&gt;+ Поиск мероприятия по названию&lt;/p&gt;&lt;p style=&quot;margin:0px;margin-left:4px;&quot;&gt;+ Фильтрация мероприятий по типу&lt;/p&gt;" style="verticalAlign=top;align=left;overflow=fill;fontSize=12;fontFamily=Helvetica;html=1;whiteSpace=wrap;" parent="1" vertex="1">
          <mxGeometry x="-100" y="1630" width="340" height="210" as="geometry" />
        </mxCell>
        <mxCell id="BO_IwHIeO-3fec4dnypW-1" value="&lt;p style=&quot;margin:0px;margin-top:4px;text-align:center;&quot;&gt;&lt;b&gt;Страница мероприятия&lt;/b&gt;&lt;/p&gt;&lt;hr size=&quot;1&quot;&gt;&lt;p style=&quot;margin:0px;margin-left:4px;&quot;&gt;+ Текстовое поле с названием мероприятия для верхнего меню основного экрана&lt;br&gt;&lt;/p&gt;&lt;p style=&quot;margin:0px;margin-left:4px;&quot;&gt;+ Кнопка возврата в предыдущее окно&lt;br&gt;&lt;/p&gt;&lt;p style=&quot;margin:0px;margin-left:4px;&quot;&gt;+ Карусель изображений мероприятия&lt;/p&gt;&lt;p style=&quot;margin:0px;margin-left:4px;&quot;&gt;+ Текстовое поле названия мероприятия&lt;/p&gt;&lt;p style=&quot;margin:0px;margin-left:4px;&quot;&gt;+ Текстовое поле тегов мероприятия&lt;/p&gt;&lt;p style=&quot;margin:0px;margin-left:4px;&quot;&gt;+ Текстовое поле даты и времени проведения мероприятия&lt;/p&gt;&lt;p style=&quot;margin:0px;margin-left:4px;&quot;&gt;+ Текстовое поле &quot;Место проведения&quot;&lt;/p&gt;&lt;p style=&quot;margin:0px;margin-left:4px;&quot;&gt;+ Текстовое поле с местом проведения мероприятия&lt;/p&gt;&lt;p style=&quot;margin:0px;margin-left:4px;&quot;&gt;+ Текстовое поле &quot;Уже участвуют:&quot;&lt;/p&gt;&lt;p style=&quot;margin:0px;margin-left:4px;&quot;&gt;+ Текстовое поле с количеством участников мероприятия&lt;/p&gt;&lt;p style=&quot;margin:0px;margin-left:4px;&quot;&gt;+ Текстовое поле &quot;Регистрация доступна до&quot;&lt;/p&gt;&lt;p style=&quot;margin:0px;margin-left:4px;&quot;&gt;+ Текстовое поле с датой и временем конца регистрации на мероприятие&lt;/p&gt;&lt;hr size=&quot;1&quot;&gt;&lt;p style=&quot;margin:0px;margin-left:4px;&quot;&gt;&lt;span style=&quot;background-color: initial;&quot;&gt;+ Возврат в предыдущее окно&lt;/span&gt;&lt;br&gt;&lt;/p&gt;&lt;p style=&quot;margin:0px;margin-left:4px;&quot;&gt;+ Переход в окно статистики мероприятия&lt;span style=&quot;background-color: initial;&quot;&gt;&lt;br&gt;&lt;/span&gt;&lt;/p&gt;" style="verticalAlign=top;align=left;overflow=fill;fontSize=12;fontFamily=Helvetica;html=1;whiteSpace=wrap;" parent="1" vertex="1">
          <mxGeometry x="-410" y="1520" width="260" height="340" as="geometry" />
        </mxCell>
        <mxCell id="eVMxFfnYpsyR3b-wAnDT-1" value="&lt;p style=&quot;margin:0px;margin-top:4px;text-align:center;&quot;&gt;&lt;b&gt;Профиль (без авторизации)&lt;/b&gt;&lt;/p&gt;&lt;hr size=&quot;1&quot;&gt;&lt;p style=&quot;margin:0px;margin-left:4px;&quot;&gt;+ Текстовое поле &quot;Профиль&quot; для верхнего меню основного экрана&lt;br&gt;&lt;/p&gt;&lt;p style=&quot;margin:0px;margin-left:4px;&quot;&gt;+ Текстовое поле с информацией об авторизации&lt;/p&gt;&lt;p style=&quot;margin:0px;margin-left:4px;&quot;&gt;+ Поле ввода имени пользователя&lt;/p&gt;&lt;p style=&quot;margin:0px;margin-left:4px;&quot;&gt;+ Поле ввода пароля&lt;/p&gt;&lt;p style=&quot;margin:0px;margin-left:4px;&quot;&gt;+ Кнопка &quot;Войти&quot;&lt;/p&gt;&lt;p style=&quot;margin:0px;margin-left:4px;&quot;&gt;+ Кнопка &quot;Войти через личный кабинет&quot;&lt;/p&gt;&lt;hr size=&quot;1&quot;&gt;&lt;p style=&quot;margin:0px;margin-left:4px;&quot;&gt;+ Авторизация в системе с помощью имени пользователя и пароля&lt;/p&gt;&lt;p style=&quot;margin:0px;margin-left:4px;&quot;&gt;+ Авторизация в системе с помощью аккаунта личного кабинета&lt;/p&gt;" style="verticalAlign=top;align=left;overflow=fill;fontSize=12;fontFamily=Helvetica;html=1;whiteSpace=wrap;" parent="1" vertex="1">
          <mxGeometry x="670" y="1740" width="260" height="230" as="geometry" />
        </mxCell>
        <mxCell id="eVMxFfnYpsyR3b-wAnDT-2" value="&lt;p style=&quot;margin:0px;margin-top:4px;text-align:center;&quot;&gt;&lt;b style=&quot;border-color: var(--border-color);&quot;&gt;Профиль (авторизованный)&lt;/b&gt;&lt;br&gt;&lt;/p&gt;&lt;hr size=&quot;1&quot;&gt;&lt;p style=&quot;margin:0px;margin-left:4px;&quot;&gt;+ Текстовое поле &quot;Профиль&quot; для верхнего меню основного экрана&lt;br&gt;&lt;/p&gt;&lt;p style=&quot;margin:0px;margin-left:4px;&quot;&gt;+ Текстовое поле с ФИО авторизованного пользователя&lt;/p&gt;&lt;p style=&quot;margin:0px;margin-left:4px;&quot;&gt;+ Текстовое поле с роли авторизованного пользователя&lt;/p&gt;&lt;p style=&quot;margin:0px;margin-left:4px;&quot;&gt;+ Кнопка &quot;Выйти из аккаунта&quot;&lt;/p&gt;&lt;hr size=&quot;1&quot;&gt;&lt;p style=&quot;margin:0px;margin-left:4px;&quot;&gt;+ Выход из аккаунта пользователя&lt;/p&gt;" style="verticalAlign=top;align=left;overflow=fill;fontSize=12;fontFamily=Helvetica;html=1;whiteSpace=wrap;" parent="1" vertex="1">
          <mxGeometry x="1020" y="1520" width="260" height="170" as="geometry" />
        </mxCell>
        <mxCell id="eVMxFfnYpsyR3b-wAnDT-4" value="&lt;p style=&quot;margin:0px;margin-top:4px;text-align:center;&quot;&gt;&lt;b style=&quot;border-color: var(--border-color);&quot;&gt;Выход&lt;/b&gt;&lt;br&gt;&lt;/p&gt;&lt;hr size=&quot;1&quot;&gt;&lt;p style=&quot;margin:0px;margin-left:4px;&quot;&gt;+ Изображение в виде иконки выхода&lt;/p&gt;&lt;p style=&quot;margin:0px;margin-left:4px;&quot;&gt;+ Текстовое поле &quot;Выход&quot;&lt;br&gt;&lt;/p&gt;&lt;p style=&quot;margin:0px;margin-left:4px;&quot;&gt;+ Текстовое поле &quot;Вы действительно хотите выйти из аккаунта?&quot;&lt;/p&gt;&lt;p style=&quot;margin:0px;margin-left:4px;&quot;&gt;+ Кнопка &quot;Да&quot;&lt;/p&gt;&lt;p style=&quot;margin:0px;margin-left:4px;&quot;&gt;+ Кнопка &quot;Нет&quot;&lt;br&gt;&lt;/p&gt;&lt;hr size=&quot;1&quot;&gt;&lt;p style=&quot;margin:0px;margin-left:4px;&quot;&gt;+ Выход из аккаунта пользователя&lt;br&gt;&lt;/p&gt;&lt;p style=&quot;margin:0px;margin-left:4px;&quot;&gt;+ Отмена выхода из аккаунта пользователя&lt;/p&gt;" style="verticalAlign=top;align=left;overflow=fill;fontSize=12;fontFamily=Helvetica;html=1;whiteSpace=wrap;" parent="1" vertex="1">
          <mxGeometry x="1330" y="1520" width="260" height="170" as="geometry" />
        </mxCell>
        <mxCell id="eVMxFfnYpsyR3b-wAnDT-5" value="" style="endArrow=diamondThin;endFill=0;endSize=24;html=1;rounded=0;exitX=-0.001;exitY=0.415;exitDx=0;exitDy=0;exitPerimeter=0;entryX=1.001;entryY=0.413;entryDx=0;entryDy=0;entryPerimeter=0;dashed=1;" parent="1" source="eVMxFfnYpsyR3b-wAnDT-4" target="eVMxFfnYpsyR3b-wAnDT-2" edge="1">
          <mxGeometry width="160" relative="1" as="geometry">
            <mxPoint x="1324" y="1594.6399999999999" as="sourcePoint" />
            <mxPoint x="1280" y="1594.6399999999999" as="targetPoint" />
          </mxGeometry>
        </mxCell>
        <mxCell id="9Js_kMUWU7n8-kJU8uaQ-1" value="&lt;p style=&quot;margin:0px;margin-top:4px;text-align:center;&quot;&gt;&lt;b&gt;Настройки&lt;/b&gt;&lt;/p&gt;&lt;hr size=&quot;1&quot;&gt;&lt;p style=&quot;margin:0px;margin-left:4px;&quot;&gt;+ Текстовое поле &quot;Настройки&quot; для верхнего меню основного экрана&lt;br&gt;&lt;/p&gt;&lt;p style=&quot;margin:0px;margin-left:4px;&quot;&gt;+ Кнопка возврата в предыдущее окно&lt;br&gt;&lt;/p&gt;&lt;p style=&quot;margin:0px;margin-left:4px;&quot;&gt;+ Текстовое поле &quot;Темная тема приложения:&quot;&lt;/p&gt;&lt;p style=&quot;margin:0px;margin-left:4px;&quot;&gt;+ Переключатель графической темной темы приложения&lt;/p&gt;&lt;p style=&quot;margin:0px;margin-left:4px;&quot;&gt;+ Кнопка &quot;Изменить язык приложения&quot;&lt;/p&gt;&lt;hr size=&quot;1&quot;&gt;&lt;p style=&quot;margin:0px;margin-left:4px;&quot;&gt;+ Изменение графической темы приложения&lt;/p&gt;&lt;p style=&quot;margin:0px;margin-left:4px;&quot;&gt;+ Изменение языка приложения&amp;nbsp;&lt;/p&gt;&lt;p style=&quot;margin:0px;margin-left:4px;&quot;&gt;+ Возврат в предыдущее окно&lt;/p&gt;" style="verticalAlign=top;align=left;overflow=fill;fontSize=12;fontFamily=Helvetica;html=1;whiteSpace=wrap;" parent="1" vertex="1">
          <mxGeometry x="330" y="2045" width="270" height="200" as="geometry" />
        </mxCell>
        <mxCell id="9Js_kMUWU7n8-kJU8uaQ-2" value="&lt;p style=&quot;margin:0px;margin-top:4px;text-align:center;&quot;&gt;&lt;b style=&quot;border-color: var(--border-color);&quot;&gt;Смена языка&lt;/b&gt;&lt;br&gt;&lt;/p&gt;&lt;hr size=&quot;1&quot;&gt;&lt;p style=&quot;margin:0px;margin-left:4px;&quot;&gt;+ Изображение в виде иконки переводчика&lt;/p&gt;&lt;p style=&quot;margin:0px;margin-left:4px;&quot;&gt;+ Текстовое поле &quot;Сменить язык&quot;&lt;br&gt;&lt;/p&gt;&lt;p style=&quot;margin:0px;margin-left:4px;&quot;&gt;+ Текстовое поле &quot;Русский&quot;&lt;/p&gt;&lt;p style=&quot;margin:0px;margin-left:4px;&quot;&gt;+ Радиокнопка&lt;/p&gt;&lt;p style=&quot;border-color: var(--border-color); margin: 0px 0px 0px 4px;&quot;&gt;+ Текстовое поле &quot;English&quot;&lt;/p&gt;&lt;p style=&quot;border-color: var(--border-color); margin: 0px 0px 0px 4px;&quot;&gt;+ Радиокнопка&lt;/p&gt;&lt;hr size=&quot;1&quot;&gt;&lt;p style=&quot;margin:0px;margin-left:4px;&quot;&gt;+ Смена языка приложения&lt;/p&gt;" style="verticalAlign=top;align=left;overflow=fill;fontSize=12;fontFamily=Helvetica;html=1;whiteSpace=wrap;" parent="1" vertex="1">
          <mxGeometry x="650" y="2060" width="260" height="150" as="geometry" />
        </mxCell>
        <mxCell id="9Js_kMUWU7n8-kJU8uaQ-3" value="" style="endArrow=diamondThin;endFill=0;endSize=24;html=1;rounded=0;exitX=-0.006;exitY=0.231;exitDx=0;exitDy=0;entryX=1;entryY=0.25;entryDx=0;entryDy=0;exitPerimeter=0;dashed=1;" parent="1" source="9Js_kMUWU7n8-kJU8uaQ-2" target="9Js_kMUWU7n8-kJU8uaQ-1" edge="1">
          <mxGeometry width="160" relative="1" as="geometry">
            <mxPoint x="444.5" y="2015" as="sourcePoint" />
            <mxPoint x="450" y="2245" as="targetPoint" />
          </mxGeometry>
        </mxCell>
        <mxCell id="r3nukED_H4x7k0FqYVvu-1" value="&lt;p style=&quot;margin:0px;margin-top:4px;text-align:center;&quot;&gt;&lt;b&gt;Основной экран приложения&lt;/b&gt;&lt;/p&gt;&lt;hr size=&quot;1&quot;&gt;&lt;p style=&quot;border-color: var(--border-color); margin: 0px 0px 0px 4px;&quot;&gt;+ Верхнее меню с текстовым полем для заголовка&lt;/p&gt;&lt;p style=&quot;border-color: var(--border-color); margin: 0px 0px 0px 4px;&quot;&gt;+ Кнопка вызова меню настроек на верхнем меню&lt;/p&gt;&lt;p style=&quot;border-color: var(--border-color); margin: 0px 0px 0px 4px;&quot;&gt;+ Экран фрагмента&lt;/p&gt;&lt;p style=&quot;margin:0px;margin-left:4px;&quot;&gt;+ Нижнее меню с набором кнопок&lt;/p&gt;&lt;p style=&quot;margin:0px;margin-left:4px;&quot;&gt;+ Кнопка &quot;Мои мероприятия&quot; нижнего меню&lt;br style=&quot;border-color: var(--border-color);&quot;&gt;+ Кнопка &quot;Мероприятия&quot; нижнего меню&lt;/p&gt;&lt;p style=&quot;margin:0px;margin-left:4px;&quot;&gt;+ Кнопка &quot;Присутствие&quot; нижнего меню&lt;br style=&quot;border-color: var(--border-color);&quot;&gt;+ Кнопка &quot;Профиль&quot; нижнего меню&lt;br&gt;&lt;/p&gt;&lt;hr size=&quot;1&quot;&gt;&lt;p style=&quot;margin:0px;margin-left:4px;&quot;&gt;&lt;span style=&quot;background-color: initial;&quot;&gt;+ Переход в меню настроек&lt;/span&gt;&lt;br&gt;&lt;/p&gt;&lt;p style=&quot;border-color: var(--border-color); margin: 0px 0px 0px 4px;&quot;&gt;+ Переход в окно &quot;Профиль&quot;&lt;/p&gt;&lt;p style=&quot;border-color: var(--border-color); margin: 0px 0px 0px 4px;&quot;&gt;+ Переход в окно &quot;Присутствие&quot;&lt;br&gt;&lt;/p&gt;&lt;p style=&quot;border-color: var(--border-color); margin: 0px 0px 0px 4px;&quot;&gt;+ Переход в окно &quot;Мероприятия&quot;&lt;/p&gt;&lt;p style=&quot;border-color: var(--border-color); margin: 0px 0px 0px 4px;&quot;&gt;+ Переход в окно &quot;Мои мероприятия&quot;&lt;br&gt;&lt;/p&gt;" style="verticalAlign=top;align=left;overflow=fill;fontSize=12;fontFamily=Helvetica;html=1;whiteSpace=wrap;" parent="1" vertex="1">
          <mxGeometry x="290" y="1760" width="310" height="240" as="geometry" />
        </mxCell>
        <mxCell id="VsIccJz7fIcwRAwT_1K0-1" value="&lt;p style=&quot;margin:0px;margin-top:4px;text-align:center;&quot;&gt;&lt;b&gt;Мои мероприятия&lt;/b&gt;&lt;/p&gt;&lt;hr size=&quot;1&quot;&gt;&lt;p style=&quot;border-color: var(--border-color); margin: 0px 0px 0px 4px;&quot;&gt;+ Текстовое поле &quot;Мои мероприятия&quot; для верхнего меню основного экрана&lt;/p&gt;&lt;p style=&quot;margin:0px;margin-left:4px;&quot;&gt;+ Поисковая строка &quot;Поиск мероприятия&quot;&lt;/p&gt;&lt;p style=&quot;margin:0px;margin-left:4px;&quot;&gt;+ Карточки мероприятий&lt;/p&gt;&lt;hr size=&quot;1&quot;&gt;&lt;p style=&quot;margin:0px;margin-left:4px;&quot;&gt;+ Выбор карточки мероприятия&lt;br&gt;&lt;/p&gt;&lt;p style=&quot;margin:0px;margin-left:4px;&quot;&gt;+ Поиск мероприятия по названию&lt;br&gt;&lt;/p&gt;&lt;p style=&quot;border-color: var(--border-color); margin: 0px 0px 0px 4px;&quot;&gt;&lt;br&gt;&lt;/p&gt;" style="verticalAlign=top;align=left;overflow=fill;fontSize=12;fontFamily=Helvetica;html=1;whiteSpace=wrap;" parent="1" vertex="1">
          <mxGeometry x="-100" y="1905" width="310" height="140" as="geometry" />
        </mxCell>
        <mxCell id="VsIccJz7fIcwRAwT_1K0-2" value="&lt;p style=&quot;margin:0px;margin-top:4px;text-align:center;&quot;&gt;&lt;b style=&quot;border-color: var(--border-color);&quot;&gt;Информация о мероприятии&lt;/b&gt;&lt;/p&gt;&lt;hr size=&quot;1&quot;&gt;&lt;p style=&quot;margin:0px;margin-left:4px;&quot;&gt;+ Текстовое поле с названием мероприятия для верхнего меню основного экрана&lt;br&gt;&lt;/p&gt;&lt;p style=&quot;margin:0px;margin-left:4px;&quot;&gt;+ Кнопка возврата в предыдущее окно&lt;br&gt;&lt;/p&gt;&lt;p style=&quot;margin:0px;margin-left:4px;&quot;&gt;+ Карусель изображений мероприятия&lt;br&gt;&lt;/p&gt;&lt;p style=&quot;margin:0px;margin-left:4px;&quot;&gt;+ Текстовое поле &quot;Название мероприятия:&quot;&lt;br&gt;&lt;/p&gt;&lt;p style=&quot;margin:0px;margin-left:4px;&quot;&gt;+ Текстовое поле названия мероприятия&lt;/p&gt;&lt;p style=&quot;margin:0px;margin-left:4px;&quot;&gt;+ Текстовое поле &quot;Теги мероприятия:&quot;&lt;br&gt;&lt;/p&gt;&lt;p style=&quot;margin:0px;margin-left:4px;&quot;&gt;+ Текстовое поле тегов мероприятия&lt;/p&gt;&lt;p style=&quot;margin:0px;margin-left:4px;&quot;&gt;+ Текстовое поле &quot;Дата и время проведения мероприятия&quot;&lt;br&gt;&lt;/p&gt;&lt;p style=&quot;margin:0px;margin-left:4px;&quot;&gt;+ Текстовое поле даты и времени проведения мероприятия&lt;br&gt;&lt;/p&gt;&lt;p style=&quot;margin:0px;margin-left:4px;&quot;&gt;+ Текстовое поле &quot;Описание мероприятия:&quot;&lt;/p&gt;&lt;p style=&quot;margin:0px;margin-left:4px;&quot;&gt;+ Текстовое поле описания мероприятия&lt;/p&gt;&lt;p style=&quot;margin:0px;margin-left:4px;&quot;&gt;+ Текстовое поле &quot;Место проведения:&quot;&lt;/p&gt;&lt;p style=&quot;margin:0px;margin-left:4px;&quot;&gt;+Текстовое поле места проведения мероприятия&lt;/p&gt;&lt;p style=&quot;margin:0px;margin-left:4px;&quot;&gt;+ Текстовое поле &quot;Регистрация доступна с:&quot;&lt;/p&gt;&lt;p style=&quot;margin:0px;margin-left:4px;&quot;&gt;+ Текстовое поле даты и времени начала регистрации&lt;/p&gt;&lt;p style=&quot;border-color: var(--border-color); margin: 0px 0px 0px 4px;&quot;&gt;+ Текстовое поле &quot;Регистрация доступна до:&quot;&lt;/p&gt;&lt;p style=&quot;border-color: var(--border-color); margin: 0px 0px 0px 4px;&quot;&gt;+ Текстовое поле даты и времени конца регистрации&lt;/p&gt;&lt;p style=&quot;border-color: var(--border-color); margin: 0px 0px 0px 4px;&quot;&gt;+ Текстовое поле &quot;Организаторы:&quot;&lt;/p&gt;&lt;p style=&quot;border-color: var(--border-color); margin: 0px 0px 0px 4px;&quot;&gt;+ Текстовое поле списка организаторов мероприятия&lt;/p&gt;&lt;p style=&quot;border-color: var(--border-color); margin: 0px 0px 0px 4px;&quot;&gt;+ Кнопка &quot;Статистика мероприятия&quot;&lt;/p&gt;&lt;hr size=&quot;1&quot;&gt;&lt;p style=&quot;margin:0px;margin-left:4px;&quot;&gt;&lt;span style=&quot;background-color: initial;&quot;&gt;+ Возврат в предыдущее окно&lt;/span&gt;&lt;/p&gt;" style="verticalAlign=top;align=left;overflow=fill;fontSize=12;fontFamily=Helvetica;html=1;whiteSpace=wrap;" parent="1" vertex="1">
          <mxGeometry x="-445" y="1880" width="290" height="440" as="geometry" />
        </mxCell>
        <mxCell id="VsIccJz7fIcwRAwT_1K0-3" value="&lt;p style=&quot;margin:0px;margin-top:4px;text-align:center;&quot;&gt;&lt;b&gt;Подтверждение присутствия&lt;/b&gt;&lt;/p&gt;&lt;hr size=&quot;1&quot;&gt;&lt;p style=&quot;border-color: var(--border-color); margin: 0px 0px 0px 4px;&quot;&gt;+ Текстовое поле &quot;Подтверждение присутствия&quot; для верхнего меню основного экрана&lt;/p&gt;&lt;p style=&quot;margin:0px;margin-left:4px;&quot;&gt;+ Поисковая строка &quot;Поиск мероприятия&quot;&lt;/p&gt;&lt;p style=&quot;margin:0px;margin-left:4px;&quot;&gt;+ Карточки мероприятий&lt;/p&gt;&lt;hr size=&quot;1&quot;&gt;&lt;p style=&quot;margin:0px;margin-left:4px;&quot;&gt;+ Выбор карточки мероприятия&lt;br&gt;&lt;/p&gt;&lt;p style=&quot;margin:0px;margin-left:4px;&quot;&gt;+ Поиск мероприятия по названию&lt;br&gt;&lt;/p&gt;&lt;p style=&quot;border-color: var(--border-color); margin: 0px 0px 0px 4px;&quot;&gt;&lt;br&gt;&lt;/p&gt;" style="verticalAlign=top;align=left;overflow=fill;fontSize=12;fontFamily=Helvetica;html=1;whiteSpace=wrap;" parent="1" vertex="1">
          <mxGeometry x="290" y="1590" width="310" height="140" as="geometry" />
        </mxCell>
        <mxCell id="Q6JiQyxt3tVJIk7yq-6E-1" value="&lt;p style=&quot;margin:0px;margin-top:4px;text-align:center;&quot;&gt;&lt;b style=&quot;border-color: var(--border-color);&quot;&gt;Статистика посещаемости мероприятия&lt;/b&gt;&lt;br&gt;&lt;/p&gt;&lt;hr size=&quot;1&quot;&gt;&lt;p style=&quot;margin:0px;margin-left:4px;&quot;&gt;+ Текстовое поле &quot;&lt;span style=&quot;border-color: var(--border-color); text-align: center;&quot;&gt;Статистика посещаемости мероприятия&lt;/span&gt;&quot; для верхнего меню основного экрана&lt;br&gt;&lt;/p&gt;&lt;p style=&quot;margin:0px;margin-left:4px;&quot;&gt;+ Кнопка возврата в предыдущее окно&lt;br&gt;&lt;/p&gt;&lt;p style=&quot;margin:0px;margin-left:4px;&quot;&gt;+ Таблица посещаемости мероприятия&lt;/p&gt;&lt;p style=&quot;margin:0px;margin-left:4px;&quot;&gt;+ Колонка &quot;№&quot; таблицы посещаемости мероприятия&lt;br&gt;&lt;/p&gt;&lt;p style=&quot;margin:0px;margin-left:4px;&quot;&gt;+ Колонка &quot;ФИО Студента&quot; таблицы посещаемости мероприятия&lt;br&gt;&lt;/p&gt;&lt;p style=&quot;margin:0px;margin-left:4px;&quot;&gt;+ Колонка &quot;Группа&quot; таблицы посещаемости мероприятия&lt;br&gt;&lt;/p&gt;&lt;p style=&quot;margin:0px;margin-left:4px;&quot;&gt;+ Колонка &quot;Присутствует&quot; таблицы посещаемости мероприятия&lt;br&gt;&lt;/p&gt;&lt;hr size=&quot;1&quot;&gt;&lt;p style=&quot;margin:0px;margin-left:4px;&quot;&gt;&lt;span style=&quot;background-color: initial;&quot;&gt;+ Возврат в предыдущее окно&lt;/span&gt;&lt;br&gt;&lt;/p&gt;" style="verticalAlign=top;align=left;overflow=fill;fontSize=12;fontFamily=Helvetica;html=1;whiteSpace=wrap;" parent="1" vertex="1">
          <mxGeometry x="-740" y="1560" width="270" height="250" as="geometry" />
        </mxCell>
        <mxCell id="Q6JiQyxt3tVJIk7yq-6E-3" value="&lt;p style=&quot;margin:0px;margin-top:4px;text-align:center;&quot;&gt;&lt;b style=&quot;border-color: var(--border-color);&quot;&gt;Сканер QR-кода&lt;/b&gt;&lt;br&gt;&lt;/p&gt;&lt;hr size=&quot;1&quot;&gt;&lt;p style=&quot;margin:0px;margin-left:4px;&quot;&gt;+ Текстовое поле &quot;&lt;span style=&quot;border-color: var(--border-color); text-align: center;&quot;&gt;Сканер QR-кода&lt;/span&gt;&quot; для верхнего меню основного экрана&lt;br&gt;&lt;/p&gt;&lt;p style=&quot;margin:0px;margin-left:4px;&quot;&gt;+ Кнопка возврата в предыдущее окно&lt;br&gt;&lt;/p&gt;&lt;p style=&quot;margin:0px;margin-left:4px;&quot;&gt;+ Текстовое поле &quot;QR-код должен находиться в рамке для сканирования&quot;&lt;/p&gt;&lt;p style=&quot;margin:0px;margin-left:4px;&quot;&gt;+ Объект сканера QR-кодов&lt;/p&gt;&lt;hr size=&quot;1&quot;&gt;&lt;p style=&quot;margin:0px;margin-left:4px;&quot;&gt;&lt;span style=&quot;background-color: initial;&quot;&gt;+ Возврат в предыдущее окно&lt;/span&gt;&lt;br&gt;&lt;/p&gt;&lt;p style=&quot;margin:0px;margin-left:4px;&quot;&gt;&lt;span style=&quot;background-color: initial;&quot;&gt;+ Сканирование QR-кода&lt;/span&gt;&lt;/p&gt;" style="verticalAlign=top;align=left;overflow=fill;fontSize=12;fontFamily=Helvetica;html=1;whiteSpace=wrap;" parent="1" vertex="1">
          <mxGeometry x="307" y="1380" width="270" height="170" as="geometry" />
        </mxCell>
        <mxCell id="Q6JiQyxt3tVJIk7yq-6E-4" value="&lt;p style=&quot;margin:0px;margin-top:4px;text-align:center;&quot;&gt;&lt;b style=&quot;border-color: var(--border-color);&quot;&gt;Результат сканера&lt;/b&gt;&lt;br&gt;&lt;/p&gt;&lt;hr size=&quot;1&quot;&gt;&lt;p style=&quot;margin:0px;margin-left:4px;&quot;&gt;+ Текстовое поле &quot;&lt;span style=&quot;border-color: var(--border-color); text-align: center;&quot;&gt;Результат сканера&lt;/span&gt;&quot; для верхнего меню основного экрана&lt;br&gt;&lt;/p&gt;&lt;p style=&quot;margin:0px;margin-left:4px;&quot;&gt;+ Кнопка возврата в предыдущее окно&lt;br&gt;&lt;/p&gt;&lt;p style=&quot;margin:0px;margin-left:4px;&quot;&gt;+ Изображение пользователя&lt;br&gt;&lt;/p&gt;&lt;p style=&quot;margin:0px;margin-left:4px;&quot;&gt;+ Текстовое поле ФИО студента&lt;/p&gt;&lt;p style=&quot;margin:0px;margin-left:4px;&quot;&gt;+ Кнопка &quot;Подтвердить присутствие&quot;&lt;/p&gt;&lt;hr size=&quot;1&quot;&gt;&lt;p style=&quot;margin:0px;margin-left:4px;&quot;&gt;+ Возврат в предыдущее окно&lt;br&gt;&lt;/p&gt;&lt;p style=&quot;margin:0px;margin-left:4px;&quot;&gt;&lt;span style=&quot;background-color: initial;&quot;&gt;+ Подтверждение присутствия&lt;/span&gt;&lt;/p&gt;" style="verticalAlign=top;align=left;overflow=fill;fontSize=12;fontFamily=Helvetica;html=1;whiteSpace=wrap;" parent="1" vertex="1">
          <mxGeometry x="307" y="1180" width="270" height="160" as="geometry" />
        </mxCell>
        <mxCell id="Q6JiQyxt3tVJIk7yq-6E-6" value="&lt;p style=&quot;margin:0px;margin-top:4px;text-align:center;&quot;&gt;&lt;b&gt;Ошибка&lt;/b&gt;&lt;/p&gt;&lt;hr size=&quot;1&quot;&gt;&lt;p style=&quot;margin:0px;margin-left:4px;&quot;&gt;+ Изображение в виде иконки ошибки&lt;/p&gt;&lt;p style=&quot;margin:0px;margin-left:4px;&quot;&gt;+ Текстовое поле &quot;Ошибка&quot;&lt;br&gt;&lt;/p&gt;&lt;p style=&quot;margin:0px;margin-left:4px;&quot;&gt;+ Текстовое поле &quot;&lt;span data-buffer=&quot;&lt;!--(figma)ZmlnLWtpd2kZAAAAIDkAALWdaZxkS1XgI25m1tLVy+u3byyy776dx04utyqzO7eXN7Oq+4kvyaq81ZV0VmaSN6v7NeOCiIiIiIioiIiIiIiIiIiKiIiIiIiIiIoOg8g4DuM4zow6juPM/0TEvXmzuh8zX4Yfr+PEiRMntnNOnDgReesfdS2Mot65sH1pEip19alGpd4N2vlWW/G/eqPkd4vlfH3DD8jqTuC3UnnPUPv1EnAmqGzU81WgbNA+W/UBcgboBr7wWjK0hnM3OF1pdlt+tZGXmsv1RruyfrYblBudaqnbaW608iWpv+LAbqlRl/xqnG/56y0/KIM6EhT9ut8F3Sx37+v4rbMg19LIlt+sCvJoqbK+TnqsWK349Xa30KL1Yj6Qvh1P9e1Uo9NiHL707ETQbvn5mi0hf5XL2xGfzD84iJiEM8BKmtD5nR0mExRUpW6jbhpWJrPVqrRlDLo+7ofNvV4UQlakqG1agqjW2DSg3hqM+oPRudbBUGjqjfr9fqtBgWqUTLlwsKv1SAp9UKrUKHZqjApQF/P1zXwA5G20Gp0mQGa9la8JXbbQaFT9fL3baPqtfLvSqIPMbfrFdqMFtCTjJF2uVgzbFb9arTQDAVdbELHsZl2PtPyNTjXf6jYb1bMbhskaTdVLfonpntMdbftnpEvHgmqlKIjjwdlaoSEycqJSp7G6wTKrleJpmaqTQTnf9LtblXa56+peXWzU6/A0HbymKPJYqDaKp8ldu1UpbRjZug5eNRnp9TW/VMkD3FCubJSr/CfFNwYwsIO9yYFdJrtVzUujN2/lg3Kl26Zlcrds5luVfMH0/9a2Ax5mgG6R+SD38JjESfYjgr3eJNwazPba4YMzuzI3B/d18i2fUkUlN4mavtUaRna8NixkmhB3spkkW2psST+zV5rPXDPfyler6A2iXeu23PCWFtFVf12wy359o1vK0/O8aXxF8mhIRzKrklmvGK5HDNyolnyZ4rU2WuPf36hIL482W37JX0caSt1mq1H0A5GrY0yXX5Xy47HcdYOK6+OJBFXrVNuVpkFeVcvXO/lqt1JvdqRvJ8v+mbwVnKuLZX+zZcBrmlRz6GsbDNuCsrjSs+ub1Y40f0O+1WpsxcO80ebiubipMAxH/RoaIvzyQdBtl5nKDbEVqt5o1YyF0qV867QvzD3XSxGEjIg9Ul3AAJDNFhvVRpLLGWEydZYC9NZARlGoUWogiORXbJU4uzoXsiNBY73dNTzIrZXzrVKSM5bJb/lWG475Z4oMFBklc7xslutEkG93EoW9yrQCcLLaqVXqjaDSliaubvYGIyd+K0GjalZQIRKlCvNKa9JVMDpBSWrmA0sBKChETTQbXCbBQeSkNlup5c3IclirUxWApc1KyRfjtFzZZxMJdnrD0M4+u0DLbxfNxK9XZJwagTOtta3gZfzd3XDH9ThbQc1b7AF5NIBCVWo1mvOsXm9gdFjJegn970gHvUK+eHoRlREFLBrbutRAJCoYctCq08TekepqY8sAdKFt+xAgEdVuMd8U0crOc2hEq2jscU6YlsKd8bQ3G4xH1ImtLi2zvswrsGa4ldP+XNq8atgTM96eDvbJxXXg3S37buV1/WB/O5x2RoNZBN9WXoaqmpUzfjUA0PSanUwoveJ4FM2m8xVeZuXBKyk3Q9K1vGxEHv1w054JiuxjANl1OJa6tkbOZQz1UjCbjs+H+eHg3IgKCTOFeWZhAXSj03agZ4mLvQkSGY+H4RrR0InB86xGyrzIIDI269/XqVTZ7LBUILNOpsQG2a02x/QhfFjABLWUtuHLcyvdvZ38Sip/B/nVVP5O8kdS+bvIr6Xyd5M/msrfQ/5YsdIqpls/bkd7ajyQmamxe7fAqoK/6csIdDxwrzAeD8PeqDEJYwHJdupWU5lGqsmWA6yDTgHjamDvjFFgI69m8svj6eAl49GsN6S6M22ptUWWzSx4pzpslusV08N57c1wOhugeoJrNClKVS002u1GDcirjQ+isHgwjcZT5ge7nsf2UaCKrUaAplVawNo/64vqIXrkPFw901Qzz1CwhUVEnHwWU02SIylWqkBLNbGoUmWZJcZLBFpJ1s9kVzdR9vG0NphOpQOJFplVJ9UGwAJhGdmS2iLCXqkX7Vl74hXZRkGpuYBrY3OsPmSb9Q1Q6lTTl1QHm5J4zZL4fBn/wcl4OjusQxl8C0w6u5dTFBUj8CxM+zpGJCrrVXuXxgezjemgb5lkrVqlZnzeQc9qWWZep9mbzcLpiCKoKk2jIdhoY6u1Wc+D2bgVRoOXwDqZItMdMzNJP3QCeVKtPT0Y7Tjx80qVQNwT4alwVdmaAXQwuzQMg9CNnaVrBQ1nH9s4tSS6iHRZWcG/xleoF2VjybT9WrPRyhvfOhuzYTJnYTKTl+03gDreLTAcvZ3zdhmTMZUx0Pczu6YHmo0SJ9DAltrINc1dNrt2Sr0CQiYmBjhjKhTHB3Ro6uotPVQ9pt0tTibfacvOlU2xyhlWpw6i2WD3EkUPyaWZL/pdTIF18W0PArtoxr6CxKUPKvf73XYDo2LmYwGBjLGmlVoT35iclEBjB98cRwNZS7YPUK6fKl9gljv2FGHItqZiitlaOF3km6CVS21xekbcakEdc7NDKPjtLevLaEhGaCjN2jVdiVcKzfflSNSV0yB53WmZdSqw/5JmitWG8TCzuMPd2Dcmn+s08T/9rvHJu61OvV0xp5AllKpUEWfGrPdyha5Ne6mWj+Ofo+2Gu8qv03pXqrITkde1BqdQXElgz8K2IEOtsnhcwFlbgO8gZDmbM572ElR4tcaR5eBpRrhSauU3SFcpO+2fjasdIbvZsCeXNWA7jrJZy6NJHgUjf6w97Y3sotkx3MwOiuPe7mLy2UtltJApVJNF3PQB9TpHWVKP0xGnmvVWI/HdMylUbPqzKZw18rkUJrHyS81OULY4x2x5jol5rcxRltXqHJFwOiIHUotznNbmmJjT0TnKcjo2RyScjtuOskwQxcxOLCBjflctYC3Lkwu4hOvVpiWHdUyvSeNintemkZbldWlUwvF67FWl2JUycjfgDBIPyNcxY0bpbsTvb+AezjE3+b0IHbUrfpwQQrFTqBQpUMI6zmh89FTWE1tjXWxqiBIlRVmhW8DkbN0F3JI100l+OWi2rI1f2cBQsYcmiFVHmiCOWMioANpq5X9tEdneEgNx9BCyzJkH9LFgZzoeDkuDqbUVdNpp0dew6Mywsbi2LoZmJvoe9jFTs5By/0yTzc1azSIcxEsyOb3RYVvRXkRYhcaAl5UejnF1DOgVx0N8CZ2dqlWlz/GPt80/mR7/ZK27QeUHyelL/OO1QEE9R1zkn8we/2QNp2A2nlBhR2D1QqUnzg5D4NV6s+ngQaWX9m+7jbzev+12Em//tjtIMvu3CzK7f7sgc/u3C3Kp2Zticyujfkg979zBoK8eSDFdU571/ym80BsehNTRB+YscKvy1pmlem8/VDqz29sfDC9BryPZfAE8mMyinelgMiOXEdrN3nTQo8rBfjgd7KwPzh1MmVq2W3fmVYgd6wmgOeubyBywaWaxajDp7SDUC3U5/OMBiBEzeU1UwR0Tr8BgXRZXBpjmgKnkOG9gHCTE2axvunaxN4kQ5nkV9M+cFzVJN854TZ+zm3Q9A6Kb5MTnJponYA4Ug90AXErxb8bznu4WPjn/4prjDgGY/gRmklmchKqCTBtV03j5xsCvh72ZmeC/0k2OdBSp4h1NQ+J64RWbgeAz0htS00HSnIvmLREyEd90udEq1UlX8ustKV8t1Y0xOlLv1KRLa3jQEtE6yo4oQzpWsulxca1JT3AClfSqfN548yeLNr2a44yk1wQ2f21r0wQyrhPFJL0+2DIR1BuKwZakN7I4gr+pWDShtJsD6ybdUq6YGOmtzkN5WKNVl/49XCaF9BHsb7KUjyy1zaH169areRnHo2obLdnAHx0ga6SP4Xgg7T92HW+W9HFlmz6+bNt9Qtvmn3ifTZ/UtOmT5chD+pTqekHyT200Tfq0VtukX9+09W9rnq7LPN1exXyQ3kEq/byz1a5K/i5Syd+dL7Q2Se/JFzYl/3RS6fe9m5bPMzbpEOkzC9UtWZ9nkQrds0mF7jn502UZx3OLp8xR7nnFdaMIzy82TT5f7LSErsBWL/kixk3S0rrl7xNOk/6sk95BukF6J2mZZqW9CqnwP1W246G1DelPtdw4JXKDS2o8kHoFR4K0car59HtJm6ea9wqf+041n3EbaetU87a7SIPqqZrUaxM1FfoOu5qsy6a4L6RbpNKPM7XTNcGfrVeN43V/vXO6TfoNbADSrxeQBqTfuMmEkz7QDNqC75IK/oWt0y3J91rNsqTbrU5B1n0nwMUl7bdtP8J23Rw2dlkmWb9zm8S2SPc2bflg0477RZunjbyc32y1W6RD0jtI94MAy6vUiFTyY9I7SSekd5G+mPRu0inpPaQR6dNJZ6QyTwekzyC9EATYbKUukgq/B0mF3yVS4fcSUuH3b0iF3zeRCr9vJhV+30Iq/L6VVPi9VAfBHcLw23Rx0/TwZQIIy28XQHi+XABh+h0CCNdXCCBsv1MA4ftKAYTxdwkgnF8FYLr63QII51cLIJy/RwDh/BoBhPP3CiCcXyuAcP4+AYTz6wQQzt8vgHB+PYDp8w8IIJzfIIBw/kEBhPMPCSCcf1gA4fxGAYTzjwggnN8kgHD+UQGE85sB7hTOPyaAcH6LAML5xwUQzm8VQDj/hADC+W0CCOefFEA4v10A4fxTAgjndwDcJZx/WgDh/E4BhPPPCCCc3yWAcP5ZAYTzuwUQzj8ngHB+jwDC+ecFEM7vBbhbOP+CAML5fQII518UQDi/XwDh/EsCCOcPCCCcf1kA4fwrAgjnXxVAOH8Q4B7h/GsCCOcPCSCcf10A4fxhAYTzbwggnD8igHD+TQGE80cFEM6/JYBw/hjA04XzbwsgnD8ugHD+HQGE8ycEEM6/K4Bw/qQAwvn3BBDOnxJAOP++AML50wD3Cuc/EEA4f0YA4fyHAgjnzwognP9IAOH8OQGE8x8LIJw/L4Bw/hMBhPOfAhgT9WcCCOcvCCCc/1wA4fwXAgjnfyuAcP6iAML53wkgnL8kgHD+SwGE85f14UAPrtWM7VrdpXTsYnniU9Z6k4k4OdrbnY73xS2bjfnXKwzH20rr7UuzMFIZbSNMystwYbcn+ZF4ZPhf/d6sZ2iXVWZz0A/HyvNimujOznQoROuDISfboniT+f6LCCoovTKTTuHnRXu9/vhiBOjtDc7tcUbfw+/Dk+yHs95gCJQNGUskTgYe5QXO8CGhI+ClWbhvYo22aPnCYJuz547AK+YKwDbrrnWVd+T/b5M7eEzTHmNbVavbU+E5omVyR0xnlHe9WYCrlN6RiVAvVN5YPMyZOOCZC4NosI23pVWWxN3cHFe5CE88Urt6Cd6jaHc83Vd7anlgVuPlWq0YqL2H+zySroNa7Y1AcqioSJFgrrIYXD48UpZtWZ0kn76kuFodsZi98cGwX5T+1XojEPTn+umY0wmV6eZaJFUAju6auTWUbklfqdWxiYx03RRhrdXxcH/8okGRFppEj5njZX3ighGSV2h1NZHec4MRJxhpeWvQnzEwdc0CthzKPIK+dkdawoFVn8uo68Q5rbFWJYRPebnz4SU1UnoXbHUwiiuxuoIpDc6F9C7D6YGcdWlforKS2bKEOa4CyMF8YMfpZXpcaLd752hYC1iXWUOOY80xAWfb+MmdvZ64+eE0gkInOdNQpSRD9iKBGxfCKXHPsN1jfdUrPZ0ZmmCoCZZts+rc1gzpfcTWo3PnhpcmexF7jl7qJzcuETuOXt7m2Hf+xQdjUcw3aX2VZbNJByChxyu7DCaZnddovbrbGw63iYOtUxCpkT6yhyBOaex8YfwgXF6v9Ro5oC95+ugsiaByKp26U1tOHXP4sJ/M7/Hh+JxE2w1Je1yMx97Y3Y3CGZZFreoT+4M45pbUO1lOta+87DbxuX6k+hz6rL1wJ8TMXkyHA5wjPummSHkraKc9w2CkLhrRYbml7CxARoCktazk8tEOPSC3jDKPp2E1dSeF7u4OptEs6T+TmEMF0/mlDVkQ5S3tjPf3e/S2YG3e/BC7rew601VM4S5DNitL+5cz7/UvOKuxVEpWF8M55VjOPGA5E05iiN1yI5cX3P1GAUVgugy61psyj24G032w534jBVJTMvVwdnEMues8M7HfG9LNvulrPITLRVV2CiL2TICWtYnUA1oHl/a3x0PHPjIZ2mUDsXDMJBIGHqd5sV0BfQ/XmQfsH+sUs0VUzCbkeWbd9QQcfhInT0zHRjgSi8sMubbGac76IArXWeAN2eUYx6WRObNrdqbB7m5jNLzUwgihuIY6U+JcfkFM4/7BTEZnDKLl6y3yJeMUystHiHMr3IVGTA1qHhciqyjJjNbHB5MK0x+Lru7Fdd6phYZZrTx0sZmwykOWG8tEZ5ne/wtFEM4emihABGWGpDFwITEZZNBb3R0Mw9N2XJEphAUegBtjucdmTmhFWDZZF7dWET6qzsbuQW44YCOcXpIFbY+Dg20JyWxDJghOBFr0ZjIeoYO2peWD0e5QroAktJ9muTKIOnFRiIirVdvtYly/1ovQIrtkmZ0Ya7nqycH2cBDtwUwalu62x+2wt1+dd08a8Q43kqngJ4lKNhi1yEAwk2HPZU1YNXaDi/QU6XHEIqJs5gtdWJSiK/PdvOP/iTOK3xsGqRWJq1jW9tEAttC4FddKT9gijVth7C/qnJli5Q7EB8nO/YscSeJfLEWTadjrQ7Ec7Y0vMtd4RoWQGeyL7kG+0hbHw9i4ymhX3DvT3qbS/QOrllT2mjgJYykohRcGO/FVZBwQlROzuS7VRWIYJqrjGRwxUomlkUczpWIr9jXQfVe5WNzqGi9ZH2qEnUMyHA8QXGe/GA1Dr/RZj8HuAGuL5FLL8vwozlWDOWTHbDqz3RYGaiW511KExeMYuhY4KfEkF0fSMwRyGUdMmXXZhDjnEDE9t8L1jokWLLsOFNiPz2E1Rqw58oxJpDe0koxa7pIIS9v7H4nQu8cH+jIGdgxJTaIhlVI3fhpzOXkeQWMvEinzvO0Ebbh8kqmco4qxQNV7+MBmDg2VytXzmwTjTLxRcUng3vboYMtEAD1J5a2gIci42wJz25b1cazlXAJnllNMDxTxUykIVNDaMJFIokZN2Habd3Y37wLh2ZoBnjjqHeHORwe7uwSiUfuB+Iqma2jWDo7STHaDmfoWlYkunBNbYTw4lp8sZx6R7M+hCeQaBzPxD8ShoxwzxWrgJcnGQX4ZivXxdAe9lTcQ2J7zEegVNp38djQeHsxCt/ViqHbSg/qMVkdcjzc3XJPKq6x3677vAvz56lb+bACgq8aFk2txzPFMxnEPthvHU3nY4URzM6OD/QCdZx0ihT/k9JwjSmSxgWgBTsW5Ayzb1OWWTb9YxpWJGDzu3O9VqxtYc9bfOLo0ohNW8daRaWKXILiIJWC+zRvMFYWNWXB/rL+AdcLdCARsS+cldm1lUR6RkBDobjVOC8Zzrxkz/vq6fQ2SJSzYaAmUc9f/S1ghLL7hl9qnbFvWysYbsNuc4q1NCFgjBilrTu8jwbgqEWsRqz15T5bJFrnrGMwecs5UgTAiK2vDELjF7m6VfVSxXKmWuo31ri0mss79nn1QyghR07OuRCp6+elO0gv8aCYxPzrHLHIAxf6mst6A++ZpKzbVGWvyq7i91D2YDuih7g+iybB3yYjxmvg2Jmuklv43hwecmVxrE5NhJqmG38OBhQrn7UCbpqwVDnv48nu2QnZikLbCPkdWdAkQPTJLDZgZRKVwGOL6I4TZ2sFwNpDWw+n6IBz2N+1SsEA7qAJzjzDo9D0Vl1MMUHy+Wk9O0in5cHfwYmlJPGdOM9Z6AmVjA5pLTOtSws0f9SdyrGTMoQNlz6JNPJ9JvNLbXE3ZZv8ODUoqA6DSw6bUouspcqt4VIPE0so0B0BSzv1XpVTiapH7UiycEVxC0THKXoLHTwhs1drAdo5mIpDC5R+ws3OVS6hZcywNIkszfrXQ2LKGAu3Ju3nQzpOpjS+EbjseD/unzeriNiP664lYeyna8oBAwvRShfgFVaLxATbNTFZfJsvmi4c8ma1B/1yIytB1FtXjtBDT+/0B50JpPTMbIDKz3v6kEo3vvYdwL/3AOk4hhMWQHglx2M/LKT4jMJNijIRX8uWlPINSW2XurgqNfEuGq9Hg85Ykk682yxIDl2tk9M0H0uatp3sxbQ4IHK1GiKz3hdh2mTOKPb7fPdnrRaFaUp4BLPKeCdYivo98kcqkspbg6TNp/ogy/oVF3TvqGdXLSWpRzxhETetviuuNarxb45vh+E7MGq+pD3nD+QqY+foXrV6aRrplUf+q9Q87Hf11a+eQ4mV1uwNte+EgCsa7M6eKgRTR6Hs08YnxqDPpcw5xHfl5cMjBMKb5UfJ2B4sxP64jgdqMjxAjgWeTLS10/9djKwv8M5pRXsHEfkkTY04Vze31FzVB50M298Pe+EU4k8EBx/og3JmGRmGNFRFOf4J+XKiNx6PhgEDO8FLcwhewkHsc3CSyZMfE7DxAaN2hU0MzBW+NC0T75uifitFuX04K3pEUGJd6XvDTcYFszXP0O2N0qj94CbYblP+yjgyyD1JIEAz1SbesgrOEccnvpUqkw4L7VApnOyXY309hpUeC+3TKhWv2UNWISxH9G/qKPSwkpPTyI0YoEJoNMBOliSdHSRY3hjWaXdqUDaQx7SMI6i88/bfxWpstar7Y79fqJXAz2EWd+DdASYX0Qe+b0gWb8Lci8i0WndiilKx9QBMPiwz9oqC+Vh/Epzm4pxt5G0FBLFvnIYq/HB8YmSZR7s/FebPMfyzeju3FaaOan2fGincwqD+J6cJk91sjmm9Dl8XFSv8y5yKTWgp3I/RAv4rdMoVmKiP1K57+bs8NUAb8Vq1ePM9aIyBLIRGMIMHLYfCbsSVyNOTcYwvMAL53sek8W/K50T65CNOkX81hidhyfhoWDrZZLNncfz45YwZyUOUGR/+TXkBxdv2g1v9sTKxxEd+i1TjO2C5O4grV8EI4VDn1GyYQ69zR62LYElcwvr1z095kT+wvm+Squv4QyhKeSrDxu4xVdcNhnCU9PUON8oT106+Jn6AeeQW0rdBOSjYRegmwqSepr7sMaYk7gi+ymajr1aNi2BZtSjYV0btRPXoRY8m2huzzLj5Jx+Y5W/wCmaE62wxB7SfGsC36RsNOFv11Wj0pztiyB4TUBIJGnK/298ejqhzaDjgRK62+daGUHf3B2UEPJ3NO8VJ0JSEpDVCwULrMTpWm+rY0ld2+ZGrSJC9Lk2A7JJoP+tvT6ADPAO25P5yOKXp5uqjuHs/YhzsTrogvL3TLraZcJFxeSlBvR7quZtwmp4qL8rDmAhcVKVyyOz3IPTMbK8YmZj7k9tVQJir+CSh6jMfGjW9WH+Gqa4TKn7tPArEM5A9iRJWZIf+Hnkx0B3+oao54MatlriBn43P4//3GqNF2j2gi9U369xI80ct0wad0Eg1X/+JxHSiKLLz+1VOfNQpmRiSoCIuoX26aLgz6g3mjP2hwbRvIF9Sz1Q/R46jc67fa1TZl9PltqRPnkgOthD2TiNR5YyeWLWTRz5pfY6040BY8m5pJpGk1ydjC50TYANzsNUkt6nkc25M7Lu4hXMYWPr+PxGBkWKAR9wrHUllLkN/Hb6RvV0lqUSUBK1HDnvEpu3oBYYnWBWccoVd46tdS22nDjoVhXXMZ0lbdQK/TRzduqeZ5S1KOzGbvrppW1c3pvCWpW5QxNeqR6mGprCW4z2IQX/Uo9fAkYwtbNm9+nvEY9Yh5zhYHu3gAc8fgcfOsLb/fVrAooXh8GmFpviE0Lgi7htZPdrAt6c4npuiiDHccQlnCXWl3IxzvhzPc3S9ofWcaYWnO2ZZjpFDdtYiydHtyTYKaIZbjSTXcxZ7NZ50p/j6dJmjJRB+ieN2cojCezcb7V+Dy/YdprsTo9XOieclAtq0Jwo6CInM/cJimPWZ/pnRO8gYtWzE+KToZYZ0ZNdNvNO0H5TSV3z4Ua3qZtz0WT4Dxlc2uD+7HHM72NkG/xaFliAnyxx3SjCnBvtVhWVzcaQRdVObtDklTVmgZ9k85nG0qQb/DoaWpBPnTDmmaSrDvdNjArK9FR4uT8jPeHnuL3aaTOZmph6tbr4S3otGM5L2/GBlVUJhgl7GFLzJ5GRcGmj6cT+ctydCgmr2+GHlI9tN5S0KDoIqsBKbHKKlaVw8a5KkD+3OJsrpk8ra0pD6tTbacdNsxpIE/sEWYaONhzAs+Yws4g+NjnVJ/aLPWTSD/WZtvsg+xQQeDl0itU+qvFtCm/QpH/ogufcUWpTtui0rq37uivcGw76puTMfyJPivbYnrlllCsP9hAWuFAPTfWLRhY/gH4XCXyfmqxcc7LVVUVX0PZxmQLVzEaRTeL0v/IIv+vRZtftBRV79pc67PbqVo6aMet8oMmrNrRv0W8Z0H48zHFmqYXiAjeP4z1VR/zL1PMEK2N3r76FJvKgr2eQ8Bchcccho1nvN3i0Lau4ZAgndJwavnBQXaOTe3c5i+79FzVua4/2GtfjiFa1OLi5M3plCl+R3Kj+iwlzyiP8PV/pyqiQsQTi+EgYlTKq1+Ec/exIwoNPQtjmBzlPwuZU390ryv7sLkY5pDFMoS3ze0KVJt9aupptrEc8YHssofTFPWemT4z9ikX9Nk4pLUCD4k8Q8CnSbPLsvSDnsSRv9wqoHAPDEJELJZ3jxLESPz+/OuVuasI/VVT39pXmSWghkyISn1D576H9rGLsUJRvz0J11+IcD5Va3/LJ4bOXvDQ/295v8Jzuc8DOa/zjFVRmqOzeqftfpvc7ypzdbLPvzf51jqW9w/zHFFpI7FMl2NYKH/17xMHK0kKPhPWv1vzaH30A/nj6r/YrEdVt6p/ar6R2bYHP+ucIH9Dk0Y6SGLN1EzplT9rVaf8UaI86Fr9bdr4qM74Ins75yvsl0dSBz48576dm+Iz4kIXhiEFw3tyzPqDZ7pnHMlcVC1eiPRG7NsRYaOwkXJvvIjeJT9cNxEGLZRGvUqT71L9HR/Yti9LKN+1rtogo1yfc/ZVsIQ6nWe+r4Uumh/r7kM3iJLdqhcNs+mYfxzztd66vtdebG3wwkjD8OIOSfupl7vSiqjycEsifZ/ylM/6gpkZya2je682WHK4wsYHiMJr/HUT2BAtgw+wFyflwlmeD/paGvhrNeXAX3aw5W0OP+CzATRH/2dDtNkp8faX6qFowNrgD/n6e/yzGq1xhdjKxmxcav3WTT25WB/tFDyi7aEClY2CGd46v0Wacm3ZOcw6F8ifIZOcQrzRwf76yJ/HE7+1FP/0+oxBSW6HRd8wVPfRnACA8pkHzGA3fme2zM/yRwhUYz6+DxniwuyttYg+iPph5iKE5chLXExNDG4WFQa9rrt5OVYS+5HKF4F9ZmaFyRowo2LGEtW3R8wnuqABJKbSFzOFtdmol0Yl/MYEQhuSectSWMbEVj4EfPj1GMO4yzpGSQDKUg7ITgnj70ca8nPcjLsEzs1v/qlPfU09ZRDKEv4QjsJAWdRcBFbvX7qIsrSoSPEJ8wiRLL7PVM9bRFjybbROgy6xAsjIlj661N5S7Fj3waJDBBTVbfNs7a8vytGpMYpiaiAWUOWKroMaYnRRdP2eJ010EoOr3HWElywYykw61Yu4vpQX5RAEsbkT7V+lWbmjGyKFFD2Gh2Z3W/+g6v71Y9hscSjDvbH49keU8OivsXRcX6OuF7ZxrLZFtsyORG3sQLA8OccIQvFOu2YkDpzql6g3gvbBEfvYfILmqtmwpLi20zDUWkgFk1eF7zPcUnMyZc1UbOeu/v7ila/GdtkG5gTdNWswKazyDn1UT2iLgEUssb4f1qr3zJht+Ghlwof1+zhrkA2uRmMYwJ6+dtx2Xx2KzKLjEQIPqFhcBlFfv4e4FNa/Y4hQDjMJdID6o/MXPTYD6eE7WUe3c2C+O15Nj6zAGL/v2DdvCI8aZJ5k/U4pf58zkAC/8LhIRj8hT4fXiKycu4cM/vPHjcIF8Z4Lb6Y0ObelCgb8/2XWnoqFp3D/14h3B1P8W4I3MgAH9D/0QWIq2xZEe6r/k96xnJLOEZmXn3RU/+ZBaGjew3Cx+gpHWWXHGMXiUoB05HvYMeLZnN385VeuL8d9g2Dl2bYCIgx7dXC/sA+sfxYhm0HoWCdZZXpnpMkdrAf8KLB/mTIqSB+2tPsjcKhDPdN3t5s38QU/yaj3u1J8KaFnVFfzKif83o7DNKEXqq9bYKoa+o93gUhAWMa/VxGvTfBFLE1B/uMRxy1CZuz+oWkTM4/hUsB2xMlb/LUB5MSwVGIVcjoD6SxeLrv0+qXE1Qr5PiJBBsR/ESGOHVcIl0xVwTobEb9qofLMOr3YomUFt/hqd926Hh/FPS7PfVxnHhit0IYMF2cp7+UUb/DDpu65GKaPuEx0WzZuNMv89TvsjPhbLOJ7krI/q8z6o88u5xMuln5Sp8rMfbUHVHVlg3XzW3GVzNsfFOLtWeONfVn3ibiPndPvEwPGzohS/N6n+Z71bH8HpKbZA7h0qlMTbB5y1OtykMVbiNVM98J5FqS++wN+YSD4Lsx0qvZn6xnOnUHZR2ZZLsJNmc+CrbeaG3Z+9Alky/ki6cdYtkgzMX5Crs8PkXKS/GWmBjOkQP2T04rGqUURZsj0o/Oe1NzC2ULWXhGlgUXpKpYbG4QNWw1m1+y7ZacZVtwwbheFtHlBCBXmGi/sQeAXurlgMiAp1Hs6QDZeb2n9WKhT8klWGERWKH5O4bNlOBBluLxQ/A4VOpTBJOMuLv2kpH+XEjRiBYlsmwp3uipzOYCRt1aqwRBxfyMUhUbLfk6TytfqnTklYeWT05ttOT7avIdAUvlzZGVesk375oyXOI3TvvdrfhrFdmgzZKmauUsopkvyYcq4qdl8imyFNY+lFheRMaPJFYW0ckritXNSlApVEW4jsj7G/M1LDJrW1wty08bjybf0DiWfGZLmjKd6B4e8/FFGtP6ZUQn5kS2H1fmddVlZFdmd7LQaJVASIPJFF7tkK5mgr/G4U2LCfZah7UNJOjrzIca6u2u/LTXb7UrvrR3vZ3KYqMjz05Sq3RDrVLvxvN2Yy1/JsncJCXJRN4sRUnullikxOAm1nguvG9OCW+axKccCU5kFCxahXFOxFioQT2gvLZkORAUjfuftsHzdt5KOw9J50MkjQ36sJs/oEHrFqvILgl5iu3bL2PraHwI5iwjkJgdL2+2g6ZrALIUq3fC6rJyn8I5m4krkJ5Z0grnKLM5Kc99mkPF38ZzzNJ7z7yx9ySNpcp9CueNCZKdNm4ppsPOysmHLuiZNPwuKDiQYBPr8YJkZoRSOKKwcb3PU9kL3BCZzPs9lds/iAY7JvcBTy1Z1u2E3NMzgavh6BzBP2yWJdiMOXg4RjM2fQzrvLSWsMQAj9ndStK5iE7N2nCrRZB63AvO74O5c1ZebkR/raGDVT/cpR7C9JLx/vYgXHc/HKnboWZ20tXrScUPMrz0E7Fc8cp0Kjs3RCptiLS8IW1VStjKbmC+jNilG6xmpV72W5V2V94RdgP5qb4tyCy0ML/YZuzxENAQ2TM+wsIsEJdk1Ct2cUd2XJyPEajecDOukWEfm98Mrqks98zz6hWpmzPL/lFWLz3y5clU3kTgBxpeEfFItbLQvMGzJ8mZ0sIos7ioNvM6bV9g2hxCtFC5LW3Ka2Pzg2czhSQ6fuvLdGG26kW/Kw9wQSzWbh7qG3KCGozOueya1gPno8prdIf9uKe9Sgq9yAQeM+nTJzwlzjtT9TWI20LJajRqzUbd7oqK/uL7yMfrpL/auhXG42dDtF+rcR+hUeYhNKmWYXf9EmJhX9t5+TbGuuyXkBBI5KM7Qdd+m1WK2Xk7mHJpqZPGZ21ji8EglXFfDlLtVqdezLd9QG2+jejen7lncXNDsPDg0sKbHGiQHINyYZ+6FbXMlsnJchAnSIJAdmqW80X3Gl4FvvgQ9mOf8/WV75G56cgYZDfwq2ygptR5k0A5uioz5by0dGOE5PGEx1M5/CDaHt6gAej6DInEAwN0Q0zXk06iNhOHcqNJ1xlAYYbxGfRnsGN4Zi13YhiezkWmaS62DY5SNKdt77rRgWVu9XZBoi1sfwsxSHVV+2zTD4qtivl+gCo2ZYG0+1m9Vwxkw86cym/mE5psuV0TFcmdCsx8Lhlv7D5BLTfPtssGubIhLvRqYNBHgq2KcbjWTjfkqSHQ0VYnEMyxQt58IOI47rx8Asoo3YmKeLWEJ/xUTA1DZj4HquPCEhISF2LVSYwlzHPol09TPeRjKxZm4pDMiTVloqFeG0tR5XAqjJWXHQIiZXDbPhhihMwCfBmTN+Bsw6lbZjp+hWN+FVc/4CQ7JZe1nEbWD/ZWhoCm9ldQ5SvU9vrxGao35Big/ppVXkTJmFHbv2Ez6I8vjjjayZMhziTYy5zKIRERvQ1HO5fm2CUZABMxnblwTU4ty9PFaWT61titUo50rBTmw1NZ48cZHVad+jyjE2cbL6BbtV+dyAgfWy9n1g+ccnViGp1wiTGecR/u6zSM/mfKfp5ioGxpYcgQVs03GVTLfNpELxa7GcEm1uzHzSBR/pkEnv+gRSjjKI2XG8gGo5l4Kv8ti2kLuEXw9OJT7Ig1ws2SH+ruQ+zMDpOYSzj7hou3PJi30AbNrQ+rnKAWrncQnqQgdbuTwcC359EZHJrLgjM5gmasslQQn4MgF/WW9uWsXCb+B4r8ctK3TefDto3jhIIw8PeyHRbHI478MOkN86YXslf1HMQkcKZ0BOYAl/DLGxLl3TzvhjgfKAjTOce1IeUazptj0qNcuITLzmmk93ZAqVFe8TJLfkQiFz2UGzYt+QlGjLFXcytyYOese4UY3urlscAj8wbZUbkPSt0Ertn+rnMPI+VqVR9Fsac9S+C0alsdm5k5jmfcTMnxRdymGBn1yYw6YRbMTearPXUV7FzzLVqf2WhJ3GOi9hiqUWc6rIzq4UWOAaCuXmSt/s5T1yyijNlh9a41jQXnB5P2WKaY+b0uQRUu5feNl7uqrmcK7ZpzYZLRNyTZuYz8vadvPNRVOwupvt50iKASi/qFMPGVJDh3cyJUAf2WqHvT3NYRTHBbH4Gz1BPU+Q8I2OOdlpS4MdsJsTun/bPx43YM1uk6OzgnyzoBgWrVmBV9ptA408UpAvaawV0kGfajdrEsp1Jy2dNz3TNBEdklI5XTiLXBurb+CWtRptP2mZjnHZjfU5vHmiy4V2N00kcva/J63+bDvlwyVvqQegmqcClBZnaJtZ027l3WZ/+wkVDvqOMeTXc6BvJmgxmLTYVZ/EECW5C9KJdRrGJuz9xWAS2FwqhNXylfTugr+9iyci+SX/Ws7KIJrHMatzqZji8gfxJ6P8KlybkBAiBbGfk1piS1JEdZOXfD6GUO4rHI0YnVDFyISlC4wRAujrjK/KFryZWnt3JgRqLjIcr+HHcks9hw9oqjyV1hNEuLlFtulg5PRzxnK5t0RwLoLOBOb3ShF0mMOnSvgjDdE+4ohq7bCLFn8qVQBN7E+2ylDSsN2Zp8BldY2bjdU5S25YZpdbzTM+PZVl4KHbD5oC3jkfxyv3+YY3HIrajScnTmMDkxGkP94JAWmvtn6N3VSWKkvDYLijDjI1rzqLT5mSyQa0HvjWfRZDxzWS/ikOHgWOuSynbdcmObc1RfiwEralW+EhuF8ciVZV21AiZywplpVumrt2jZZjEiUPcD2YlRuG02wmCHYKg4/zTnWo/UazM4b4ntSfwE9H0e6VUtn3OwCRbrtjxtw/VqUnubI3j8I5flMfuNaex1GaVH4cUk413Wx5L0MQMUjwYMYxlEZUtZGdXDi4eGwKD6Seden8FJj89zMzHbcukiXJcrczShCNe5XCQ504o+3GzcvWCBD72LYj4pdNb8Wke9OaNyotxFK6FeJloUPyewbpHM49Y6ouXymTb5IK5xqDbWs48j8TXrL85903RJZeSzYxUOhmbF8gQVLcgprVartG3GW6yK7TTXpfRhYrgwMHnWco65l2eEGE73KyoymUAmkUCU/EwB9YwWZkYPe9EsFg7LXb2Bxb8cHcCGS5W3ZDDHKfZZxBOlS/hnthflJRbZCmeAB1FjLzL0iZIms2J/cYREXt609OgKHQ2SHjmmrhOReltGL3bS2A5CYHMrxBVEzG1d5tKyVLhbVErmixBnRi9TxgHd/pKRCAXLirFlwjGM2Ly2zXub4sDOz/HiVYqTxi0vYa+KbAO6zM3obDvszVhS9NSXQIWJOagC4eEkpztsHDQqHfJujWiZPjOdGMGEKT31nO9AHI07LPVCVFHsu3UJc2K0jXF/BVq3Tz9D9cqMWk6EltvNlfE2DV1gnGpZr/ZDNpSwbnkeQWdRY2OBI/WqjF6zUxxbXe5+MvJtl0UbGanXZPQxmprS2zV13KxZTFO2CosmnFjAN69gJ6n+gDiKjiRmX5KZxfSdnJCbCw0R44y+eie1Su/IqGsuLKzHO/ENUc+tKYEF5u46+VLTOm5awGojRFpdnzIdsQniGgjfcMYCO5Pxxoy6UbJBMotvyqibkkXJm0NJwELdvDveOYgaozbErq5Wt+wl6/+ujLo1YIY5sfcme/cdhCZGHDnnUKwGE4BTOEFNURpBuC4lI/L09pAFNBEAp04IiG2sFdp5hMjKhPU2pHcuJrwyiJo9VkoESc/At8L9HoHL0Tkb2mVJ8ITAm2xmBiSLuqyyNFQQ3y3nwsLLHLtZzxYCw3z2A7BtqBnL/sRUXo5AdeRbGThhtXlcGRWcd4EKsnIQ0bhUAEK0vzZn9p5gNp7gbMEi2T3dCPWC4iDJlBWm415/B54E3BeKdxan7X3YlBlNTdX7sXeTmLH6lQy2JJbXZhptY/DqAyhbDcYMRXmPECrR53RTHmJrAHOP6BZVvdLTWabCaX2k3p3RObO86mVaLwlU6EVoiDWiD5cAdW/odHW5t7NDAyqrViIJhQRJeHA1zrelI89VR+J8cUy/Rxb9fLVmfulLp3LqqAGdOHHOM9n1xF8/bhtu9i4NmUgQJ6IFITa3IBl9VWpoiby+N6NO7sJp04UVltXVhnsFKUDqMZKXGgezaNAP/dHOEDvDMVQsM0t7jSFsMqnY0QfUtYOoyNEZLR5i0IedUX8ccGd/Xn0oo683qFaYQt2wHa96pD6Y0TdOwx2rsEH44oMQjXdRrGV1k2mngF+1sxeYHzGv02E79JtNmc8pkQCczNvLPXXLZEy86dJoJ2/EhpCaujX5KR/XCKFxDOXzRg/DC5pdkochFXs5UKVLjOARpcHubnHvQI5Xa6lZwyBru7cvSazM/Dy/TjGCgr03boaZiqyF3XrnbK4SGVPKQtHC0o5wj/LmdxbMaXuP2RMUTSxvc9qX6UcWygOM73Rn7xJN6JXJ5bjVKxHH4zsyuTJ+TcYXiwuXXAwhHiEsrQUTEWeMbh4i9WF2b8kWpD0hy24L1DQt1Bc55CZXwi614hc1ZqWU5z4tXuqSmD+doOK/r6MT0pIIqceJFbhsD1R6GhcaPh/FKqQDDgZJMJH7Ez9fh5larzbybVLN9by94PXy1Yr5q2E2wg4gX6ho+YH7S0S5mrkfWErfUy3HjbRC+1Jm3tjS124sacNyzaW5LsVc8yMbGmYTeIhrozXl7bJiLocPSfyxF0kwLWt8DYt/ocqFD06mmB5k36I+jfnbd5c96rPibrhHNBbzHkKvflIlCTKpk/LEILmrcH/OxWbljzvIh/3tH0Cw4Vhzf+L+tlSpIisJlPXv6+SrMtO5eoO7HMmRWeL2Rv5YlZmy5STT5bIjJlnZaMmfi2uZAvKr6Xya8Ij9IvOameKjtEJyzE5+ZV16c5xadfv3PE7Q326N2+NutdE4ba6jrpoPHTkLk0wyD5/CzZ2j89NzBxI+MQGqRO5q8eyauA0rZaP50MxlExq2P4OP1Gcy87cAIke46KZEQnO6D8II1sepTruL0vYJ9r64asAdFUpG7YHYHT2yFoeteuFqM6EXJpvSDsHW5IL8C4f6Ygl8SsX72Yc/kgrzCykaMzJ7ycOVKjYMV8oNjg1Ki1S05J2beqH7+ocqdNptKztcvMjFVTbf4iav6gM+om7DYnfJfZi5xSFzT1su+QCe6z5EZEWvHBuLlgTsWWTzB5KCOHMHmXacuZNMJ87cRWYzzsg3VrfijHxn9YxkTJzu7HqDGwGB7pevMRXM966/Qf6ske3AC2pcMEhkz15DfKPpZtf9tbwHtuK/0sclpF88TcgP2JOP3jiKTM2vdyptX97s5GI4RbsU4+RZjMzccqPpWl4hTogWBIHt02pMcYQrMaKMFrsW+PlWsWyZHU1fMcofJrRDPB40K/VkQU7YKCTQVYyF5CRJM183f/nparkKs8yuabd8X3oGfC0H4ULD4q+T0ZFeL/cqFnWDDIL0Rkltv24yvZXTlGjdzTQh5IC3CFvSWyV1rB6Wb8oFSrzmD1+4qXlkMR/PyNe5SX0UJrZTqydr+OiSfHg8Nl6PKXGB6uDHliryGqlhzMHjSvNvUj3erzXL+aASAD9h3Tcn/CeuVzY6LWnzSRt+3W+ZT9o/OR7DU6Q55AfwqZWaJE/jbt5Hqk1LX+/Gd5ukbtpuZ7+Tib6j5lsRuxN7Jfzvls2HjsQjfnrL/CG4e0ni5p4BLC2aes8MCCybpp+FZWb97ZXos82n/ZPsc2hEmn2e/EEZ0ue32afsciATDbHXgIVCXv4aHVCRVW1WfZkRay9LTs4r9XURNJ/jsfBbFxUgRRg3bH8rVuqATuUJd0vjp6sN6V+1lm/d1zErXLPX80BwrJkWG4a6VMlb4mYC3Vc79G7U0/2oX5Qn+uY7FubvgppTlrWrIeZKjNlXMGbpIh88Zsx82VCM2K7gcSpNLKU2xqMZcIY57HJmirKhNt0DVIKb9ntlav69MjJa7p/laa+qxkZubtL03GB42C+SDMJl98SyWKxc+Q7+XSoLp+XyXfy7Ur6bf1fL9/DvkXK87GvJmh9NDNMxdmbkJQA8LjQnyoK9ChkiObmgLFebVyTXdOTfa1nYDul1VfkU/vUlwd1QavPvjSUR95sScb8ZaK5lt7jlvpVtneRh8prn4UaeH5GI4SODWt6o4tdJrx7F3afwefR9/POY0rrUfmy+UJBuPs7d6T/eSMkTWjKAJ7o3Qk8SuSB9svzpU9KnsF+TPDWwf/D0aaftH0FA5EluQ9hJbpfB3CGIO2VwdyFvsr3cXTAf/L+nUJKVeXqAQSO913ThGVsmeWazUmzbAT8raHRa5mtDz7aq/Bwn6s+t5gvGED4v/nOez08MZ94+zAAqSP9Fz4GL2Ot48UrAdg7R9zMolS+jXG902pbXRmzRgcuxTaisyx8ctd9SPFX1sTwy6NPFK751Vhm3dyrzELI9/0NA2gCCkRIQ3v8BMhQAAIWZeXxU1dnHnzuZJIQl7Iisg0VAFkUEBEyGiyAvWhdetNViWxOV0r7VYDFqtRZPkpkBJAhiXUDQsIlChYCgLEm4skmlwgRFQbBsEVGDirYuSOX9PmfuxNu/ev0cnt/9/Z7znOes90x0nJBkSNNHd5/YmdtsukjFdMe8k1t0+XUT/ve6oXc9OGLCbx4YfPe1/zfxpkFF46W1tHHmDWkrHaWzhMOOSEjCTuaoSXfcd/eEomLJcho9IiI50kKqQyKO2NjSTcKhzLGFEydELv3RpakaHmusf2uFzZ0HtGLIVrxAK15dVDxhclHhXZEbiu56MDKysOj+wnslS/57mMccEvjIebGzxnJIolnmvffdc8+kycW/K5oYKZ7wx2JZ5jiVnduWingRp5vTq0zEdS4aN+n2ScWTZNyEiffdVThZUq/90q+9neSC5LpIbVlybbIyuSlZU1tSWx5Jbk7WJNfWlibXJNfVGqT1taXQtWW1U5OVeJQm11PJem2qLU++hl2DUJpcx/usSHJNhDqVyWr+q0lWRZJVNkxNcjP/rq+dheP65PqLJTxVpFGMLDNDTpnUDy2VyIFQQh7YmSFhTT6brphMyeoqziPizYzJmHahqaYunKFiwKNr1gjJGsEwp4NQH8Gj6hRx7xbHQXnng6DioJjmzGgoJtf3DSqhrIdFzoqTgdLumqCSkfVnMXXihFFaTQkqYaLJIHEyUZZvDSqZKKadOFmhuPzUCSpZKNJLnGyUFRcElWxVuovTCOXZkUGlkSpNxclB+bQwqOSoQjshlBtLgkpjvz+NUS6fHVSaUMf0TGUwfXVQaYqiGYRRSpJBpZkq9LQJyutfBpVcHZ16cZqGEuZW5uVHpTl1PKI5KEfPCyotUHQWmqEM6xlUWqrCvIdRBl4eVFqhaAa5KPPGBJXWKNqfJigjfxFU2vi55aBEJwaVttRJjVvCfHl/UGnnj1sGyp3/MdvnabQ6cZqj9CwPKu2JZoiWiXLs2aByvq80QlmwIqh0QNE51ay3bwwqHbWd+lRPvZ1BpRN1tKc6or87EFQ6q8KIan+2nAwqXfz+NA6l91Ja6ap1iJYdKpUxeUElgiLddfWWSfdIUOmmCqs3B2XJ0qBygSr0tAV7YVHLoPITVcLaTkxKrw0q3VXprmsnJrc/FlQuRPFQdGc9lAwqPVAM7ehKHJkdVHr64+ag5HQLKr20DqOju3HT8KByEYr2pyVKx8Kg0luV83VE4/KeCSp9/BFtirJpVlDpSx3NWuu8URlU+vl1dGet2BxULqaOrutMlAeOBZVLULSnrZjTryWo9EdxmTlVnv+Psb7UV7JRxlwQVAagCLm1RvEGBJXLULw/adYJ02hMUBnoZ611HrohqAzy6+hK3HJnUBmMomOte7tjcVC5XBX2tuZ2UyyoDEHR3Bqj/P0vQWUoiqE/Gu2+pUFlmCpE012ycl1QuUIV6rREuXlHUMlD0TnVPTfo3aCS768djda/LqhEqaPRVDnwz6Ay3FfahKa6r4eCiks0yZVGOTmOk/rwNnyHhW0ofTPabPyw9Jluc37ZqfvQro99+8HGZF1xRU5YMiuypKnDF41vfViypZFIMyf3Ea4ozUdIqST/p0wqu5SJO75MhmyJydoeMamYEJOCF2PifhKXe1rHZf+AuFSNiEvuHXHJKo3L6CVxyfPiMuZoXM6cS8g3zRPyq24JyRqQEMdNyLobEtLz5oR8cmdClhYnpCCWkGlPJKRsYUL6rklI/HUant24TMZkl8nO8pgMzIxJGzcm/yyJSdNtcfKNy94OcYkNjUvd+LhUPASeHpfZy+NSvCEu7qG4vPp9QmK5CenXlUYuScipUQm57dqELCtMiPwhIUNLErL68YSMX5SQJ2g0b2tCOrydkLZHE1Jzeqq5zGGViyuPOMZxShwpdaTMkZgjcUcSjkx1ZJoj0x1Z6jDw4rzpyC4n4y1HdjvydMjJchhJhl1ynCbpq0fqxsVN8QV76eK6uL5Z6ubVRjpwL+wiXaWHw0w8vGjhwimNc3KmDLj0UvXM0H+4LjrSUzpl/DGj3snIlfNLIC/M6CsXh/Y5i8sz1v9MstrO4OLGET9czJ5oyAL3RQU9oj+CBgmg3oOiIoOHQylgsYi8lI9NgwZp8HD17jZcEZQC65QTBA0S3qvCVDBPUDVSlSGmyAIxLrZFXoZIa0BdHoVWpuRDLAZsp5h8Ma2iEMMAV+Kl9k+aNcCd5ivuSygx3LcqsQLwAcRn2M8hTHt6KiQyMiqRzOEQd0fFI0Uz01qI5RaI2YwNQ3jvUOVcVNxj2FPE8D5HOQjxNYS24p0FrIDEyiwSUmCKAbKLFNNAKgBmNz5pYBZT27wFWAf7BnYHhOcB3oN4BXsMwl0KOEWZSdEM6LUCkUIaPaHE6Ki4RyAvw76tRASwA492kK8o0QTXCl6wjBXtA4iTUuRnFFzlMgjphtKSMgjiC2bAXAOopgO/xVZASBmgDOIpa/FYaYEdNMYcIgl4m9nQwW9Cc+53gGpVvgBMo+5xbH8l9gEq8sR7Xe0VdFeD6ZJ4ImUdWR7iH/NrXgvyyXwjXcjWFVWfBo8gLasm1gOAPdUiv8f+G0JuA7SrEbk2KtKnBmIowK0R6RIVuQ7CZNDT8TWanFo8llkgEsferMRowE0QvbHjamiuFyBblSH5bGKU8RCNlJgCyIFIWAux3QKR03g6ECY3KvJltZjO2F2aYT/A0mpiYUdV071fAwry6bEcYQC1f+ZhqC/zGcVHAVV5pDAO0KsK0D8v5eM7y0EdK+nlj4xb6gMNwdYggQdZCLA6ROY6JX4JaAsxmnIoH+ISwGP5YlpjB0CwCERmsyXXYe2eHpAGeYCnSczuuGfUdylgM2Ub5aQSxwE5RPo3ES/U9prQ3pUQbSh3QYgOxQzIrjZFgqWy134MtygkEWf4j4AHp3eolQbeca2GcwPAWetXkfUz5GdaUS0NTNca9ujX2qIPeKh2kkzTwEqyPs8HqThSn0lQbwsVNhBLgdlADyz4W1TcKso+CHkVcJTyEil9BGHm8/IZL9OthbjHApGfY09CSB7gGATrweyHMF1w380LlmOGJGKktRVFgezFdVG+7noID+UziG8RzkDoMXckRJddgmZxiOnWtadaubUQyy0Q42H1mHPfo5lzxKijyqfEkNMASLWyIUr7Cup1ShW8SttfYSdDeP8CfMFYncFKHqNsAUPpvmkBLjsAhl2+Ddtb62wBzMhP2Q263D31XUJD7i5SKQPoqAFwnmaBmMlRcQ2EuZGXhyhR6hQpcREvhZQulOuVaI2Sx4van/iEyeGlK+VjMjC9ASxVMwL7AoT8AsDCF45XLM3OsYBPEHYNhPsK4F2SrsJmalDtFgFdPbwvJ2U5CNEExT0AqCd6LXYDdb2/ATgXbN2LIaQSsITt+xxWDz6PydEDT79JWKIPtoCrF3ZIHlV2kkyYMo/yqMYYD+CcVWva0awCuRL3Wdg7lFjNRJVCnMbOhNC1YZ6hXEXazykxGXUJ5UmKjr8/EfKGPUr246Y7z4KTyDpuP4IGyW64Ar6toJAFPDjtJVgaNEgAvPUIABHgD2lwB97lmtRtZHgr5WaIfhAyFvADvbwSW0XX7eepGKIbNgIhuYD5eSIf0vX2OlorAfpcay3RK1EbwOJ8QC8kO/dTAHqxWUDZqEQVYBellmJX/QlANk18ZdskAeEljxImzQIIaQQohWjMnpoXJXqqf3JArzz6sXBjygLkUfUHuMvwfxjrKVFBaF03R/CoV6IFkX4gaj5Fd6me2rptvcetZZmttIAPTdrjEARVqK8Fj7MoBC3gPLCtVGQBaFYteYQsILOUItenXKUThNaVd2wy3Ex1EA4BzrJmaU56McbeSgBL1J1jLaNChgCRKFY9DH3QKrZTNkYFQIPSbduKjoM2q5Y8hG89I2hTUwBFFIAUUBhSBh2iM91qT+kPcUbDjgJsJVIhdrESUwAxQmpqMQi9RwH0QuR7bAFQxezC2hj7CEhQj/GyrXj/ANCsWvJgbwDIzFeeQ8HVWwWhdfUO4xKMOzQevJgPIGjOfAghtK/XNp08LH34swW6enwP+qBVtFM2hvZS42i3bSt2HGjW2kejMkOXlpnFi/ZQKixg5WOfV6IKsBFiO/ZjJXZTtylJ7YHoE+Ww/d4ClDOAr3H9FKuj4x4CXMD4bcPew0y6fwUwtbY5nWu53QIxA7FD8sguGxAmxtuUmcTQj6bspxQzyp20lWGA6/DCSintKzDlvuItQ8FVdJ1qXbMfgmDupxA2+g/kT3MFdq3Tvi5+TQhLhqsssHdpNwNCZ8n7jpd6qh0nhvZSb9zabbM6Sv/3WIDCyLhbcGeovD0QXjXEB7yswtrZWYTrKcosip2/YgtSh5T1uAJ3HbbekLshzPkAD6IVMVZB8G3QU9dauk3/AQxEStGFoK5sHgit25FyEcQ5BtMMA7zB6GhzSyGE9nW6NSG1lXpgG+rTIfbOPAsYlU0WiFeL2wtKnOQF1fuKkoCwH/7f4IU1+htAgT1Pv6O8T1PmS8BcmvoQOxbC05k5xAd9O/YW5l5eAfAYAvPQs+dINQ04BsmoD51PA6YXoM56bzQrLbCXe+6ZEDsAe1kSu7BCSqLZn0dR298nzBh6oB4FEFpFfwFoDG4LEAQ1MyjzKDN0SFoFwWq2j/4yNu+l01Jgv2ydg6BB4ijnHO9jEd0C8AD0m5EGDRIAbzf1sWOdAXjQ9qarARokgPwKf/O4TyrgwW10ADRIALx1WYMIAZCPozhVcNKmQYMEkBK9u7osYe5LyK3ToBVgPkCjAhjXZRaIu45SAeFtZbCWQO6ivAzh7oVQFStbfMJTdTflbQh5E4/3ITm73MMQZgOgjvIywgkIdyGuH1O0WU3Y9AkC22HWDU8K0AUAzgBSWm6BuJvx1d/x9lcAny1zDOGsxj8N+Ar1O6zuzQIdZWbR2m0+Ieup9j1e2i37S2AR5RQ5zoVwj/PyOGUfxAwIbwfBEpS1VNPPgavuRfrJssgme9zP2nSFeYpFbqWndE2vs8AeM1w2MvitCqiG2Ic9CuEdBGQQHGvPSwUymBbVYwyEVjHjITTGnRA2KCnYVuyMDkmDoQCdWk3XAtHN+hiVXMK65bTzCYRuFfcMYe/ljyL6++pmiEgm4AoItR3SxEl2qHqsJFc5S93fQnyG7aDEUcB8joS3sO05EnQj6mNT4zmnHysu47o0SAYgY2sA5YxYGjCrgI5RH+CDM9WOZDC506MhC9wYCSnQT4mdx44Q3ncE5MjQFc+fGEjoMODbvNT3Xe8iOt36wfL0BLZfsLgFYm7HHuEOrl0WLy81ebdrjDBgDQl+RE+zaMWewAMhN2HvJiEFZo6vmEqUk+SwE8Jo3SP0gGDeFxAa/YimS3OuLlsTQ9EPFglhIV6zwN4iPPuNOww4Rww6ZU5pjDPUPRiVAuKwvfxxeJHAaqfrWLkHcLHLEwDF9AK8BWSzD0K/Q14S8DrkG5B7IGQzL4eotxqhDsIsBmijsyn1EHqfAuiqS21h/buQ0e4Nodq7SvQA/B2PjtjNENICdQ2lMcGXRNkTALuMTRvAhShUkSwlCCJ7GMCfY3VvmGIAHzW7AfVy45EQwGZoLyhCynp9s304A2E71Z4Xemmvb9ptPg3WMiAygcExvXFqRS6yF1IXmctINgCelMSTAu52nLUWD8wCUkoDW0ulBkBkeUk/w+7nPquAhwoMN08KNEgAvM1h0JwoMQDmFlI3tXhfT9kKcRWEtxaQb8dRB4vuP4k6kJdSayGusoA/eFGuUWI340n35VkGKaHEWIgFEFjxaE6B0VRMCwKlARIJAMxLvHTBPqtEH8BMCs3YaPobzTUQJICF+IsF4mqKpRDuWurHcd+C1XVoe6UxDuM1JyrxLDrvTuOlJEo2/QLAWwAwMQvo/dMWMPFUXgThrgQsg3iFOpUQ3mu8bMAL623zCXcPZQ2e+yE45EWOQSzEw/5VhhH0TlFKKLq3zB0WiLkaz5NKXMILVSSCYGO0pP4eCLVbo6Q6jmWwVRWAsIFkIYOtwbg32Z0rnairW9n8lB9d7G1tDksf5log3gq89LNmamguzDbeBXGOGGY/zfyLchjhBIR7AkVJrO2lAqGnHh58FSEO4Poc5FuUJyE8D2UGVVYhJCAE1SUHf9yZATveuvyUAtBwhQV2eO0Xw2yn9nRe9mLtZP+Dl0l41UHcBMEd3V5RrW3vE/pj3BzHvsj+tMNzC8O0GxtWwgO4nLZ/xZphVJkL4Dz2SAuLxw0W2IsYexpiP/WTXHKewdr/P9AfoD/U1Ubog2mEa4T2FdjfDO0px3E1PQGv4TYSOx9CbgOUME3aXAmE+6QFqS/WXCVWAVbjsQ57AMJUEVQoWAL7xGDKqxBXK1HJy628LKHcCaFrly+FXcxY1ky/ANBR/lxPDLt17eovT4NvyNWeGFV02IKUD96eierZwS/S0wHAwwBsDYKPCaTOADo83gKREVQ6pkQvMjhIbp0gapVoCbEDD6zZ5BO2Sx3xeEGJHoD5EHl46gKTGyFmQdxvLVkmA8CMA6gEwHeMBfxPVsptSgjE73nhrCJNiPl0WkegFPusEmOZj+UQWKnyCe8tiDLsISWeB3wKwS9F+UaJMBcXvaf0xtqtN5aMOGlpwVp77/fe52VulOEBmIkAc14ANEgAvKUPSMdZAQ+ALwBPCjRIALwjfEpA/MEawEOkWr+aggYJIC/YZGqQv87nz2PNLMufZX7iA0+3i6250gdy0G/QjPZj+dUJZFI5oAF48Ob6zJMCDRIA70hrPz0FULTfOwB4UpI+T2ieMptgo9gIFjxOeZmyWgndhHvZ7g7t7oWwexZC+mKtxxUAraLWxlCgm1k9IuxuW8XblIrhbcJDg0LYVtTDNqtV1I6i/D8=(/figma)--&gt;&quot;&gt;&lt;/span&gt;&lt;span style=&quot;&quot;&gt;Не удалось подтвердить участие пользователя в данном мероприятии.&lt;/span&gt;&quot;&lt;br&gt;&lt;/p&gt;&lt;p style=&quot;margin:0px;margin-left:4px;&quot;&gt;+ Кнопка &quot;Ок&quot;&lt;/p&gt;&lt;hr size=&quot;1&quot;&gt;&lt;p style=&quot;margin:0px;margin-left:4px;&quot;&gt;&lt;br&gt;&lt;/p&gt;" style="verticalAlign=top;align=left;overflow=fill;fontSize=12;fontFamily=Helvetica;html=1;whiteSpace=wrap;" parent="1" vertex="1">
          <mxGeometry x="10" y="1200" width="260" height="140" as="geometry" />
        </mxCell>
        <mxCell id="Q6JiQyxt3tVJIk7yq-6E-8" value="&lt;p style=&quot;margin:0px;margin-top:4px;text-align:center;&quot;&gt;&lt;b&gt;Успех&lt;/b&gt;&lt;/p&gt;&lt;hr size=&quot;1&quot;&gt;&lt;p style=&quot;margin:0px;margin-left:4px;&quot;&gt;+ Изображение в виде иконки успеха&lt;/p&gt;&lt;p style=&quot;margin:0px;margin-left:4px;&quot;&gt;+ Текстовое поле &quot;Успех&quot;&lt;br&gt;&lt;/p&gt;&lt;p style=&quot;margin:0px;margin-left:4px;&quot;&gt;+ Текстовое поле &quot;&lt;span data-buffer=&quot;&lt;!--(figma)ZmlnLWtpd2kZAAAAIDkAALWdaZxkS1XgI25m1tLVy+u3byyy776dx04utyqzO7eXN7Oq+4kvyaq81ZV0VmaSN6v7NeOCiIiIiIioiIiIiIiIiIiKiIiIiIiIiIoOg8g4DuM4zow6juPM/0TEvXmzuh8zX4Yfr+PEiRMntnNOnDgReesfdS2Mot65sH1pEip19alGpd4N2vlWW/G/eqPkd4vlfH3DD8jqTuC3UnnPUPv1EnAmqGzU81WgbNA+W/UBcgboBr7wWjK0hnM3OF1pdlt+tZGXmsv1RruyfrYblBudaqnbaW608iWpv+LAbqlRl/xqnG/56y0/KIM6EhT9ut8F3Sx37+v4rbMg19LIlt+sCvJoqbK+TnqsWK349Xa30KL1Yj6Qvh1P9e1Uo9NiHL707ETQbvn5mi0hf5XL2xGfzD84iJiEM8BKmtD5nR0mExRUpW6jbhpWJrPVqrRlDLo+7ofNvV4UQlakqG1agqjW2DSg3hqM+oPRudbBUGjqjfr9fqtBgWqUTLlwsKv1SAp9UKrUKHZqjApQF/P1zXwA5G20Gp0mQGa9la8JXbbQaFT9fL3baPqtfLvSqIPMbfrFdqMFtCTjJF2uVgzbFb9arTQDAVdbELHsZl2PtPyNTjXf6jYb1bMbhskaTdVLfonpntMdbftnpEvHgmqlKIjjwdlaoSEycqJSp7G6wTKrleJpmaqTQTnf9LtblXa56+peXWzU6/A0HbymKPJYqDaKp8ldu1UpbRjZug5eNRnp9TW/VMkD3FCubJSr/CfFNwYwsIO9yYFdJrtVzUujN2/lg3Kl26Zlcrds5luVfMH0/9a2Ax5mgG6R+SD38JjESfYjgr3eJNwazPba4YMzuzI3B/d18i2fUkUlN4mavtUaRna8NixkmhB3spkkW2psST+zV5rPXDPfyler6A2iXeu23PCWFtFVf12wy359o1vK0/O8aXxF8mhIRzKrklmvGK5HDNyolnyZ4rU2WuPf36hIL482W37JX0caSt1mq1H0A5GrY0yXX5Xy47HcdYOK6+OJBFXrVNuVpkFeVcvXO/lqt1JvdqRvJ8v+mbwVnKuLZX+zZcBrmlRz6GsbDNuCsrjSs+ub1Y40f0O+1WpsxcO80ebiubipMAxH/RoaIvzyQdBtl5nKDbEVqt5o1YyF0qV867QvzD3XSxGEjIg9Ul3AAJDNFhvVRpLLGWEydZYC9NZARlGoUWogiORXbJU4uzoXsiNBY73dNTzIrZXzrVKSM5bJb/lWG475Z4oMFBklc7xslutEkG93EoW9yrQCcLLaqVXqjaDSliaubvYGIyd+K0GjalZQIRKlCvNKa9JVMDpBSWrmA0sBKChETTQbXCbBQeSkNlup5c3IclirUxWApc1KyRfjtFzZZxMJdnrD0M4+u0DLbxfNxK9XZJwagTOtta3gZfzd3XDH9ThbQc1b7AF5NIBCVWo1mvOsXm9gdFjJegn970gHvUK+eHoRlREFLBrbutRAJCoYctCq08TekepqY8sAdKFt+xAgEdVuMd8U0crOc2hEq2jscU6YlsKd8bQ3G4xH1ImtLi2zvswrsGa4ldP+XNq8atgTM96eDvbJxXXg3S37buV1/WB/O5x2RoNZBN9WXoaqmpUzfjUA0PSanUwoveJ4FM2m8xVeZuXBKyk3Q9K1vGxEHv1w054JiuxjANl1OJa6tkbOZQz1UjCbjs+H+eHg3IgKCTOFeWZhAXSj03agZ4mLvQkSGY+H4RrR0InB86xGyrzIIDI269/XqVTZ7LBUILNOpsQG2a02x/QhfFjABLWUtuHLcyvdvZ38Sip/B/nVVP5O8kdS+bvIr6Xyd5M/msrfQ/5YsdIqpls/bkd7ajyQmamxe7fAqoK/6csIdDxwrzAeD8PeqDEJYwHJdupWU5lGqsmWA6yDTgHjamDvjFFgI69m8svj6eAl49GsN6S6M22ptUWWzSx4pzpslusV08N57c1wOhugeoJrNClKVS002u1GDcirjQ+isHgwjcZT5ge7nsf2UaCKrUaAplVawNo/64vqIXrkPFw901Qzz1CwhUVEnHwWU02SIylWqkBLNbGoUmWZJcZLBFpJ1s9kVzdR9vG0NphOpQOJFplVJ9UGwAJhGdmS2iLCXqkX7Vl74hXZRkGpuYBrY3OsPmSb9Q1Q6lTTl1QHm5J4zZL4fBn/wcl4OjusQxl8C0w6u5dTFBUj8CxM+zpGJCrrVXuXxgezjemgb5lkrVqlZnzeQc9qWWZep9mbzcLpiCKoKk2jIdhoY6u1Wc+D2bgVRoOXwDqZItMdMzNJP3QCeVKtPT0Y7Tjx80qVQNwT4alwVdmaAXQwuzQMg9CNnaVrBQ1nH9s4tSS6iHRZWcG/xleoF2VjybT9WrPRyhvfOhuzYTJnYTKTl+03gDreLTAcvZ3zdhmTMZUx0Pczu6YHmo0SJ9DAltrINc1dNrt2Sr0CQiYmBjhjKhTHB3Ro6uotPVQ9pt0tTibfacvOlU2xyhlWpw6i2WD3EkUPyaWZL/pdTIF18W0PArtoxr6CxKUPKvf73XYDo2LmYwGBjLGmlVoT35iclEBjB98cRwNZS7YPUK6fKl9gljv2FGHItqZiitlaOF3km6CVS21xekbcakEdc7NDKPjtLevLaEhGaCjN2jVdiVcKzfflSNSV0yB53WmZdSqw/5JmitWG8TCzuMPd2Dcmn+s08T/9rvHJu61OvV0xp5AllKpUEWfGrPdyha5Ne6mWj+Ofo+2Gu8qv03pXqrITkde1BqdQXElgz8K2IEOtsnhcwFlbgO8gZDmbM572ElR4tcaR5eBpRrhSauU3SFcpO+2fjasdIbvZsCeXNWA7jrJZy6NJHgUjf6w97Y3sotkx3MwOiuPe7mLy2UtltJApVJNF3PQB9TpHWVKP0xGnmvVWI/HdMylUbPqzKZw18rkUJrHyS81OULY4x2x5jol5rcxRltXqHJFwOiIHUotznNbmmJjT0TnKcjo2RyScjtuOskwQxcxOLCBjflctYC3Lkwu4hOvVpiWHdUyvSeNintemkZbldWlUwvF67FWl2JUycjfgDBIPyNcxY0bpbsTvb+AezjE3+b0IHbUrfpwQQrFTqBQpUMI6zmh89FTWE1tjXWxqiBIlRVmhW8DkbN0F3JI100l+OWi2rI1f2cBQsYcmiFVHmiCOWMioANpq5X9tEdneEgNx9BCyzJkH9LFgZzoeDkuDqbUVdNpp0dew6Mywsbi2LoZmJvoe9jFTs5By/0yTzc1azSIcxEsyOb3RYVvRXkRYhcaAl5UejnF1DOgVx0N8CZ2dqlWlz/GPt80/mR7/ZK27QeUHyelL/OO1QEE9R1zkn8we/2QNp2A2nlBhR2D1QqUnzg5D4NV6s+ngQaWX9m+7jbzev+12Em//tjtIMvu3CzK7f7sgc/u3C3Kp2Zticyujfkg979zBoK8eSDFdU571/ym80BsehNTRB+YscKvy1pmlem8/VDqz29sfDC9BryPZfAE8mMyinelgMiOXEdrN3nTQo8rBfjgd7KwPzh1MmVq2W3fmVYgd6wmgOeubyBywaWaxajDp7SDUC3U5/OMBiBEzeU1UwR0Tr8BgXRZXBpjmgKnkOG9gHCTE2axvunaxN4kQ5nkV9M+cFzVJN854TZ+zm3Q9A6Kb5MTnJponYA4Ug90AXErxb8bznu4WPjn/4prjDgGY/gRmklmchKqCTBtV03j5xsCvh72ZmeC/0k2OdBSp4h1NQ+J64RWbgeAz0htS00HSnIvmLREyEd90udEq1UlX8ustKV8t1Y0xOlLv1KRLa3jQEtE6yo4oQzpWsulxca1JT3AClfSqfN548yeLNr2a44yk1wQ2f21r0wQyrhPFJL0+2DIR1BuKwZakN7I4gr+pWDShtJsD6ybdUq6YGOmtzkN5WKNVl/49XCaF9BHsb7KUjyy1zaH169areRnHo2obLdnAHx0ga6SP4Xgg7T92HW+W9HFlmz6+bNt9Qtvmn3ifTZ/UtOmT5chD+pTqekHyT200Tfq0VtukX9+09W9rnq7LPN1exXyQ3kEq/byz1a5K/i5Syd+dL7Q2Se/JFzYl/3RS6fe9m5bPMzbpEOkzC9UtWZ9nkQrds0mF7jn502UZx3OLp8xR7nnFdaMIzy82TT5f7LSErsBWL/kixk3S0rrl7xNOk/6sk95BukF6J2mZZqW9CqnwP1W246G1DelPtdw4JXKDS2o8kHoFR4K0car59HtJm6ea9wqf+041n3EbaetU87a7SIPqqZrUaxM1FfoOu5qsy6a4L6RbpNKPM7XTNcGfrVeN43V/vXO6TfoNbADSrxeQBqTfuMmEkz7QDNqC75IK/oWt0y3J91rNsqTbrU5B1n0nwMUl7bdtP8J23Rw2dlkmWb9zm8S2SPc2bflg0477RZunjbyc32y1W6RD0jtI94MAy6vUiFTyY9I7SSekd5G+mPRu0inpPaQR6dNJZ6QyTwekzyC9EATYbKUukgq/B0mF3yVS4fcSUuH3b0iF3zeRCr9vJhV+30Iq/L6VVPi9VAfBHcLw23Rx0/TwZQIIy28XQHi+XABh+h0CCNdXCCBsv1MA4ftKAYTxdwkgnF8FYLr63QII51cLIJy/RwDh/BoBhPP3CiCcXyuAcP4+AYTz6wQQzt8vgHB+PYDp8w8IIJzfIIBw/kEBhPMPCSCcf1gA4fxGAYTzjwggnN8kgHD+UQGE85sB7hTOPyaAcH6LAML5xwUQzm8VQDj/hADC+W0CCOefFEA4v10A4fxTAgjndwDcJZx/WgDh/E4BhPPPCCCc3yWAcP5ZAYTzuwUQzj8ngHB+jwDC+ecFEM7vBbhbOP+CAML5fQII518UQDi/XwDh/EsCCOcPCCCcf1kA4fwrAgjnXxVAOH8Q4B7h/GsCCOcPCSCcf10A4fxhAYTzbwggnD8igHD+TQGE80cFEM6/JYBw/hjA04XzbwsgnD8ugHD+HQGE8ycEEM6/K4Bw/qQAwvn3BBDOnxJAOP++AML50wD3Cuc/EEA4f0YA4fyHAgjnzwognP9IAOH8OQGE8x8LIJw/L4Bw/hMBhPOfAhgT9WcCCOcvCCCc/1wA4fwXAgjnfyuAcP6iAML53wkgnL8kgHD+SwGE85f14UAPrtWM7VrdpXTsYnniU9Z6k4k4OdrbnY73xS2bjfnXKwzH20rr7UuzMFIZbSNMystwYbcn+ZF4ZPhf/d6sZ2iXVWZz0A/HyvNimujOznQoROuDISfboniT+f6LCCoovTKTTuHnRXu9/vhiBOjtDc7tcUbfw+/Dk+yHs95gCJQNGUskTgYe5QXO8CGhI+ClWbhvYo22aPnCYJuz547AK+YKwDbrrnWVd+T/b5M7eEzTHmNbVavbU+E5omVyR0xnlHe9WYCrlN6RiVAvVN5YPMyZOOCZC4NosI23pVWWxN3cHFe5CE88Urt6Cd6jaHc83Vd7anlgVuPlWq0YqL2H+zySroNa7Y1AcqioSJFgrrIYXD48UpZtWZ0kn76kuFodsZi98cGwX5T+1XojEPTn+umY0wmV6eZaJFUAju6auTWUbklfqdWxiYx03RRhrdXxcH/8okGRFppEj5njZX3ighGSV2h1NZHec4MRJxhpeWvQnzEwdc0CthzKPIK+dkdawoFVn8uo68Q5rbFWJYRPebnz4SU1UnoXbHUwiiuxuoIpDc6F9C7D6YGcdWlforKS2bKEOa4CyMF8YMfpZXpcaLd752hYC1iXWUOOY80xAWfb+MmdvZ64+eE0gkInOdNQpSRD9iKBGxfCKXHPsN1jfdUrPZ0ZmmCoCZZts+rc1gzpfcTWo3PnhpcmexF7jl7qJzcuETuOXt7m2Hf+xQdjUcw3aX2VZbNJByChxyu7DCaZnddovbrbGw63iYOtUxCpkT6yhyBOaex8YfwgXF6v9Ro5oC95+ugsiaByKp26U1tOHXP4sJ/M7/Hh+JxE2w1Je1yMx97Y3Y3CGZZFreoT+4M45pbUO1lOta+87DbxuX6k+hz6rL1wJ8TMXkyHA5wjPummSHkraKc9w2CkLhrRYbml7CxARoCktazk8tEOPSC3jDKPp2E1dSeF7u4OptEs6T+TmEMF0/mlDVkQ5S3tjPf3e/S2YG3e/BC7rew601VM4S5DNitL+5cz7/UvOKuxVEpWF8M55VjOPGA5E05iiN1yI5cX3P1GAUVgugy61psyj24G032w534jBVJTMvVwdnEMues8M7HfG9LNvulrPITLRVV2CiL2TICWtYnUA1oHl/a3x0PHPjIZ2mUDsXDMJBIGHqd5sV0BfQ/XmQfsH+sUs0VUzCbkeWbd9QQcfhInT0zHRjgSi8sMubbGac76IArXWeAN2eUYx6WRObNrdqbB7m5jNLzUwgihuIY6U+JcfkFM4/7BTEZnDKLl6y3yJeMUystHiHMr3IVGTA1qHhciqyjJjNbHB5MK0x+Lru7Fdd6phYZZrTx0sZmwykOWG8tEZ5ne/wtFEM4emihABGWGpDFwITEZZNBb3R0Mw9N2XJEphAUegBtjucdmTmhFWDZZF7dWET6qzsbuQW44YCOcXpIFbY+Dg20JyWxDJghOBFr0ZjIeoYO2peWD0e5QroAktJ9muTKIOnFRiIirVdvtYly/1ovQIrtkmZ0Ya7nqycH2cBDtwUwalu62x+2wt1+dd08a8Q43kqngJ4lKNhi1yEAwk2HPZU1YNXaDi/QU6XHEIqJs5gtdWJSiK/PdvOP/iTOK3xsGqRWJq1jW9tEAttC4FddKT9gijVth7C/qnJli5Q7EB8nO/YscSeJfLEWTadjrQ7Ec7Y0vMtd4RoWQGeyL7kG+0hbHw9i4ymhX3DvT3qbS/QOrllT2mjgJYykohRcGO/FVZBwQlROzuS7VRWIYJqrjGRwxUomlkUczpWIr9jXQfVe5WNzqGi9ZH2qEnUMyHA8QXGe/GA1Dr/RZj8HuAGuL5FLL8vwozlWDOWTHbDqz3RYGaiW511KExeMYuhY4KfEkF0fSMwRyGUdMmXXZhDjnEDE9t8L1jokWLLsOFNiPz2E1Rqw58oxJpDe0koxa7pIIS9v7H4nQu8cH+jIGdgxJTaIhlVI3fhpzOXkeQWMvEinzvO0Ebbh8kqmco4qxQNV7+MBmDg2VytXzmwTjTLxRcUng3vboYMtEAD1J5a2gIci42wJz25b1cazlXAJnllNMDxTxUykIVNDaMJFIokZN2Habd3Y37wLh2ZoBnjjqHeHORwe7uwSiUfuB+Iqma2jWDo7STHaDmfoWlYkunBNbYTw4lp8sZx6R7M+hCeQaBzPxD8ShoxwzxWrgJcnGQX4ZivXxdAe9lTcQ2J7zEegVNp38djQeHsxCt/ViqHbSg/qMVkdcjzc3XJPKq6x3677vAvz56lb+bACgq8aFk2txzPFMxnEPthvHU3nY4URzM6OD/QCdZx0ihT/k9JwjSmSxgWgBTsW5Ayzb1OWWTb9YxpWJGDzu3O9VqxtYc9bfOLo0ohNW8daRaWKXILiIJWC+zRvMFYWNWXB/rL+AdcLdCARsS+cldm1lUR6RkBDobjVOC8Zzrxkz/vq6fQ2SJSzYaAmUc9f/S1ghLL7hl9qnbFvWysYbsNuc4q1NCFgjBilrTu8jwbgqEWsRqz15T5bJFrnrGMwecs5UgTAiK2vDELjF7m6VfVSxXKmWuo31ri0mss79nn1QyghR07OuRCp6+elO0gv8aCYxPzrHLHIAxf6mst6A++ZpKzbVGWvyq7i91D2YDuih7g+iybB3yYjxmvg2Jmuklv43hwecmVxrE5NhJqmG38OBhQrn7UCbpqwVDnv48nu2QnZikLbCPkdWdAkQPTJLDZgZRKVwGOL6I4TZ2sFwNpDWw+n6IBz2N+1SsEA7qAJzjzDo9D0Vl1MMUHy+Wk9O0in5cHfwYmlJPGdOM9Z6AmVjA5pLTOtSws0f9SdyrGTMoQNlz6JNPJ9JvNLbXE3ZZv8ODUoqA6DSw6bUouspcqt4VIPE0so0B0BSzv1XpVTiapH7UiycEVxC0THKXoLHTwhs1drAdo5mIpDC5R+ws3OVS6hZcywNIkszfrXQ2LKGAu3Ju3nQzpOpjS+EbjseD/unzeriNiP664lYeyna8oBAwvRShfgFVaLxATbNTFZfJsvmi4c8ma1B/1yIytB1FtXjtBDT+/0B50JpPTMbIDKz3v6kEo3vvYdwL/3AOk4hhMWQHglx2M/LKT4jMJNijIRX8uWlPINSW2XurgqNfEuGq9Hg85Ykk682yxIDl2tk9M0H0uatp3sxbQ4IHK1GiKz3hdh2mTOKPb7fPdnrRaFaUp4BLPKeCdYivo98kcqkspbg6TNp/ogy/oVF3TvqGdXLSWpRzxhETetviuuNarxb45vh+E7MGq+pD3nD+QqY+foXrV6aRrplUf+q9Q87Hf11a+eQ4mV1uwNte+EgCsa7M6eKgRTR6Hs08YnxqDPpcw5xHfl5cMjBMKb5UfJ2B4sxP64jgdqMjxAjgWeTLS10/9djKwv8M5pRXsHEfkkTY04Vze31FzVB50M298Pe+EU4k8EBx/og3JmGRmGNFRFOf4J+XKiNx6PhgEDO8FLcwhewkHsc3CSyZMfE7DxAaN2hU0MzBW+NC0T75uifitFuX04K3pEUGJd6XvDTcYFszXP0O2N0qj94CbYblP+yjgyyD1JIEAz1SbesgrOEccnvpUqkw4L7VApnOyXY309hpUeC+3TKhWv2UNWISxH9G/qKPSwkpPTyI0YoEJoNMBOliSdHSRY3hjWaXdqUDaQx7SMI6i88/bfxWpstar7Y79fqJXAz2EWd+DdASYX0Qe+b0gWb8Lci8i0WndiilKx9QBMPiwz9oqC+Vh/Epzm4pxt5G0FBLFvnIYq/HB8YmSZR7s/FebPMfyzeju3FaaOan2fGincwqD+J6cJk91sjmm9Dl8XFSv8y5yKTWgp3I/RAv4rdMoVmKiP1K57+bs8NUAb8Vq1ePM9aIyBLIRGMIMHLYfCbsSVyNOTcYwvMAL53sek8W/K50T65CNOkX81hidhyfhoWDrZZLNncfz45YwZyUOUGR/+TXkBxdv2g1v9sTKxxEd+i1TjO2C5O4grV8EI4VDn1GyYQ69zR62LYElcwvr1z095kT+wvm+Squv4QyhKeSrDxu4xVdcNhnCU9PUON8oT106+Jn6AeeQW0rdBOSjYRegmwqSepr7sMaYk7gi+ymajr1aNi2BZtSjYV0btRPXoRY8m2huzzLj5Jx+Y5W/wCmaE62wxB7SfGsC36RsNOFv11Wj0pztiyB4TUBIJGnK/298ejqhzaDjgRK62+daGUHf3B2UEPJ3NO8VJ0JSEpDVCwULrMTpWm+rY0ld2+ZGrSJC9Lk2A7JJoP+tvT6ADPAO25P5yOKXp5uqjuHs/YhzsTrogvL3TLraZcJFxeSlBvR7quZtwmp4qL8rDmAhcVKVyyOz3IPTMbK8YmZj7k9tVQJir+CSh6jMfGjW9WH+Gqa4TKn7tPArEM5A9iRJWZIf+Hnkx0B3+oao54MatlriBn43P4//3GqNF2j2gi9U369xI80ct0wad0Eg1X/+JxHSiKLLz+1VOfNQpmRiSoCIuoX26aLgz6g3mjP2hwbRvIF9Sz1Q/R46jc67fa1TZl9PltqRPnkgOthD2TiNR5YyeWLWTRz5pfY6040BY8m5pJpGk1ydjC50TYANzsNUkt6nkc25M7Lu4hXMYWPr+PxGBkWKAR9wrHUllLkN/Hb6RvV0lqUSUBK1HDnvEpu3oBYYnWBWccoVd46tdS22nDjoVhXXMZ0lbdQK/TRzduqeZ5S1KOzGbvrppW1c3pvCWpW5QxNeqR6mGprCW4z2IQX/Uo9fAkYwtbNm9+nvEY9Yh5zhYHu3gAc8fgcfOsLb/fVrAooXh8GmFpviE0Lgi7htZPdrAt6c4npuiiDHccQlnCXWl3IxzvhzPc3S9ofWcaYWnO2ZZjpFDdtYiydHtyTYKaIZbjSTXcxZ7NZ50p/j6dJmjJRB+ieN2cojCezcb7V+Dy/YdprsTo9XOieclAtq0Jwo6CInM/cJimPWZ/pnRO8gYtWzE+KToZYZ0ZNdNvNO0H5TSV3z4Ua3qZtz0WT4Dxlc2uD+7HHM72NkG/xaFliAnyxx3SjCnBvtVhWVzcaQRdVObtDklTVmgZ9k85nG0qQb/DoaWpBPnTDmmaSrDvdNjArK9FR4uT8jPeHnuL3aaTOZmph6tbr4S3otGM5L2/GBlVUJhgl7GFLzJ5GRcGmj6cT+ctydCgmr2+GHlI9tN5S0KDoIqsBKbHKKlaVw8a5KkD+3OJsrpk8ra0pD6tTbacdNsxpIE/sEWYaONhzAs+Yws4g+NjnVJ/aLPWTSD/WZtvsg+xQQeDl0itU+qvFtCm/QpH/ogufcUWpTtui0rq37uivcGw76puTMfyJPivbYnrlllCsP9hAWuFAPTfWLRhY/gH4XCXyfmqxcc7LVVUVX0PZxmQLVzEaRTeL0v/IIv+vRZtftBRV79pc67PbqVo6aMet8oMmrNrRv0W8Z0H48zHFmqYXiAjeP4z1VR/zL1PMEK2N3r76FJvKgr2eQ8Bchcccho1nvN3i0Lau4ZAgndJwavnBQXaOTe3c5i+79FzVua4/2GtfjiFa1OLi5M3plCl+R3Kj+iwlzyiP8PV/pyqiQsQTi+EgYlTKq1+Ec/exIwoNPQtjmBzlPwuZU390ryv7sLkY5pDFMoS3ze0KVJt9aupptrEc8YHssofTFPWemT4z9ikX9Nk4pLUCD4k8Q8CnSbPLsvSDnsSRv9wqoHAPDEJELJZ3jxLESPz+/OuVuasI/VVT39pXmSWghkyISn1D576H9rGLsUJRvz0J11+IcD5Va3/LJ4bOXvDQ/295v8Jzuc8DOa/zjFVRmqOzeqftfpvc7ypzdbLPvzf51jqW9w/zHFFpI7FMl2NYKH/17xMHK0kKPhPWv1vzaH30A/nj6r/YrEdVt6p/ar6R2bYHP+ucIH9Dk0Y6SGLN1EzplT9rVaf8UaI86Fr9bdr4qM74Ins75yvsl0dSBz48576dm+Iz4kIXhiEFw3tyzPqDZ7pnHMlcVC1eiPRG7NsRYaOwkXJvvIjeJT9cNxEGLZRGvUqT71L9HR/Yti9LKN+1rtogo1yfc/ZVsIQ6nWe+r4Uumh/r7kM3iJLdqhcNs+mYfxzztd66vtdebG3wwkjD8OIOSfupl7vSiqjycEsifZ/ylM/6gpkZya2je682WHK4wsYHiMJr/HUT2BAtgw+wFyflwlmeD/paGvhrNeXAX3aw5W0OP+CzATRH/2dDtNkp8faX6qFowNrgD/n6e/yzGq1xhdjKxmxcav3WTT25WB/tFDyi7aEClY2CGd46v0Wacm3ZOcw6F8ifIZOcQrzRwf76yJ/HE7+1FP/0+oxBSW6HRd8wVPfRnACA8pkHzGA3fme2zM/yRwhUYz6+DxniwuyttYg+iPph5iKE5chLXExNDG4WFQa9rrt5OVYS+5HKF4F9ZmaFyRowo2LGEtW3R8wnuqABJKbSFzOFtdmol0Yl/MYEQhuSectSWMbEVj4EfPj1GMO4yzpGSQDKUg7ITgnj70ca8nPcjLsEzs1v/qlPfU09ZRDKEv4QjsJAWdRcBFbvX7qIsrSoSPEJ8wiRLL7PVM9bRFjybbROgy6xAsjIlj661N5S7Fj3waJDBBTVbfNs7a8vytGpMYpiaiAWUOWKroMaYnRRdP2eJ010EoOr3HWElywYykw61Yu4vpQX5RAEsbkT7V+lWbmjGyKFFD2Gh2Z3W/+g6v71Y9hscSjDvbH49keU8OivsXRcX6OuF7ZxrLZFtsyORG3sQLA8OccIQvFOu2YkDpzql6g3gvbBEfvYfILmqtmwpLi20zDUWkgFk1eF7zPcUnMyZc1UbOeu/v7ila/GdtkG5gTdNWswKazyDn1UT2iLgEUssb4f1qr3zJht+Ghlwof1+zhrkA2uRmMYwJ6+dtx2Xx2KzKLjEQIPqFhcBlFfv4e4FNa/Y4hQDjMJdID6o/MXPTYD6eE7WUe3c2C+O15Nj6zAGL/v2DdvCI8aZJ5k/U4pf58zkAC/8LhIRj8hT4fXiKycu4cM/vPHjcIF8Z4Lb6Y0ObelCgb8/2XWnoqFp3D/14h3B1P8W4I3MgAH9D/0QWIq2xZEe6r/k96xnJLOEZmXn3RU/+ZBaGjew3Cx+gpHWWXHGMXiUoB05HvYMeLZnN385VeuL8d9g2Dl2bYCIgx7dXC/sA+sfxYhm0HoWCdZZXpnpMkdrAf8KLB/mTIqSB+2tPsjcKhDPdN3t5s38QU/yaj3u1J8KaFnVFfzKif83o7DNKEXqq9bYKoa+o93gUhAWMa/VxGvTfBFLE1B/uMRxy1CZuz+oWkTM4/hUsB2xMlb/LUB5MSwVGIVcjoD6SxeLrv0+qXE1Qr5PiJBBsR/ESGOHVcIl0xVwTobEb9qofLMOr3YomUFt/hqd926Hh/FPS7PfVxnHhit0IYMF2cp7+UUb/DDpu65GKaPuEx0WzZuNMv89TvsjPhbLOJ7krI/q8z6o88u5xMuln5Sp8rMfbUHVHVlg3XzW3GVzNsfFOLtWeONfVn3ibiPndPvEwPGzohS/N6n+Z71bH8HpKbZA7h0qlMTbB5y1OtykMVbiNVM98J5FqS++wN+YSD4Lsx0qvZn6xnOnUHZR2ZZLsJNmc+CrbeaG3Z+9Alky/ki6cdYtkgzMX5Crs8PkXKS/GWmBjOkQP2T04rGqUURZsj0o/Oe1NzC2ULWXhGlgUXpKpYbG4QNWw1m1+y7ZacZVtwwbheFtHlBCBXmGi/sQeAXurlgMiAp1Hs6QDZeb2n9WKhT8klWGERWKH5O4bNlOBBluLxQ/A4VOpTBJOMuLv2kpH+XEjRiBYlsmwp3uipzOYCRt1aqwRBxfyMUhUbLfk6TytfqnTklYeWT05ttOT7avIdAUvlzZGVesk375oyXOI3TvvdrfhrFdmgzZKmauUsopkvyYcq4qdl8imyFNY+lFheRMaPJFYW0ckritXNSlApVEW4jsj7G/M1LDJrW1wty08bjybf0DiWfGZLmjKd6B4e8/FFGtP6ZUQn5kS2H1fmddVlZFdmd7LQaJVASIPJFF7tkK5mgr/G4U2LCfZah7UNJOjrzIca6u2u/LTXb7UrvrR3vZ3KYqMjz05Sq3RDrVLvxvN2Yy1/JsncJCXJRN4sRUnullikxOAm1nguvG9OCW+axKccCU5kFCxahXFOxFioQT2gvLZkORAUjfuftsHzdt5KOw9J50MkjQ36sJs/oEHrFqvILgl5iu3bL2PraHwI5iwjkJgdL2+2g6ZrALIUq3fC6rJyn8I5m4krkJ5Z0grnKLM5Kc99mkPF38ZzzNJ7z7yx9ySNpcp9CueNCZKdNm4ppsPOysmHLuiZNPwuKDiQYBPr8YJkZoRSOKKwcb3PU9kL3BCZzPs9lds/iAY7JvcBTy1Z1u2E3NMzgavh6BzBP2yWJdiMOXg4RjM2fQzrvLSWsMQAj9ndStK5iE7N2nCrRZB63AvO74O5c1ZebkR/raGDVT/cpR7C9JLx/vYgXHc/HKnboWZ20tXrScUPMrz0E7Fc8cp0Kjs3RCptiLS8IW1VStjKbmC+jNilG6xmpV72W5V2V94RdgP5qb4tyCy0ML/YZuzxENAQ2TM+wsIsEJdk1Ct2cUd2XJyPEajecDOukWEfm98Mrqks98zz6hWpmzPL/lFWLz3y5clU3kTgBxpeEfFItbLQvMGzJ8mZ0sIos7ioNvM6bV9g2hxCtFC5LW3Ka2Pzg2czhSQ6fuvLdGG26kW/Kw9wQSzWbh7qG3KCGozOueya1gPno8prdIf9uKe9Sgq9yAQeM+nTJzwlzjtT9TWI20LJajRqzUbd7oqK/uL7yMfrpL/auhXG42dDtF+rcR+hUeYhNKmWYXf9EmJhX9t5+TbGuuyXkBBI5KM7Qdd+m1WK2Xk7mHJpqZPGZ21ji8EglXFfDlLtVqdezLd9QG2+jejen7lncXNDsPDg0sKbHGiQHINyYZ+6FbXMlsnJchAnSIJAdmqW80X3Gl4FvvgQ9mOf8/WV75G56cgYZDfwq2ygptR5k0A5uioz5by0dGOE5PGEx1M5/CDaHt6gAej6DInEAwN0Q0zXk06iNhOHcqNJ1xlAYYbxGfRnsGN4Zi13YhiezkWmaS62DY5SNKdt77rRgWVu9XZBoi1sfwsxSHVV+2zTD4qtivl+gCo2ZYG0+1m9Vwxkw86cym/mE5psuV0TFcmdCsx8Lhlv7D5BLTfPtssGubIhLvRqYNBHgq2KcbjWTjfkqSHQ0VYnEMyxQt58IOI47rx8Asoo3YmKeLWEJ/xUTA1DZj4HquPCEhISF2LVSYwlzHPol09TPeRjKxZm4pDMiTVloqFeG0tR5XAqjJWXHQIiZXDbPhhihMwCfBmTN+Bsw6lbZjp+hWN+FVc/4CQ7JZe1nEbWD/ZWhoCm9ldQ5SvU9vrxGao35Big/ppVXkTJmFHbv2Ez6I8vjjjayZMhziTYy5zKIRERvQ1HO5fm2CUZABMxnblwTU4ty9PFaWT61titUo50rBTmw1NZ48cZHVad+jyjE2cbL6BbtV+dyAgfWy9n1g+ccnViGp1wiTGecR/u6zSM/mfKfp5ioGxpYcgQVs03GVTLfNpELxa7GcEm1uzHzSBR/pkEnv+gRSjjKI2XG8gGo5l4Kv8ti2kLuEXw9OJT7Ig1ws2SH+ruQ+zMDpOYSzj7hou3PJi30AbNrQ+rnKAWrncQnqQgdbuTwcC359EZHJrLgjM5gmasslQQn4MgF/WW9uWsXCb+B4r8ctK3TefDto3jhIIw8PeyHRbHI478MOkN86YXslf1HMQkcKZ0BOYAl/DLGxLl3TzvhjgfKAjTOce1IeUazptj0qNcuITLzmmk93ZAqVFe8TJLfkQiFz2UGzYt+QlGjLFXcytyYOese4UY3urlscAj8wbZUbkPSt0Ertn+rnMPI+VqVR9Fsac9S+C0alsdm5k5jmfcTMnxRdymGBn1yYw6YRbMTearPXUV7FzzLVqf2WhJ3GOi9hiqUWc6rIzq4UWOAaCuXmSt/s5T1yyijNlh9a41jQXnB5P2WKaY+b0uQRUu5feNl7uqrmcK7ZpzYZLRNyTZuYz8vadvPNRVOwupvt50iKASi/qFMPGVJDh3cyJUAf2WqHvT3NYRTHBbH4Gz1BPU+Q8I2OOdlpS4MdsJsTun/bPx43YM1uk6OzgnyzoBgWrVmBV9ptA408UpAvaawV0kGfajdrEsp1Jy2dNz3TNBEdklI5XTiLXBurb+CWtRptP2mZjnHZjfU5vHmiy4V2N00kcva/J63+bDvlwyVvqQegmqcClBZnaJtZ027l3WZ/+wkVDvqOMeTXc6BvJmgxmLTYVZ/EECW5C9KJdRrGJuz9xWAS2FwqhNXylfTugr+9iyci+SX/Ws7KIJrHMatzqZji8gfxJ6P8KlybkBAiBbGfk1piS1JEdZOXfD6GUO4rHI0YnVDFyISlC4wRAujrjK/KFryZWnt3JgRqLjIcr+HHcks9hw9oqjyV1hNEuLlFtulg5PRzxnK5t0RwLoLOBOb3ShF0mMOnSvgjDdE+4ohq7bCLFn8qVQBN7E+2ylDSsN2Zp8BldY2bjdU5S25YZpdbzTM+PZVl4KHbD5oC3jkfxyv3+YY3HIrajScnTmMDkxGkP94JAWmvtn6N3VSWKkvDYLijDjI1rzqLT5mSyQa0HvjWfRZDxzWS/ikOHgWOuSynbdcmObc1RfiwEralW+EhuF8ciVZV21AiZywplpVumrt2jZZjEiUPcD2YlRuG02wmCHYKg4/zTnWo/UazM4b4ntSfwE9H0e6VUtn3OwCRbrtjxtw/VqUnubI3j8I5flMfuNaex1GaVH4cUk413Wx5L0MQMUjwYMYxlEZUtZGdXDi4eGwKD6Seden8FJj89zMzHbcukiXJcrczShCNe5XCQ504o+3GzcvWCBD72LYj4pdNb8Wke9OaNyotxFK6FeJloUPyewbpHM49Y6ouXymTb5IK5xqDbWs48j8TXrL85903RJZeSzYxUOhmbF8gQVLcgprVartG3GW6yK7TTXpfRhYrgwMHnWco65l2eEGE73KyoymUAmkUCU/EwB9YwWZkYPe9EsFg7LXb2Bxb8cHcCGS5W3ZDDHKfZZxBOlS/hnthflJRbZCmeAB1FjLzL0iZIms2J/cYREXt609OgKHQ2SHjmmrhOReltGL3bS2A5CYHMrxBVEzG1d5tKyVLhbVErmixBnRi9TxgHd/pKRCAXLirFlwjGM2Ly2zXub4sDOz/HiVYqTxi0vYa+KbAO6zM3obDvszVhS9NSXQIWJOagC4eEkpztsHDQqHfJujWiZPjOdGMGEKT31nO9AHI07LPVCVFHsu3UJc2K0jXF/BVq3Tz9D9cqMWk6EltvNlfE2DV1gnGpZr/ZDNpSwbnkeQWdRY2OBI/WqjF6zUxxbXe5+MvJtl0UbGanXZPQxmprS2zV13KxZTFO2CosmnFjAN69gJ6n+gDiKjiRmX5KZxfSdnJCbCw0R44y+eie1Su/IqGsuLKzHO/ENUc+tKYEF5u46+VLTOm5awGojRFpdnzIdsQniGgjfcMYCO5Pxxoy6UbJBMotvyqibkkXJm0NJwELdvDveOYgaozbErq5Wt+wl6/+ujLo1YIY5sfcme/cdhCZGHDnnUKwGE4BTOEFNURpBuC4lI/L09pAFNBEAp04IiG2sFdp5hMjKhPU2pHcuJrwyiJo9VkoESc/At8L9HoHL0Tkb2mVJ8ITAm2xmBiSLuqyyNFQQ3y3nwsLLHLtZzxYCw3z2A7BtqBnL/sRUXo5AdeRbGThhtXlcGRWcd4EKsnIQ0bhUAEK0vzZn9p5gNp7gbMEi2T3dCPWC4iDJlBWm415/B54E3BeKdxan7X3YlBlNTdX7sXeTmLH6lQy2JJbXZhptY/DqAyhbDcYMRXmPECrR53RTHmJrAHOP6BZVvdLTWabCaX2k3p3RObO86mVaLwlU6EVoiDWiD5cAdW/odHW5t7NDAyqrViIJhQRJeHA1zrelI89VR+J8cUy/Rxb9fLVmfulLp3LqqAGdOHHOM9n1xF8/bhtu9i4NmUgQJ6IFITa3IBl9VWpoiby+N6NO7sJp04UVltXVhnsFKUDqMZKXGgezaNAP/dHOEDvDMVQsM0t7jSFsMqnY0QfUtYOoyNEZLR5i0IedUX8ccGd/Xn0oo683qFaYQt2wHa96pD6Y0TdOwx2rsEH44oMQjXdRrGV1k2mngF+1sxeYHzGv02E79JtNmc8pkQCczNvLPXXLZEy86dJoJ2/EhpCaujX5KR/XCKFxDOXzRg/DC5pdkochFXs5UKVLjOARpcHubnHvQI5Xa6lZwyBru7cvSazM/Dy/TjGCgr03boaZiqyF3XrnbK4SGVPKQtHC0o5wj/LmdxbMaXuP2RMUTSxvc9qX6UcWygOM73Rn7xJN6JXJ5bjVKxHH4zsyuTJ+TcYXiwuXXAwhHiEsrQUTEWeMbh4i9WF2b8kWpD0hy24L1DQt1Bc55CZXwi614hc1ZqWU5z4tXuqSmD+doOK/r6MT0pIIqceJFbhsD1R6GhcaPh/FKqQDDgZJMJH7Ez9fh5larzbybVLN9by94PXy1Yr5q2E2wg4gX6ho+YH7S0S5mrkfWErfUy3HjbRC+1Jm3tjS124sacNyzaW5LsVc8yMbGmYTeIhrozXl7bJiLocPSfyxF0kwLWt8DYt/ocqFD06mmB5k36I+jfnbd5c96rPibrhHNBbzHkKvflIlCTKpk/LEILmrcH/OxWbljzvIh/3tH0Cw4Vhzf+L+tlSpIisJlPXv6+SrMtO5eoO7HMmRWeL2Rv5YlZmy5STT5bIjJlnZaMmfi2uZAvKr6Xya8Ij9IvOameKjtEJyzE5+ZV16c5xadfv3PE7Q326N2+NutdE4ba6jrpoPHTkLk0wyD5/CzZ2j89NzBxI+MQGqRO5q8eyauA0rZaP50MxlExq2P4OP1Gcy87cAIke46KZEQnO6D8II1sepTruL0vYJ9r64asAdFUpG7YHYHT2yFoeteuFqM6EXJpvSDsHW5IL8C4f6Ygl8SsX72Yc/kgrzCykaMzJ7ycOVKjYMV8oNjg1Ki1S05J2beqH7+ocqdNptKztcvMjFVTbf4iav6gM+om7DYnfJfZi5xSFzT1su+QCe6z5EZEWvHBuLlgTsWWTzB5KCOHMHmXacuZNMJ87cRWYzzsg3VrfijHxn9YxkTJzu7HqDGwGB7pevMRXM966/Qf6ske3AC2pcMEhkz15DfKPpZtf9tbwHtuK/0sclpF88TcgP2JOP3jiKTM2vdyptX97s5GI4RbsU4+RZjMzccqPpWl4hTogWBIHt02pMcYQrMaKMFrsW+PlWsWyZHU1fMcofJrRDPB40K/VkQU7YKCTQVYyF5CRJM183f/nparkKs8yuabd8X3oGfC0H4ULD4q+T0ZFeL/cqFnWDDIL0Rkltv24yvZXTlGjdzTQh5IC3CFvSWyV1rB6Wb8oFSrzmD1+4qXlkMR/PyNe5SX0UJrZTqydr+OiSfHg8Nl6PKXGB6uDHliryGqlhzMHjSvNvUj3erzXL+aASAD9h3Tcn/CeuVzY6LWnzSRt+3W+ZT9o/OR7DU6Q55AfwqZWaJE/jbt5Hqk1LX+/Gd5ukbtpuZ7+Tib6j5lsRuxN7Jfzvls2HjsQjfnrL/CG4e0ni5p4BLC2aes8MCCybpp+FZWb97ZXos82n/ZPsc2hEmn2e/EEZ0ue32afsciATDbHXgIVCXv4aHVCRVW1WfZkRay9LTs4r9XURNJ/jsfBbFxUgRRg3bH8rVuqATuUJd0vjp6sN6V+1lm/d1zErXLPX80BwrJkWG4a6VMlb4mYC3Vc79G7U0/2oX5Qn+uY7FubvgppTlrWrIeZKjNlXMGbpIh88Zsx82VCM2K7gcSpNLKU2xqMZcIY57HJmirKhNt0DVIKb9ntlav69MjJa7p/laa+qxkZubtL03GB42C+SDMJl98SyWKxc+Q7+XSoLp+XyXfy7Ur6bf1fL9/DvkXK87GvJmh9NDNMxdmbkJQA8LjQnyoK9ChkiObmgLFebVyTXdOTfa1nYDul1VfkU/vUlwd1QavPvjSUR95sScb8ZaK5lt7jlvpVtneRh8prn4UaeH5GI4SODWt6o4tdJrx7F3afwefR9/POY0rrUfmy+UJBuPs7d6T/eSMkTWjKAJ7o3Qk8SuSB9svzpU9KnsF+TPDWwf/D0aaftH0FA5EluQ9hJbpfB3CGIO2VwdyFvsr3cXTAf/L+nUJKVeXqAQSO913ThGVsmeWazUmzbAT8raHRa5mtDz7aq/Bwn6s+t5gvGED4v/nOez08MZ94+zAAqSP9Fz4GL2Ot48UrAdg7R9zMolS+jXG902pbXRmzRgcuxTaisyx8ctd9SPFX1sTwy6NPFK751Vhm3dyrzELI9/0NA2gCCkRIQ3v8BMxEAAIWZeZwV1ZXHT71eoNk3DQpCuyAI6GhwAe1+lOs4Go1jTMygMQ2RwYnYOohRI8FLd78nyKY4GqOIrYAEoiAIDmtTskgiI7xGEQk4omDE2GzxExSCku/v1ntt5a/U53M5v/r9zj333HNv3arXBEHKiqxNdOS377VtO8GsfkJgU9pVX3Td8H+/btDIBy8d/p/3X3jX934+4qYLqodYZ+sSPDPwBOtmp1hxcWCWsuKg5Iq7f3bfXcOrR1tp0PJhMyuzDrYqZRaYj22nWnGq5IahI4aXn/etSxsZLm+8f2fB9sH96pjyHU9Tx3+rHj18VPXQkeXfrx75YPnlQ6t/MfReK7V/HmZKQAKfBo3lihWQRNuSe++75567R43+r+oR5aOHPzDa5gTBq6ecUGMWlQenBn1qzcLgrBvvHnb36LvtxuEj7hs5dJTFt2cXbvsGuZmNj+RebRzXWJNbmltSnltUnluZW9Locg251fy7tHGqV5aWN9Y2jsutRhqfW5VrKAc25BajLYJyuddzi3NLJJxjxY+Ytaxj8JJUUGvr0jVWvj2VtUs3FFmxcmpBhq7ESntYkLE5l9bZ1SemMrZoepHEhEeP0n5W2o/qFYLQHyGi61izyywIUIrfTioBijuRhUrVWXWvpJLKK0UoQ25PKkUo1saCYpSj9UmluPRX5posKEH50/tJpYQ+rrcFpSS+vm1SKZXS3oIWKPf3TyotSseYHbOgJcotlySVlvSJzoj7jLg1qZTl+5ShXHtnUmmlPg/FGex4Mqm0RlEGrVAmL04qbaT0tKA1yvF3k0pbFCODNigH/ppU2qFopq1SWVffOqm0l0K0EpTt3ZJKByn0aYtS8w816IhiJ6nWWVdVkVQ6Ndc66265Jql0po+iSSm+Jal0ySstUF65M6mckK9bO5Se9yaVEzXOHu2DrFvoksp3iKZ90AZl+9Sk0hVF45Si1NQnlZOkUOv2KDsWJJWTUcIZFnRAKd2QVLpJIVprlAXbkkp3FK2C5tN7b1I5JT8frU/8xBSUHvRxPlrGjgxLKj1RFK0jyqFxSaVcygVahYydNyupnKrqNMV7tHeUVE6jT0Q07bcBHyWV01FUA+23T44nlTOksEM6MZ8v2ieVXijheOWWdX/ulVTORFFuqvUNFyWV3igaRxWde1VS6YMS+hpk3Y03J5WzUIysO6O8NSKp9GWm1s5alpUFQXwmNh+RluLM7V/UZfknNU+fOu3W7mcM6jnlqw+W5/aMri8rtpL6UmvDWaxjuNhaWEuztkG7h3l7tO9nNea611rXNrV2cEKdPR3UWd2gOuszps4mLauzm7Zl7PU2GXumW8b6XpWxnbdn7PpMxtIvZeyxDRlL7c3avOKsje+StdrTstZ/QNa2Xp61f702a9t/nLXgDvQHslY0PmvnPJ+1bQuy9v2IQR9rVWt9OGv7PMrpebTOug6uszEM6lZm7JxWGTvaP2MvX5uxb0ZmbP/kjjqb7eHABcG4wGoCqw2sLrBMYNnAHglsfGC8NWcHFMiCtwLbGBS9HdimwH6dCkoDZkx5rCxoXTjm45cWL9uX/HuLvqPaxi+vLnYyr9Ye1tPODKjYmBdfeGFsq7Kysd897zx5Fukf3riB9bbuRQ8UNQVF7eykcZC9ivrbOamtwcxJRUt/aKVd5qV4i9qzaXP/nU5Z+Le02YWDU1Z10uAY2CKYLyqLzL0MiCotmo19DMKeB1xWaeGT2IMVeEwEDKww+yXWLob4CaDPSrMB3tKltwe8LrAdRJQCDI8Am1vBcMWAyUR3ZYCJleZOwk4QcRZgfKXZed5CXOeB2W3Y50VUA16nywPY7SLGAb4m5Qy2I9PLz5MZu05Qmp+bn7ZwAppbDjMIYNMAAwROJrj36QRz4WCbq1qFB9K8RmEFuPB7IwGaJQDe7kPQtDQxAO7HaZJqxPt62lqIKyGixYDKtEWzsAMhTAU9n5sabyGu9MBMZbtGxCZmWcXNs0wuK+IGiOcgsBYxnIBTKq4DgQoAiQQAbi43PbDPiugHmExjGB/N/ZSkHQQJYCH+xwMLlWINRLiY/hnc12AnQPhZKcaHeE1LW1MJk/fqssqUB24Zbh78AZeVtK0Q9jrgI9pcgn0K4aZzs5+bCd5C3OOB2Y+weyGsAvAxxNnEeh/CMZFoEzdYtzbN5OuY/FoUAduC64ts010i2MBuP8RXCEchXNe07Uqx10OClg7G4w6ClQ02N8lbiHkemIuwxRDhNoY5Tow9dPmcGHYIAClry9KML9DEBvSAHRl+gR0FEf0VcLDC3FGsVaTygL0TvuUBLm8CXIVF67B91WcNgCfB22WVqqt8ZzFQuJFUagGqGgDn8R6YG5XWijHBH3DzS1qaPtUizuJmKK0H7XoRnVEquJE9PU/4x68n7TMycH0Bq6ncpdiXIOw/AFMo4UPeMuw0D8xmYhdBhK8B3iPpldgSBdW0CBhuIPhFpGw7IFqjhNsBTURvxC6jb/QHQDbf9xwIexUwq8LCGdj6S/Bgcax8pbm7vCX6hR7wwsAOrKDL70mmmPYM7VHFGAJ4h4Z1JzKsgF2G+1Tsz0QsZKFqIA5hJ0Nob7inaVeS9gwRo1Bn0Z6kqf75hbCJxcajPpWbOg1V74HZfKwOJtNElkOsx6qgtomobYi6GaIfgfy5248h7CjgMK6fY2fiGu4EnEZG67D3MLPwZQBT9cNp7jbMA3PnYzV31wJQTAxNV2epPQ14nzaauXfXKBcDrsMLazWML+Am5ZVoDgquFol4GuV9CIKFn0P46N+QP8NV6XnQ+P4BISEsGS7wwGwDMyyCiP4f4gg3TXTbTQzN0r0NwbTdwjTz3+wBCpUJ1+BOqaLNENEqiA+4WYD9BMJexHUfbSptH4Qb7YG5m0nMe1yCu8rWF3IThN4hLoLoRIwFEOw7rai3TJv5AyhErPiTFVdLi1DfbrSzII5TTHcxYAPV0XCzIYzxtdxKSPYnxl54nAH8qQvgYoSrEqBZAuCtuoAoA8A+S+NUX/EtaJYANhx/p4l1krrFk6g2+FvAFUtcMQjX46xeXDDPkX0B+F6SmgGRbYHf0E/QQTvMVXtgLsR2qGDKnQF7SHEPkcaqBjMB62mOOnRS2dhH7jK8ZB9idIFwfF7Raa9S2VoRvwOwwrYfewDCP3eax+VpKy9h/+gx14Zyk72FmOeBudVY7cHoXbocZxIfY7UpogMoOyAOQ2iU6Bjgd5BYm0pCAm40wDaSYgHw7FKFTfgUgJtJb21WtwSWLc1JRrgIsA3iNezHEOFswD7aZJoyYNYCZkMZ9E8itPC7IAdg3xFRDngTjxMhXxPRGtd6brDUivEBxIkV+yENVxsAYaeidKRdAHGQFXDXAFYxgTuw9RBWC6iFeMpbPOZ74ItGzSFyAD3WKn5rhguPAFZJOQgYT9/d2HNFbAWwFaM3ZDmBQwXTlngitoGNK+Gf8EVuqwnld4gH7CabDtB2B5DYHA8sXEKrh4jWMo9ZkBtpr0CEWyCkYm1NnoikbqK9A2Fv4fFHSPIJP4RwywB7aK8gqNrhC7h+RtOwepJcvyTw238GMywAv/3lDCCleR5YqFppCxobLOI7gbW28JjiHwJ8gXoEq1Onih0bsiO8XZcnbCnd/oaXphUdBrxI20eOv4EId3PzOG0rxESIiN0QZmmL6VaXZkXkXq0PVo98srvzWbueME9V5p2e0iot8cAfoDYXwjYD2BThVuxHEHokrIjgWP8mELALGVEeV0OoixsCoRi3Q/igpOBH8Ss6sAAGAbS0StcDWw+YQqeQsOEkxvkzRK2Io4S9l+c5oCg3Q5SXAC6BkD25QOxle8pjPrnaMfreAbEfe7KIjwDT2YRvY7tyDPlPdi6fGtdL/B3PogZuDlOWqrYshFa1/vQ8iDYhqXTR/DywHRRHkn84BfLdCaR94ikBLrzZJ1wxaJYAeJd3Jm1pAlCM3zcBuGJJ13GdrnxqaQsTDGA3NAAmEb4AfE/rls4DfHCm264iNuGEdMqDsI7CCehl7vdbN4joCAG3EKIJq19K9iHgqwpzG7F9KJy2pZ7aaIa3EBkPzA3D7uL51tJYVBFvsmGKUQxYRIKfsiKljOLfgedDrsDeRUICblpeca+i7CWH30M49d3FDAgWHYRQ9F1Kl+FCPV6uDoUD3UgIC/G/HvgvXH/Caw7RcWIwKbdPMY7Sd0faqojDMZCvw28JLDtBtdKXZegfIwAU2xAQPUc2WyEWQEQ5wBuQGyA3Q9hqbnbSbyHCHgjO/3jQx2hNEDbWAz0d8VGjo9dpegPp9p6IMwH/h0c37GoI64C6iNaK4LPS7BuAf9xcF0AvFLpYqQiC2GYK+COsnmFeTfG78nFvSZmEAD5D3rtEJ2Vby3eb5nAUwk+qKzfMki/7eNpWRTJYCmLb/QYcSIw6khGwR3ETCOfgOgYbiagnEfrYLjz83DswgW+IXknzy3InBOsUPe4tQ/FoAfxREHtQTHWhvxoex1AIWsVx6kepLwUwrCx58MACyCxW7PrY1bpDqK+965PhdydTVXQ7xjcSw/mtHc0HsJPDad5SPzIE6Gsu9nDMQV38pHyMeoCCMm0/iuqgYWXJwzgLtF5KTQCKKACV1LrQKkScwrQoujsXQqtgVwBYFn0AxOs0FqCFU2paSX0zAPTyz3usAdDFbcT6GKyggkbUy4+iT2kNK0senFcAMssrM1BwjRZAqG/0Bm4Ec5shdOM+gGA4p1eWMT7Pkl88LHP4lQf+Czj2YA7qokn5GJql4mjafhRfB4b19lF+CukMdtsYReeWB3vTAPp9C5olf3RaP4/YiAAuwHOUrQCaJQDeIc87iIcawIW2pdAN0CwB7ID+YOMPqXFp5EkF8GUh/Eq2gQexD96Ry8eIDiUAFxmvTYLPCCRnAHUa4oHZpXT6WEQf6rODsnSHaBTREeJNPLBuRZ7QKem64fGSiDMB0yEq8HxSxA8gpkL8wluyzCWAuxEgCYDv1R7wJ1naT0UYxJ3cbOJgcCKmM2lVoAb7rAj+RBTOg8DyCzUm/Lu1FrtTxPOAzyH4SLQvRRTzwtb7uS9WD7e7gYwoNCN46/+a6G6jS1Ul2S33LPk2FcDDSHNW0fF+wOZV/vywryFImq/bBrPvpVnsBohBgLDB/5nKroNwRcxoSIP/oMHiMccDXl7Ym0VcBbgJoi/2xgaG6wNoIYUn2VqiDIFoKWIsoAwi6y3Eeg/8r38LIFy7tNlfVvkNaxuV4dmA2auIhb1iFdO7DVClTwUdJX5+bgzUXyrZgY8CVlaQghalz0rAuRWxT97Z7lfH5zyG7FeoEIDf3IRamgCx9GkCeGnXGaxFAcRSRQJwARiCKwZI8RMa/ZFYv0mzhQFuBMB9JwGaJQDeSoquxABwAQjGFYNmCYB3efz08b0D4CJSY76bQLMEsB3aMHpYuKFqNXmgOvIjkVV4kIcBVvuEjxyIWwEnQFxF21kJ8S+AKZX+r1b2XQh+DvEHah7sJVgNCosVqAD8mnLp0KVu+M4GrKato+0VsRtQRqSvidhL47VmvMsgutBGQpj2w0TInj5FgsXZax6DPWJ2PCPNgAund+lVANFudcO5GeCs/jqOtJyuE90KwPVsoHCHNWIecNFtL5kWgJdsqb7XBOI4NlHFdT+n551p2KbCBmybjoGbhDQDya3Jg2gFQM75Xuo/hQHvg9KJwgU4l/ACbhiMvvvzPniH2jOKLcCF98sJ0CwB8NYmBTFuS+apcW2jHxdmLUAp6TsvBuV553wv+oenUyfFjr5kECUZtYLxKYUASXkfe0Lbnv+44NnVOgs8TnuFtlCEfvxvoZIBkbZAOK0zhPXHeo9LAOoi62MI5KiFPMr1ZaEu0Yo4RrQCDwWF8KPIww+rLrJX0P4O(/figma)--&gt;&quot;&gt;&lt;/span&gt;&lt;span style=&quot;&quot;&gt;Участие в мероприятии успешно подтверждено.&lt;/span&gt;&quot;&lt;br&gt;&lt;/p&gt;&lt;p style=&quot;margin:0px;margin-left:4px;&quot;&gt;+ Кнопка &quot;Ок&quot;&lt;/p&gt;&lt;hr size=&quot;1&quot;&gt;&lt;p style=&quot;margin:0px;margin-left:4px;&quot;&gt;&lt;br&gt;&lt;/p&gt;" style="verticalAlign=top;align=left;overflow=fill;fontSize=12;fontFamily=Helvetica;html=1;whiteSpace=wrap;" parent="1" vertex="1">
          <mxGeometry x="620" y="1180" width="260" height="140" as="geometry" />
        </mxCell>
        <mxCell id="Q6JiQyxt3tVJIk7yq-6E-9" value="" style="endArrow=diamondThin;endFill=0;endSize=24;html=1;rounded=0;exitX=1;exitY=0.25;exitDx=0;exitDy=0;entryX=0.001;entryY=0.338;entryDx=0;entryDy=0;entryPerimeter=0;dashed=1;" parent="1" source="Q6JiQyxt3tVJIk7yq-6E-6" target="Q6JiQyxt3tVJIk7yq-6E-4" edge="1">
          <mxGeometry width="160" relative="1" as="geometry">
            <mxPoint x="417" y="1181" as="sourcePoint" />
            <mxPoint x="370" y="1180" as="targetPoint" />
          </mxGeometry>
        </mxCell>
        <mxCell id="Q6JiQyxt3tVJIk7yq-6E-10" value="" style="endArrow=diamondThin;endFill=0;endSize=24;html=1;rounded=0;exitX=0;exitY=0.5;exitDx=0;exitDy=0;entryX=0.998;entryY=0.442;entryDx=0;entryDy=0;entryPerimeter=0;dashed=1;" parent="1" source="Q6JiQyxt3tVJIk7yq-6E-8" target="Q6JiQyxt3tVJIk7yq-6E-4" edge="1">
          <mxGeometry width="160" relative="1" as="geometry">
            <mxPoint x="591" y="1210" as="sourcePoint" />
            <mxPoint x="590" y="1250" as="targetPoint" />
          </mxGeometry>
        </mxCell>
        <mxCell id="WkOCV6_R-PwSGtUU-9jl-1" value="" style="endArrow=diamondThin;endFill=0;endSize=24;html=1;rounded=0;entryX=1.001;entryY=0.413;entryDx=0;entryDy=0;entryPerimeter=0;dashed=1;" parent="1" edge="1">
          <mxGeometry width="160" relative="1" as="geometry">
            <mxPoint x="-150" y="1730" as="sourcePoint" />
            <mxPoint x="-100" y="1730" as="targetPoint" />
          </mxGeometry>
        </mxCell>
        <mxCell id="WkOCV6_R-PwSGtUU-9jl-2" value="" style="endArrow=diamondThin;endFill=0;endSize=24;html=1;rounded=0;dashed=1;" parent="1" edge="1">
          <mxGeometry width="160" relative="1" as="geometry">
            <mxPoint x="-155" y="1969.38" as="sourcePoint" />
            <mxPoint x="-100" y="1970" as="targetPoint" />
          </mxGeometry>
        </mxCell>
        <mxCell id="WkOCV6_R-PwSGtUU-9jl-3" value="" style="endArrow=diamondThin;endFill=0;endSize=24;html=1;rounded=0;exitX=1.006;exitY=0.4;exitDx=0;exitDy=0;exitPerimeter=0;dashed=1;" parent="1" source="Q6JiQyxt3tVJIk7yq-6E-1" edge="1">
          <mxGeometry width="160" relative="1" as="geometry">
            <mxPoint x="-465" y="1660" as="sourcePoint" />
            <mxPoint x="-410" y="1660.62" as="targetPoint" />
          </mxGeometry>
        </mxCell>
        <mxCell id="WkOCV6_R-PwSGtUU-9jl-4" value="" style="endArrow=diamondThin;endFill=0;endSize=24;html=1;rounded=0;exitX=0.696;exitY=1.002;exitDx=0;exitDy=0;exitPerimeter=0;dashed=1;" parent="1" edge="1">
          <mxGeometry width="160" relative="1" as="geometry">
            <mxPoint x="442.5" y="1340" as="sourcePoint" />
            <mxPoint x="442" y="1380" as="targetPoint" />
          </mxGeometry>
        </mxCell>
        <mxCell id="WkOCV6_R-PwSGtUU-9jl-5" value="" style="endArrow=diamondThin;endFill=0;endSize=24;html=1;rounded=0;exitX=0.696;exitY=1.002;exitDx=0;exitDy=0;exitPerimeter=0;dashed=1;" parent="1" edge="1">
          <mxGeometry width="160" relative="1" as="geometry">
            <mxPoint x="442.28999999999996" y="1550" as="sourcePoint" />
            <mxPoint x="441" y="1590" as="targetPoint" />
          </mxGeometry>
        </mxCell>
        <mxCell id="5FWCGzmXPQvTkm7JzypJ-1" value="" style="endArrow=diamondThin;endFill=0;endSize=24;html=1;rounded=0;exitX=1;exitY=0.286;exitDx=0;exitDy=0;exitPerimeter=0;dashed=1;" parent="1" edge="1">
          <mxGeometry width="160" relative="1" as="geometry">
            <mxPoint x="210" y="1950" as="sourcePoint" />
            <mxPoint x="290" y="1950" as="targetPoint" />
          </mxGeometry>
        </mxCell>
        <mxCell id="5FWCGzmXPQvTkm7JzypJ-2" value="" style="endArrow=diamondThin;endFill=0;endSize=24;html=1;rounded=0;exitX=1;exitY=0.286;exitDx=0;exitDy=0;exitPerimeter=0;dashed=1;" parent="1" edge="1">
          <mxGeometry width="160" relative="1" as="geometry">
            <mxPoint x="240" y="1790" as="sourcePoint" />
            <mxPoint x="290" y="1790" as="targetPoint" />
          </mxGeometry>
        </mxCell>
        <mxCell id="5FWCGzmXPQvTkm7JzypJ-3" value="" style="endArrow=diamondThin;endFill=0;endSize=24;html=1;rounded=0;exitX=0;exitY=0.5;exitDx=0;exitDy=0;dashed=1;" parent="1" source="eVMxFfnYpsyR3b-wAnDT-1" edge="1">
          <mxGeometry width="160" relative="1" as="geometry">
            <mxPoint x="660" y="1854.5" as="sourcePoint" />
            <mxPoint x="600" y="1854.5" as="targetPoint" />
          </mxGeometry>
        </mxCell>
        <mxCell id="5FWCGzmXPQvTkm7JzypJ-4" value="" style="endArrow=diamondThin;endFill=0;endSize=24;html=1;rounded=0;dashed=1;" parent="1" edge="1">
          <mxGeometry width="160" relative="1" as="geometry">
            <mxPoint x="430" y="1730" as="sourcePoint" />
            <mxPoint x="430" y="1760" as="targetPoint" />
          </mxGeometry>
        </mxCell>
        <mxCell id="CH2Lubf8vojLBxBNQoqe-1" value="" style="endArrow=diamondThin;endFill=0;endSize=24;html=1;rounded=0;exitX=0.37;exitY=0.007;exitDx=0;exitDy=0;exitPerimeter=0;dashed=1;" parent="1" source="9Js_kMUWU7n8-kJU8uaQ-1" edge="1">
          <mxGeometry width="160" relative="1" as="geometry">
            <mxPoint x="430" y="2040" as="sourcePoint" />
            <mxPoint x="430" y="2000" as="targetPoint" />
          </mxGeometry>
        </mxCell>
        <mxCell id="RaLK1enaj3Zzg-Ck94DD-1" value="&lt;p style=&quot;margin:0px;margin-top:4px;text-align:center;&quot;&gt;&lt;b style=&quot;border-color: var(--border-color);&quot;&gt;Авторизация&lt;/b&gt;&lt;br&gt;&lt;/p&gt;&lt;hr size=&quot;1&quot;&gt;&lt;p style=&quot;margin:0px;margin-left:4px;&quot;&gt;+ Изображение в виде иконки авторизации&lt;/p&gt;&lt;p style=&quot;margin:0px;margin-left:4px;&quot;&gt;+ Текстовое поле &quot;Войти как:&quot;&lt;br&gt;&lt;/p&gt;&lt;p style=&quot;margin:0px;margin-left:4px;&quot;&gt;+ Текстовое поле &quot;Студент&quot;&lt;/p&gt;&lt;p style=&quot;margin:0px;margin-left:4px;&quot;&gt;+ Радиокнопка&lt;/p&gt;&lt;p style=&quot;border-color: var(--border-color); margin: 0px 0px 0px 4px;&quot;&gt;+ Текстовое поле &quot;Ответственный за мероприятие&quot;&lt;/p&gt;&lt;p style=&quot;border-color: var(--border-color); margin: 0px 0px 0px 4px;&quot;&gt;+ Радиокнопка&lt;/p&gt;&lt;hr size=&quot;1&quot;&gt;&lt;p style=&quot;margin:0px;margin-left:4px;&quot;&gt;+ Авторизация в качестве студента&lt;/p&gt;&lt;p style=&quot;margin:0px;margin-left:4px;&quot;&gt;+ Авторизация в качестве ответственного за мероприятие&lt;/p&gt;" style="verticalAlign=top;align=left;overflow=fill;fontSize=12;fontFamily=Helvetica;html=1;whiteSpace=wrap;" parent="1" vertex="1">
          <mxGeometry x="991" y="1755" width="260" height="194" as="geometry" />
        </mxCell>
        <mxCell id="RaLK1enaj3Zzg-Ck94DD-2" value="" style="endArrow=diamondThin;endFill=0;endSize=24;html=1;rounded=0;dashed=1;exitX=-0.002;exitY=0.364;exitDx=0;exitDy=0;exitPerimeter=0;entryX=1.004;entryY=0.303;entryDx=0;entryDy=0;entryPerimeter=0;" parent="1" source="RaLK1enaj3Zzg-Ck94DD-1" edge="1">
          <mxGeometry width="160" relative="1" as="geometry">
            <mxPoint x="1010" y="1835" as="sourcePoint" />
            <mxPoint x="931" y="1825" as="targetPoint" />
          </mxGeometry>
        </mxCell>
        <mxCell id="RaLK1enaj3Zzg-Ck94DD-4" value="" style="endArrow=diamondThin;endFill=0;endSize=24;html=1;rounded=0;entryX=0.65;entryY=-0.002;entryDx=0;entryDy=0;dashed=1;exitX=0.537;exitY=1.004;exitDx=0;exitDy=0;entryPerimeter=0;exitPerimeter=0;" parent="1" source="eVMxFfnYpsyR3b-wAnDT-2" target="RaLK1enaj3Zzg-Ck94DD-1" edge="1">
          <mxGeometry width="160" relative="1" as="geometry">
            <mxPoint x="1121" y="1750" as="sourcePoint" />
            <mxPoint x="1121" y="1690" as="targetPoint" />
          </mxGeometry>
        </mxCell>
        <mxCell id="HPxED7wd_YvW2txdsInV-1" value="&lt;p style=&quot;margin:0px;margin-top:4px;text-align:center;&quot;&gt;&lt;b style=&quot;border-color: var(--border-color);&quot;&gt;Результат сканера&lt;/b&gt;&lt;br&gt;&lt;/p&gt;&lt;hr size=&quot;1&quot;&gt;&lt;p style=&quot;margin:0px;margin-left:4px;&quot;&gt;+ Текстовое поле &quot;&lt;span style=&quot;border-color: var(--border-color); text-align: center;&quot;&gt;Результат сканера&lt;/span&gt;&quot; для верхнего меню основного экрана&lt;br&gt;&lt;/p&gt;&lt;p style=&quot;margin:0px;margin-left:4px;&quot;&gt;+ Кнопка возврата в предыдущее окно&lt;br&gt;&lt;/p&gt;&lt;p style=&quot;margin:0px;margin-left:4px;&quot;&gt;+ Изображение пользователя&lt;br&gt;&lt;/p&gt;&lt;p style=&quot;margin:0px;margin-left:4px;&quot;&gt;+ Текстовое поле ФИО студента&lt;/p&gt;&lt;p style=&quot;margin:0px;margin-left:4px;&quot;&gt;+ Кнопка &quot;Подтвердить присутствие&quot;&lt;/p&gt;&lt;hr size=&quot;1&quot;&gt;&lt;p style=&quot;margin:0px;margin-left:4px;&quot;&gt;+ Возврат в предыдущее окно&lt;br&gt;&lt;/p&gt;&lt;p style=&quot;margin:0px;margin-left:4px;&quot;&gt;&lt;span style=&quot;background-color: initial;&quot;&gt;+ Подтверждение присутствия&lt;/span&gt;&lt;/p&gt;" style="verticalAlign=top;align=left;overflow=fill;fontSize=12;fontFamily=Helvetica;html=1;whiteSpace=wrap;" parent="1" vertex="1">
          <mxGeometry x="307" y="1180" width="270" height="160" as="geometry" />
        </mxCell>
        <mxCell id="HPxED7wd_YvW2txdsInV-2" value="&lt;p style=&quot;margin:0px;margin-top:4px;text-align:center;&quot;&gt;&lt;b style=&quot;border-color: var(--border-color);&quot;&gt;Сканер QR-кода&lt;/b&gt;&lt;br&gt;&lt;/p&gt;&lt;hr size=&quot;1&quot;&gt;&lt;p style=&quot;margin:0px;margin-left:4px;&quot;&gt;+ Текстовое поле &quot;&lt;span style=&quot;border-color: var(--border-color); text-align: center;&quot;&gt;Сканер QR-кода&lt;/span&gt;&quot; для верхнего меню основного экрана&lt;br&gt;&lt;/p&gt;&lt;p style=&quot;margin:0px;margin-left:4px;&quot;&gt;+ Кнопка возврата в предыдущее окно&lt;br&gt;&lt;/p&gt;&lt;p style=&quot;margin:0px;margin-left:4px;&quot;&gt;+ Текстовое поле &quot;QR-код должен находиться в рамке для сканирования&quot;&lt;/p&gt;&lt;p style=&quot;margin:0px;margin-left:4px;&quot;&gt;+ Объект сканера QR-кодов&lt;/p&gt;&lt;hr size=&quot;1&quot;&gt;&lt;p style=&quot;margin:0px;margin-left:4px;&quot;&gt;&lt;span style=&quot;background-color: initial;&quot;&gt;+ Возврат в предыдущее окно&lt;/span&gt;&lt;br&gt;&lt;/p&gt;&lt;p style=&quot;margin:0px;margin-left:4px;&quot;&gt;&lt;span style=&quot;background-color: initial;&quot;&gt;+ Сканирование QR-кода&lt;/span&gt;&lt;/p&gt;" style="verticalAlign=top;align=left;overflow=fill;fontSize=12;fontFamily=Helvetica;html=1;whiteSpace=wrap;" parent="1" vertex="1">
          <mxGeometry x="307" y="1380" width="270" height="170" as="geometry" />
        </mxCell>
      </root>
    </mxGraphModel>
  </diagram>
  <diagram id="FAl6WfAmjuXmSW1GVLMF" name="Страница 3">
    <mxGraphModel dx="1876" dy="580" grid="1" gridSize="10" guides="1" tooltips="1" connect="1" arrows="1" fold="1" page="1" pageScale="1" pageWidth="827" pageHeight="1169" math="0" shadow="0">
      <root>
        <mxCell id="0" />
        <mxCell id="1" parent="0" />
        <mxCell id="Nw6q2vx1EIV5gCTwcQck-1" value="&lt;p style=&quot;margin:0px;margin-top:4px;text-align:center;&quot;&gt;&lt;b&gt;Мероприятия&lt;/b&gt;&lt;/p&gt;&lt;hr size=&quot;1&quot;&gt;&lt;p style=&quot;margin:0px;margin-left:4px;&quot;&gt;&lt;/p&gt;&lt;br&gt;&lt;hr size=&quot;1&quot;&gt;&lt;p style=&quot;margin:0px;margin-left:4px;&quot;&gt;+ Выбор карточки мероприятия&lt;/p&gt;&lt;p style=&quot;margin:0px;margin-left:4px;&quot;&gt;+ Регистрация на мероприятие&lt;/p&gt;&lt;p style=&quot;margin:0px;margin-left:4px;&quot;&gt;+ Поиск мероприятия по названию&lt;/p&gt;&lt;p style=&quot;margin:0px;margin-left:4px;&quot;&gt;+ Фильтрация мероприятий по типу&lt;/p&gt;" style="verticalAlign=top;align=left;overflow=fill;fontSize=12;fontFamily=Helvetica;html=1;whiteSpace=wrap;fillColor=#d5e8d4;strokeColor=#82b366;" parent="1" vertex="1">
          <mxGeometry x="264" y="330" width="340" height="119" as="geometry" />
        </mxCell>
        <mxCell id="Nw6q2vx1EIV5gCTwcQck-2" value="&lt;p style=&quot;margin:0px;margin-top:4px;text-align:center;&quot;&gt;&lt;b&gt;Мои мероприятия&lt;/b&gt;&lt;/p&gt;&lt;hr size=&quot;1&quot;&gt;&lt;p style=&quot;border-color: var(--border-color); margin: 0px 0px 0px 4px;&quot;&gt;&lt;br&gt;&lt;/p&gt;&lt;hr size=&quot;1&quot;&gt;&lt;p style=&quot;margin:0px;margin-left:4px;&quot;&gt;+ Выбор карточки мероприятия&lt;br&gt;&lt;/p&gt;&lt;p style=&quot;margin:0px;margin-left:4px;&quot;&gt;+ Поиск мероприятия по названию&lt;br&gt;&lt;/p&gt;&lt;p style=&quot;margin:0px;margin-left:4px;&quot;&gt;&lt;br&gt;&lt;/p&gt;&lt;p style=&quot;border-color: var(--border-color); margin: 0px 0px 0px 4px;&quot;&gt;&lt;br&gt;&lt;/p&gt;" style="verticalAlign=top;align=left;overflow=fill;fontSize=12;fontFamily=Helvetica;html=1;whiteSpace=wrap;fillColor=#d5e8d4;strokeColor=#82b366;" parent="1" vertex="1">
          <mxGeometry x="253" y="570" width="310" height="100" as="geometry" />
        </mxCell>
        <mxCell id="Nw6q2vx1EIV5gCTwcQck-3" value="&lt;p style=&quot;margin:0px;margin-top:4px;text-align:center;&quot;&gt;&lt;b&gt;Профиль (без авторизации)&lt;/b&gt;&lt;/p&gt;&lt;hr size=&quot;1&quot;&gt;&lt;p style=&quot;margin:0px;margin-left:4px;&quot;&gt;&lt;br&gt;&lt;/p&gt;&lt;hr size=&quot;1&quot;&gt;&lt;p style=&quot;margin:0px;margin-left:4px;&quot;&gt;+ Авторизация в системе с помощью имени пользователя и пароля&lt;/p&gt;&lt;p style=&quot;margin:0px;margin-left:4px;&quot;&gt;+ Авторизация в системе с помощью аккаунта личного кабинета&lt;/p&gt;" style="verticalAlign=top;align=left;overflow=fill;fontSize=12;fontFamily=Helvetica;html=1;whiteSpace=wrap;fillColor=#d5e8d4;strokeColor=#82b366;" parent="1" vertex="1">
          <mxGeometry x="1073" y="566" width="260" height="124" as="geometry" />
        </mxCell>
        <mxCell id="Nw6q2vx1EIV5gCTwcQck-4" value="&lt;p style=&quot;margin:0px;margin-top:4px;text-align:center;&quot;&gt;&lt;b&gt;Настройки&lt;/b&gt;&lt;/p&gt;&lt;hr size=&quot;1&quot;&gt;&lt;p style=&quot;margin:0px;margin-left:4px;&quot;&gt;&lt;br&gt;&lt;/p&gt;&lt;hr size=&quot;1&quot;&gt;&lt;p style=&quot;margin:0px;margin-left:4px;&quot;&gt;+ Изменение графической темы приложения&lt;/p&gt;&lt;p style=&quot;margin:0px;margin-left:4px;&quot;&gt;+ Изменение языка приложения&amp;nbsp;&lt;/p&gt;&lt;p style=&quot;margin:0px;margin-left:4px;&quot;&gt;+ Возврат в предыдущее окно&lt;/p&gt;" style="verticalAlign=top;align=left;overflow=fill;fontSize=12;fontFamily=Helvetica;html=1;whiteSpace=wrap;fillColor=#d5e8d4;strokeColor=#82b366;" parent="1" vertex="1">
          <mxGeometry x="713" y="406" width="270" height="106" as="geometry" />
        </mxCell>
        <mxCell id="Nw6q2vx1EIV5gCTwcQck-5" value="&lt;p style=&quot;margin:0px;margin-top:4px;text-align:center;&quot;&gt;&lt;b&gt;Страница мероприятия&lt;/b&gt;&lt;/p&gt;&lt;hr size=&quot;1&quot;&gt;&lt;p style=&quot;margin:0px;margin-left:4px;&quot;&gt;&lt;br&gt;&lt;/p&gt;&lt;hr size=&quot;1&quot;&gt;&lt;p style=&quot;margin:0px;margin-left:4px;&quot;&gt;+ Регистрация на мероприятие&lt;/p&gt;&lt;p style=&quot;margin:0px;margin-left:4px;&quot;&gt;+ Переход на страницу пройденной регистрацией&lt;/p&gt;&lt;p style=&quot;margin:0px;margin-left:4px;&quot;&gt;+ Возврат в предыдущее окно&lt;/p&gt;&lt;p style=&quot;margin:0px;margin-left:4px;&quot;&gt;+ Переход в окно статистики мероприятия&lt;br&gt;&lt;/p&gt;" style="verticalAlign=top;align=left;overflow=fill;fontSize=12;fontFamily=Helvetica;html=1;whiteSpace=wrap;fillColor=#d5e8d4;strokeColor=#82b366;" parent="1" vertex="1">
          <mxGeometry x="-97" y="430" width="260" height="136" as="geometry" />
        </mxCell>
        <mxCell id="Nw6q2vx1EIV5gCTwcQck-6" value="&lt;p style=&quot;margin:0px;margin-top:4px;text-align:center;&quot;&gt;&lt;b&gt;Страница мероприятия с пройденной регистрацией&lt;/b&gt;&lt;/p&gt;&lt;hr size=&quot;1&quot;&gt;&lt;p style=&quot;margin:0px;margin-left:4px;&quot;&gt;&lt;br&gt;&lt;/p&gt;&lt;hr size=&quot;1&quot;&gt;&lt;p style=&quot;margin:0px;margin-left:4px;&quot;&gt;+ Отмена регистрации на мероприятие&lt;/p&gt;&lt;p style=&quot;margin:0px;margin-left:4px;&quot;&gt;+ Переход на страницу мероприятия&lt;/p&gt;&lt;p style=&quot;margin:0px;margin-left:4px;&quot;&gt;+ Сохранение данных в pdf-файл&lt;/p&gt;&lt;p style=&quot;margin:0px;margin-left:4px;&quot;&gt;+ Отправка pdf-файла&lt;/p&gt;&lt;p style=&quot;margin:0px;margin-left:4px;&quot;&gt;+ Сохранение данных о мероприятии в календаре&lt;/p&gt;&lt;p style=&quot;margin:0px;margin-left:4px;&quot;&gt;+ Возврат в предыдущее окно&lt;br&gt;&lt;/p&gt;&lt;p style=&quot;margin:0px;margin-left:4px;&quot;&gt;+ Увеличение QR-кода&lt;br&gt;&lt;/p&gt;" style="verticalAlign=top;align=left;overflow=fill;fontSize=12;fontFamily=Helvetica;html=1;whiteSpace=wrap;" parent="1" vertex="1">
          <mxGeometry x="-112" y="600" width="290" height="194" as="geometry" />
        </mxCell>
        <mxCell id="Nw6q2vx1EIV5gCTwcQck-7" value="&lt;p style=&quot;margin:0px;margin-top:4px;text-align:center;&quot;&gt;&lt;b&gt;Основной экран приложения&lt;/b&gt;&lt;/p&gt;&lt;hr size=&quot;1&quot;&gt;&lt;p style=&quot;border-color: var(--border-color); margin: 0px 0px 0px 4px;&quot;&gt;&lt;br&gt;&lt;/p&gt;&lt;hr size=&quot;1&quot;&gt;&lt;p style=&quot;margin:0px;margin-left:4px;&quot;&gt;&lt;span style=&quot;background-color: initial;&quot;&gt;+ Переход в меню настроек&lt;/span&gt;&lt;br&gt;&lt;/p&gt;&lt;p style=&quot;border-color: var(--border-color); margin: 0px 0px 0px 4px;&quot;&gt;+ Переход в окно &quot;Профиль&quot;&lt;/p&gt;&lt;p style=&quot;border-color: var(--border-color); margin: 0px 0px 0px 4px;&quot;&gt;+ Переход в окно &quot;Мероприятия&quot;&lt;/p&gt;&lt;p style=&quot;border-color: var(--border-color); margin: 0px 0px 0px 4px;&quot;&gt;+ Переход в окно &quot;Мои мероприятия&quot;&lt;br&gt;&lt;/p&gt;&lt;p style=&quot;border-color: var(--border-color); margin: 0px 0px 0px 4px;&quot;&gt;+ Переход в окно &quot;Присутствие&quot;&lt;br&gt;&lt;/p&gt;" style="verticalAlign=top;align=left;overflow=fill;fontSize=12;fontFamily=Helvetica;html=1;whiteSpace=wrap;fillColor=#d5e8d4;strokeColor=#82b366;" parent="1" vertex="1">
          <mxGeometry x="683" y="551" width="310" height="134" as="geometry" />
        </mxCell>
        <mxCell id="Nw6q2vx1EIV5gCTwcQck-8" value="&lt;p style=&quot;margin:0px;margin-top:4px;text-align:center;&quot;&gt;&lt;b style=&quot;border-color: var(--border-color);&quot;&gt;Профиль (авторизованный)&lt;/b&gt;&lt;br&gt;&lt;/p&gt;&lt;hr size=&quot;1&quot;&gt;&lt;p style=&quot;margin:0px;margin-left:4px;&quot;&gt;&lt;br&gt;&lt;/p&gt;&lt;hr size=&quot;1&quot;&gt;&lt;p style=&quot;margin:0px;margin-left:4px;&quot;&gt;+ Выход из аккаунта пользователя&lt;/p&gt;" style="verticalAlign=top;align=left;overflow=fill;fontSize=12;fontFamily=Helvetica;html=1;whiteSpace=wrap;fillColor=#d5e8d4;strokeColor=#82b366;" parent="1" vertex="1">
          <mxGeometry x="1394" y="420" width="260" height="81" as="geometry" />
        </mxCell>
        <mxCell id="Nw6q2vx1EIV5gCTwcQck-9" value="" style="endArrow=diamondThin;endFill=0;endSize=24;html=1;rounded=0;entryX=0.009;entryY=0.412;entryDx=0;entryDy=0;entryPerimeter=0;exitX=1.003;exitY=0.352;exitDx=0;exitDy=0;exitPerimeter=0;dashed=1;" parent="1" source="Nw6q2vx1EIV5gCTwcQck-2" target="Nw6q2vx1EIV5gCTwcQck-7" edge="1">
          <mxGeometry width="160" relative="1" as="geometry">
            <mxPoint x="563" y="690" as="sourcePoint" />
            <mxPoint x="633" y="756" as="targetPoint" />
          </mxGeometry>
        </mxCell>
        <mxCell id="Nw6q2vx1EIV5gCTwcQck-10" value="" style="endArrow=diamondThin;endFill=0;endSize=24;html=1;rounded=0;exitX=1;exitY=0.5;exitDx=0;exitDy=0;entryX=0;entryY=0.194;entryDx=0;entryDy=0;entryPerimeter=0;dashed=1;" parent="1" source="Nw6q2vx1EIV5gCTwcQck-1" target="Nw6q2vx1EIV5gCTwcQck-7" edge="1">
          <mxGeometry width="160" relative="1" as="geometry">
            <mxPoint x="593" y="415.5" as="sourcePoint" />
            <mxPoint x="653" y="656" as="targetPoint" />
            <Array as="points">
              <mxPoint x="654" y="390" />
              <mxPoint x="654" y="580" />
            </Array>
          </mxGeometry>
        </mxCell>
        <mxCell id="Nw6q2vx1EIV5gCTwcQck-11" value="" style="endArrow=diamondThin;endFill=0;endSize=24;html=1;rounded=0;dashed=1;" parent="1" edge="1">
          <mxGeometry width="160" relative="1" as="geometry">
            <mxPoint x="1073" y="627" as="sourcePoint" />
            <mxPoint x="993" y="627" as="targetPoint" />
          </mxGeometry>
        </mxCell>
        <mxCell id="Nw6q2vx1EIV5gCTwcQck-12" value="" style="endArrow=diamondThin;endFill=0;endSize=24;html=1;rounded=0;exitX=0.477;exitY=1.002;exitDx=0;exitDy=0;exitPerimeter=0;entryX=0.517;entryY=-0.015;entryDx=0;entryDy=0;entryPerimeter=0;dashed=1;" parent="1" source="Nw6q2vx1EIV5gCTwcQck-4" target="Nw6q2vx1EIV5gCTwcQck-7" edge="1">
          <mxGeometry width="160" relative="1" as="geometry">
            <mxPoint x="843" y="476" as="sourcePoint" />
            <mxPoint x="1003" y="476" as="targetPoint" />
          </mxGeometry>
        </mxCell>
        <mxCell id="Nw6q2vx1EIV5gCTwcQck-13" value="" style="endArrow=diamondThin;endFill=0;endSize=24;html=1;rounded=0;entryX=0;entryY=0.5;entryDx=0;entryDy=0;dashed=1;exitX=0.892;exitY=-0.012;exitDx=0;exitDy=0;exitPerimeter=0;" parent="1" source="Nw6q2vx1EIV5gCTwcQck-5" target="Nw6q2vx1EIV5gCTwcQck-1" edge="1">
          <mxGeometry width="160" relative="1" as="geometry">
            <mxPoint x="164" y="211" as="sourcePoint" />
            <mxPoint x="393" y="216" as="targetPoint" />
            <Array as="points">
              <mxPoint x="134" y="390" />
            </Array>
          </mxGeometry>
        </mxCell>
        <mxCell id="Nw6q2vx1EIV5gCTwcQck-14" value="" style="endArrow=diamondThin;endFill=0;endSize=24;html=1;rounded=0;exitX=0.999;exitY=0.19;exitDx=0;exitDy=0;exitPerimeter=0;entryX=-0.001;entryY=0.665;entryDx=0;entryDy=0;entryPerimeter=0;dashed=1;" parent="1" source="Nw6q2vx1EIV5gCTwcQck-6" target="Nw6q2vx1EIV5gCTwcQck-2" edge="1">
          <mxGeometry width="160" relative="1" as="geometry">
            <mxPoint x="183" y="706" as="sourcePoint" />
            <mxPoint x="253" y="706" as="targetPoint" />
          </mxGeometry>
        </mxCell>
        <mxCell id="Nw6q2vx1EIV5gCTwcQck-17" value="" style="endArrow=diamondThin;endFill=0;endSize=24;html=1;rounded=0;exitX=-0.01;exitY=0.15;exitDx=0;exitDy=0;exitPerimeter=0;entryX=1;entryY=0.475;entryDx=0;entryDy=0;entryPerimeter=0;dashed=1;" parent="1" source="Nw6q2vx1EIV5gCTwcQck-30" target="Nw6q2vx1EIV5gCTwcQck-6" edge="1">
          <mxGeometry width="160" relative="1" as="geometry">
            <mxPoint x="252.48000000000025" y="822.7520000000002" as="sourcePoint" />
            <mxPoint x="178" y="916" as="targetPoint" />
          </mxGeometry>
        </mxCell>
        <mxCell id="Nw6q2vx1EIV5gCTwcQck-18" value="&lt;p style=&quot;margin:0px;margin-top:4px;text-align:center;&quot;&gt;&lt;b style=&quot;border-color: var(--border-color);&quot;&gt;Выход&lt;/b&gt;&lt;br&gt;&lt;/p&gt;&lt;hr size=&quot;1&quot;&gt;&lt;p style=&quot;margin:0px;margin-left:4px;&quot;&gt;&lt;br&gt;&lt;/p&gt;&lt;hr size=&quot;1&quot;&gt;&lt;p style=&quot;margin:0px;margin-left:4px;&quot;&gt;+ Выход из аккаунта пользователя&lt;br&gt;&lt;/p&gt;&lt;p style=&quot;margin:0px;margin-left:4px;&quot;&gt;+ Отмена выхода из аккаунта пользователя&lt;/p&gt;" style="verticalAlign=top;align=left;overflow=fill;fontSize=12;fontFamily=Helvetica;html=1;whiteSpace=wrap;fillColor=#d5e8d4;strokeColor=#82b366;" parent="1" vertex="1">
          <mxGeometry x="1073" y="413.5" width="260" height="91" as="geometry" />
        </mxCell>
        <mxCell id="Nw6q2vx1EIV5gCTwcQck-19" value="" style="endArrow=diamondThin;endFill=0;endSize=24;html=1;rounded=0;exitX=1;exitY=0.5;exitDx=0;exitDy=0;entryX=0;entryY=0.5;entryDx=0;entryDy=0;dashed=1;" parent="1" source="Nw6q2vx1EIV5gCTwcQck-18" target="Nw6q2vx1EIV5gCTwcQck-8" edge="1">
          <mxGeometry width="160" relative="1" as="geometry">
            <mxPoint x="1698" y="405.64" as="sourcePoint" />
            <mxPoint x="1654" y="405.64" as="targetPoint" />
          </mxGeometry>
        </mxCell>
        <mxCell id="Nw6q2vx1EIV5gCTwcQck-20" value="&lt;p style=&quot;margin:0px;margin-top:4px;text-align:center;&quot;&gt;&lt;b style=&quot;border-color: var(--border-color);&quot;&gt;Смена языка&lt;/b&gt;&lt;br&gt;&lt;/p&gt;&lt;hr size=&quot;1&quot;&gt;&lt;p style=&quot;margin:0px;margin-left:4px;&quot;&gt;&lt;br&gt;&lt;/p&gt;&lt;hr size=&quot;1&quot;&gt;&lt;p style=&quot;margin:0px;margin-left:4px;&quot;&gt;+ Смена языка приложения&lt;/p&gt;" style="verticalAlign=top;align=left;overflow=fill;fontSize=12;fontFamily=Helvetica;html=1;whiteSpace=wrap;fillColor=#d5e8d4;strokeColor=#82b366;" parent="1" vertex="1">
          <mxGeometry x="718" y="280" width="260" height="74" as="geometry" />
        </mxCell>
        <mxCell id="Nw6q2vx1EIV5gCTwcQck-21" value="" style="endArrow=diamondThin;endFill=0;endSize=24;html=1;rounded=0;exitX=0.477;exitY=1.002;exitDx=0;exitDy=0;exitPerimeter=0;dashed=1;" parent="1" edge="1">
          <mxGeometry width="160" relative="1" as="geometry">
            <mxPoint x="837.25" y="356" as="sourcePoint" />
            <mxPoint x="838.75" y="406" as="targetPoint" />
          </mxGeometry>
        </mxCell>
        <mxCell id="Nw6q2vx1EIV5gCTwcQck-23" value="" style="endArrow=diamondThin;endFill=0;endSize=24;html=1;rounded=0;exitX=-0.002;exitY=0.418;exitDx=0;exitDy=0;exitPerimeter=0;entryX=1;entryY=0.475;entryDx=0;entryDy=0;entryPerimeter=0;dashed=1;" parent="1" edge="1">
          <mxGeometry width="160" relative="1" as="geometry">
            <mxPoint x="252" y="790" as="sourcePoint" />
            <mxPoint x="178" y="790" as="targetPoint" />
          </mxGeometry>
        </mxCell>
        <mxCell id="Nw6q2vx1EIV5gCTwcQck-24" value="&lt;p style=&quot;margin:0px;margin-top:4px;text-align:center;&quot;&gt;&lt;b style=&quot;border-color: var(--border-color);&quot;&gt;Авторизация&lt;/b&gt;&lt;br&gt;&lt;/p&gt;&lt;hr size=&quot;1&quot;&gt;&lt;p style=&quot;margin:0px;margin-left:4px;&quot;&gt;&lt;br&gt;&lt;/p&gt;&lt;hr size=&quot;1&quot;&gt;&lt;p style=&quot;margin:0px;margin-left:4px;&quot;&gt;+ Авторизация в качестве студента&lt;/p&gt;&lt;p style=&quot;margin:0px;margin-left:4px;&quot;&gt;+ Авторизация в качестве ответственного за мероприятие&lt;/p&gt;" style="verticalAlign=top;align=left;overflow=fill;fontSize=12;fontFamily=Helvetica;html=1;whiteSpace=wrap;fillColor=#d5e8d4;strokeColor=#82b366;" parent="1" vertex="1">
          <mxGeometry x="1394" y="566" width="260" height="104" as="geometry" />
        </mxCell>
        <mxCell id="Nw6q2vx1EIV5gCTwcQck-25" value="" style="endArrow=diamondThin;endFill=0;endSize=24;html=1;rounded=0;dashed=1;exitX=-0.002;exitY=0.364;exitDx=0;exitDy=0;exitPerimeter=0;entryX=1.004;entryY=0.303;entryDx=0;entryDy=0;entryPerimeter=0;" parent="1" source="Nw6q2vx1EIV5gCTwcQck-24" target="Nw6q2vx1EIV5gCTwcQck-3" edge="1">
          <mxGeometry width="160" relative="1" as="geometry">
            <mxPoint x="1413" y="646" as="sourcePoint" />
            <mxPoint x="1333" y="646" as="targetPoint" />
          </mxGeometry>
        </mxCell>
        <mxCell id="Nw6q2vx1EIV5gCTwcQck-26" value="" style="endArrow=diamondThin;endFill=0;endSize=24;html=1;rounded=0;entryX=0.5;entryY=0;entryDx=0;entryDy=0;dashed=1;exitX=0.5;exitY=1;exitDx=0;exitDy=0;" parent="1" source="Nw6q2vx1EIV5gCTwcQck-8" target="Nw6q2vx1EIV5gCTwcQck-24" edge="1">
          <mxGeometry width="160" relative="1" as="geometry">
            <mxPoint x="1554" y="530" as="sourcePoint" />
            <mxPoint x="1684" y="586" as="targetPoint" />
          </mxGeometry>
        </mxCell>
        <mxCell id="Nw6q2vx1EIV5gCTwcQck-27" value="&lt;p style=&quot;margin:0px;margin-top:4px;text-align:center;&quot;&gt;&lt;b style=&quot;border-color: var(--border-color);&quot;&gt;Регистрация на мероприятие&lt;/b&gt;&lt;br&gt;&lt;/p&gt;&lt;hr size=&quot;1&quot;&gt;&lt;p style=&quot;margin:0px;margin-left:4px;&quot;&gt;&lt;br&gt;&lt;/p&gt;&lt;hr size=&quot;1&quot;&gt;&lt;p style=&quot;margin:0px;margin-left:4px;&quot;&gt;+ Регистрация на мероприятие&lt;/p&gt;" style="verticalAlign=top;align=left;overflow=fill;fontSize=12;fontFamily=Helvetica;html=1;whiteSpace=wrap;" parent="1" vertex="1">
          <mxGeometry x="293" y="480" width="260" height="80" as="geometry" />
        </mxCell>
        <mxCell id="Nw6q2vx1EIV5gCTwcQck-28" value="" style="endArrow=diamondThin;endFill=0;endSize=24;html=1;rounded=0;dashed=1;exitX=0.541;exitY=-0.002;exitDx=0;exitDy=0;exitPerimeter=0;" parent="1" source="Nw6q2vx1EIV5gCTwcQck-27" edge="1">
          <mxGeometry width="160" relative="1" as="geometry">
            <mxPoint x="434" y="536" as="sourcePoint" />
            <mxPoint x="433.52" y="446" as="targetPoint" />
            <Array as="points" />
          </mxGeometry>
        </mxCell>
        <mxCell id="Nw6q2vx1EIV5gCTwcQck-29" value="" style="endArrow=diamondThin;endFill=0;endSize=24;html=1;rounded=0;dashed=1;entryX=1;entryY=0.5;entryDx=0;entryDy=0;" parent="1" target="Nw6q2vx1EIV5gCTwcQck-5" edge="1">
          <mxGeometry width="160" relative="1" as="geometry">
            <mxPoint x="290" y="498" as="sourcePoint" />
            <mxPoint x="234" y="510" as="targetPoint" />
          </mxGeometry>
        </mxCell>
        <mxCell id="Nw6q2vx1EIV5gCTwcQck-30" value="&lt;p style=&quot;margin:0px;margin-top:4px;text-align:center;&quot;&gt;&lt;b style=&quot;border-color: var(--border-color);&quot;&gt;Страница QR-кода&lt;/b&gt;&lt;br&gt;&lt;/p&gt;&lt;hr size=&quot;1&quot;&gt;&lt;p style=&quot;margin:0px;margin-left:4px;&quot;&gt;&lt;br&gt;&lt;/p&gt;&lt;hr size=&quot;1&quot;&gt;&lt;p style=&quot;margin:0px;margin-left:4px;&quot;&gt;+ Возврат в предыдущее окно&lt;br&gt;&lt;/p&gt;" style="verticalAlign=top;align=left;overflow=fill;fontSize=12;fontFamily=Helvetica;html=1;whiteSpace=wrap;" parent="1" vertex="1">
          <mxGeometry x="253" y="680" width="260" height="77.5" as="geometry" />
        </mxCell>
        <mxCell id="Nw6q2vx1EIV5gCTwcQck-31" value="&lt;p style=&quot;margin:0px;margin-top:4px;text-align:center;&quot;&gt;&lt;b style=&quot;border-color: var(--border-color);&quot;&gt;Отмена регистрации&lt;/b&gt;&lt;br style=&quot;border-color: var(--border-color);&quot;&gt;&lt;/p&gt;&lt;hr size=&quot;1&quot;&gt;&lt;p style=&quot;margin:0px;margin-left:4px;&quot;&gt;&lt;br&gt;&lt;/p&gt;&lt;hr size=&quot;1&quot;&gt;&lt;p style=&quot;margin:0px;margin-left:4px;&quot;&gt;+ Отмена регистрации на мероприятие&lt;br&gt;&lt;/p&gt;" style="verticalAlign=top;align=left;overflow=fill;fontSize=12;fontFamily=Helvetica;html=1;whiteSpace=wrap;" parent="1" vertex="1">
          <mxGeometry x="254" y="770" width="260" height="77.5" as="geometry" />
        </mxCell>
        <mxCell id="x359Qb8HQIfaPwbyVQ0W-1" value="&lt;p style=&quot;margin:0px;margin-top:4px;text-align:center;&quot;&gt;&lt;b&gt;Подтверждение присутствия&lt;/b&gt;&lt;/p&gt;&lt;hr size=&quot;1&quot;&gt;&lt;p style=&quot;border-color: var(--border-color); margin: 0px 0px 0px 4px;&quot;&gt;&lt;br&gt;&lt;/p&gt;&lt;hr size=&quot;1&quot;&gt;&lt;p style=&quot;margin:0px;margin-left:4px;&quot;&gt;+ Выбор карточки мероприятия&lt;br&gt;&lt;/p&gt;&lt;p style=&quot;margin:0px;margin-left:4px;&quot;&gt;+ Поиск мероприятия по названию&lt;br&gt;&lt;/p&gt;&lt;p style=&quot;border-color: var(--border-color); margin: 0px 0px 0px 4px;&quot;&gt;&lt;br&gt;&lt;/p&gt;" style="verticalAlign=top;align=left;overflow=fill;fontSize=12;fontFamily=Helvetica;html=1;whiteSpace=wrap;fillColor=#f8cecc;strokeColor=#b85450;" parent="1" vertex="1">
          <mxGeometry x="683" y="720" width="310" height="90" as="geometry" />
        </mxCell>
        <mxCell id="x359Qb8HQIfaPwbyVQ0W-2" value="&lt;p style=&quot;margin:0px;margin-top:4px;text-align:center;&quot;&gt;&lt;b&gt;Ошибка&lt;/b&gt;&lt;/p&gt;&lt;hr size=&quot;1&quot;&gt;&lt;p style=&quot;margin:0px;margin-left:4px;&quot;&gt;&lt;br&gt;&lt;/p&gt;&lt;hr size=&quot;1&quot;&gt;&lt;p style=&quot;margin:0px;margin-left:4px;&quot;&gt;&lt;br&gt;&lt;/p&gt;" style="verticalAlign=top;align=left;overflow=fill;fontSize=12;fontFamily=Helvetica;html=1;whiteSpace=wrap;fillColor=#f8cecc;strokeColor=#b85450;" parent="1" vertex="1">
          <mxGeometry x="404" y="995" width="260" height="60" as="geometry" />
        </mxCell>
        <mxCell id="x359Qb8HQIfaPwbyVQ0W-3" value="&lt;p style=&quot;margin:0px;margin-top:4px;text-align:center;&quot;&gt;&lt;b&gt;Успех&lt;/b&gt;&lt;/p&gt;&lt;hr size=&quot;1&quot;&gt;&lt;p style=&quot;margin:0px;margin-left:4px;&quot;&gt;&lt;br&gt;&lt;/p&gt;&lt;hr size=&quot;1&quot;&gt;&lt;p style=&quot;margin:0px;margin-left:4px;&quot;&gt;&lt;br&gt;&lt;/p&gt;" style="verticalAlign=top;align=left;overflow=fill;fontSize=12;fontFamily=Helvetica;html=1;whiteSpace=wrap;fillColor=#f8cecc;strokeColor=#b85450;" parent="1" vertex="1">
          <mxGeometry x="1004" y="1000" width="260" height="60" as="geometry" />
        </mxCell>
        <mxCell id="x359Qb8HQIfaPwbyVQ0W-4" value="&lt;p style=&quot;margin:0px;margin-top:4px;text-align:center;&quot;&gt;&lt;b style=&quot;border-color: var(--border-color);&quot;&gt;Результат сканера&lt;/b&gt;&lt;br&gt;&lt;/p&gt;&lt;hr size=&quot;1&quot;&gt;&lt;p style=&quot;margin:0px;margin-left:4px;&quot;&gt;&lt;br&gt;&lt;/p&gt;&lt;hr size=&quot;1&quot;&gt;&lt;p style=&quot;margin:0px;margin-left:4px;&quot;&gt;+ Возврат в предыдущее окно&lt;br&gt;&lt;/p&gt;&lt;p style=&quot;margin:0px;margin-left:4px;&quot;&gt;&lt;span style=&quot;background-color: initial;&quot;&gt;+ Подтверждение присутствия&lt;/span&gt;&lt;/p&gt;" style="verticalAlign=top;align=left;overflow=fill;fontSize=12;fontFamily=Helvetica;html=1;whiteSpace=wrap;fillColor=#f8cecc;strokeColor=#b85450;" parent="1" vertex="1">
          <mxGeometry x="703" y="980" width="270" height="90" as="geometry" />
        </mxCell>
        <mxCell id="x359Qb8HQIfaPwbyVQ0W-5" value="&lt;p style=&quot;margin:0px;margin-top:4px;text-align:center;&quot;&gt;&lt;b style=&quot;border-color: var(--border-color);&quot;&gt;Сканер QR-кода&lt;/b&gt;&lt;br&gt;&lt;/p&gt;&lt;hr size=&quot;1&quot;&gt;&lt;p style=&quot;margin:0px;margin-left:4px;&quot;&gt;&lt;br&gt;&lt;/p&gt;&lt;hr size=&quot;1&quot;&gt;&lt;p style=&quot;margin:0px;margin-left:4px;&quot;&gt;&lt;span style=&quot;background-color: initial;&quot;&gt;+ Возврат в предыдущее окно&lt;/span&gt;&lt;br&gt;&lt;/p&gt;&lt;p style=&quot;margin:0px;margin-left:4px;&quot;&gt;&lt;span style=&quot;background-color: initial;&quot;&gt;+ Сканирование QR-кода&lt;/span&gt;&lt;/p&gt;" style="verticalAlign=top;align=left;overflow=fill;fontSize=12;fontFamily=Helvetica;html=1;whiteSpace=wrap;fillColor=#f8cecc;strokeColor=#b85450;" parent="1" vertex="1">
          <mxGeometry x="703" y="847.5" width="270" height="90" as="geometry" />
        </mxCell>
        <mxCell id="-yCslmToKLjx41f2__bT-1" value="" style="endArrow=diamondThin;endFill=0;endSize=24;html=1;rounded=0;dashed=1;entryX=0.5;entryY=1;entryDx=0;entryDy=0;exitX=0.5;exitY=0;exitDx=0;exitDy=0;" parent="1" source="x359Qb8HQIfaPwbyVQ0W-1" target="Nw6q2vx1EIV5gCTwcQck-7" edge="1">
          <mxGeometry width="160" relative="1" as="geometry">
            <mxPoint x="934" y="696.41" as="sourcePoint" />
            <mxPoint x="854" y="696.41" as="targetPoint" />
          </mxGeometry>
        </mxCell>
        <mxCell id="-yCslmToKLjx41f2__bT-2" value="" style="endArrow=diamondThin;endFill=0;endSize=24;html=1;rounded=0;dashed=1;entryX=0.5;entryY=1;entryDx=0;entryDy=0;exitX=0.5;exitY=0;exitDx=0;exitDy=0;" parent="1" edge="1">
          <mxGeometry width="160" relative="1" as="geometry">
            <mxPoint x="836.5799999999999" y="845" as="sourcePoint" />
            <mxPoint x="836.5799999999999" y="810" as="targetPoint" />
          </mxGeometry>
        </mxCell>
        <mxCell id="-yCslmToKLjx41f2__bT-3" value="" style="endArrow=diamondThin;endFill=0;endSize=24;html=1;rounded=0;dashed=1;entryX=0.5;entryY=1;entryDx=0;entryDy=0;exitX=0.498;exitY=-0.018;exitDx=0;exitDy=0;exitPerimeter=0;" parent="1" source="x359Qb8HQIfaPwbyVQ0W-4" edge="1">
          <mxGeometry width="160" relative="1" as="geometry">
            <mxPoint x="837.5799999999999" y="972.5" as="sourcePoint" />
            <mxPoint x="837.5799999999999" y="937.5" as="targetPoint" />
          </mxGeometry>
        </mxCell>
        <mxCell id="-yCslmToKLjx41f2__bT-4" value="" style="endArrow=diamondThin;endFill=0;endSize=24;html=1;rounded=0;dashed=1;entryX=-0.001;entryY=0.565;entryDx=0;entryDy=0;entryPerimeter=0;" parent="1" target="x359Qb8HQIfaPwbyVQ0W-4" edge="1">
          <mxGeometry width="160" relative="1" as="geometry">
            <mxPoint x="664" y="1030" as="sourcePoint" />
            <mxPoint x="682.31" y="1040" as="targetPoint" />
          </mxGeometry>
        </mxCell>
        <mxCell id="-yCslmToKLjx41f2__bT-5" value="" style="endArrow=diamondThin;endFill=0;endSize=24;html=1;rounded=0;dashed=1;entryX=0.999;entryY=0.573;entryDx=0;entryDy=0;entryPerimeter=0;" parent="1" target="x359Qb8HQIfaPwbyVQ0W-4" edge="1">
          <mxGeometry width="160" relative="1" as="geometry">
            <mxPoint x="1004" y="1030" as="sourcePoint" />
            <mxPoint x="993" y="961" as="targetPoint" />
          </mxGeometry>
        </mxCell>
        <mxCell id="cZOkIoefIP_OquhZOUB8-1" value="&lt;p style=&quot;margin:0px;margin-top:4px;text-align:center;&quot;&gt;&lt;b style=&quot;border-color: var(--border-color);&quot;&gt;Информация о мероприятии&lt;/b&gt;&lt;/p&gt;&lt;hr size=&quot;1&quot;&gt;&lt;p style=&quot;margin:0px;margin-left:4px;&quot;&gt;&lt;br&gt;&lt;/p&gt;&lt;hr size=&quot;1&quot;&gt;&lt;p style=&quot;margin:0px;margin-left:4px;&quot;&gt;&lt;span style=&quot;background-color: initial;&quot;&gt;+ Возврат в предыдущее окно&lt;/span&gt;&lt;br&gt;&lt;/p&gt;&lt;p style=&quot;margin:0px;margin-left:4px;&quot;&gt;+ Переход в окно статистики мероприятия&lt;br&gt;&lt;/p&gt;" style="verticalAlign=top;align=left;overflow=fill;fontSize=12;fontFamily=Helvetica;html=1;whiteSpace=wrap;fillColor=#f8cecc;strokeColor=#b85450;" parent="1" vertex="1">
          <mxGeometry x="384" y="870" width="290" height="100" as="geometry" />
        </mxCell>
        <mxCell id="cZOkIoefIP_OquhZOUB8-2" value="" style="endArrow=diamondThin;endFill=0;endSize=24;html=1;rounded=0;entryX=0.907;entryY=1.007;entryDx=0;entryDy=0;entryPerimeter=0;exitX=0.516;exitY=0.003;exitDx=0;exitDy=0;exitPerimeter=0;dashed=1;" parent="1" source="cZOkIoefIP_OquhZOUB8-1" target="Nw6q2vx1EIV5gCTwcQck-2" edge="1">
          <mxGeometry width="160" relative="1" as="geometry">
            <mxPoint x="534" y="846.0699999999999" as="sourcePoint" />
            <mxPoint x="657" y="846.0699999999999" as="targetPoint" />
          </mxGeometry>
        </mxCell>
        <mxCell id="CHVpp-vOOTjdEj_33UkE-1" value="&lt;p style=&quot;margin:0px;margin-top:4px;text-align:center;&quot;&gt;&lt;b style=&quot;border-color: var(--border-color);&quot;&gt;Статистика посещаемости мероприятия&lt;/b&gt;&lt;br&gt;&lt;/p&gt;&lt;hr size=&quot;1&quot;&gt;&lt;p style=&quot;margin:0px;margin-left:4px;&quot;&gt;&lt;br&gt;&lt;/p&gt;&lt;hr size=&quot;1&quot;&gt;&lt;p style=&quot;margin:0px;margin-left:4px;&quot;&gt;&lt;span style=&quot;background-color: initial;&quot;&gt;+ Возврат в предыдущее окно&lt;/span&gt;&lt;br&gt;&lt;/p&gt;" style="verticalAlign=top;align=left;overflow=fill;fontSize=12;fontFamily=Helvetica;html=1;whiteSpace=wrap;fillColor=#f8cecc;strokeColor=#b85450;" parent="1" vertex="1">
          <mxGeometry x="-156" y="320" width="270" height="80" as="geometry" />
        </mxCell>
        <mxCell id="opXSgBHIgib_qR5YW9cf-1" value="" style="endArrow=diamondThin;endFill=0;endSize=24;html=1;rounded=0;exitX=0.5;exitY=1;exitDx=0;exitDy=0;dashed=1;entryX=0.553;entryY=-0.001;entryDx=0;entryDy=0;entryPerimeter=0;" parent="1" edge="1">
          <mxGeometry width="160" relative="1" as="geometry">
            <mxPoint x="4" y="400" as="sourcePoint" />
            <mxPoint x="5" y="430" as="targetPoint" />
          </mxGeometry>
        </mxCell>
        <mxCell id="6O6Yyq_NFRUMyEHXrB0S-1" value="" style="endArrow=diamondThin;endFill=0;endSize=24;html=1;rounded=0;exitX=0.5;exitY=1;exitDx=0;exitDy=0;dashed=1;entryX=0.387;entryY=-0.005;entryDx=0;entryDy=0;entryPerimeter=0;" edge="1" parent="1" target="Nw6q2vx1EIV5gCTwcQck-6">
          <mxGeometry width="160" relative="1" as="geometry">
            <mxPoint y="566" as="sourcePoint" />
            <mxPoint x="1" y="596" as="targetPoint" />
          </mxGeometry>
        </mxCell>
        <mxCell id="KhYljXauQbU0KZyMO2XI-2" value="" style="whiteSpace=wrap;html=1;aspect=fixed;fillColor=#f8cecc;strokeColor=#b85450;" vertex="1" parent="1">
          <mxGeometry x="-112" y="867.5" width="42.5" height="42.5" as="geometry" />
        </mxCell>
        <mxCell id="KhYljXauQbU0KZyMO2XI-3" value="" style="whiteSpace=wrap;html=1;aspect=fixed;" vertex="1" parent="1">
          <mxGeometry x="-112" y="927.5" width="42.5" height="42.5" as="geometry" />
        </mxCell>
        <mxCell id="KhYljXauQbU0KZyMO2XI-4" value="" style="whiteSpace=wrap;html=1;aspect=fixed;fillColor=#d5e8d4;strokeColor=#82b366;" vertex="1" parent="1">
          <mxGeometry x="-112" y="990" width="42.5" height="42.5" as="geometry" />
        </mxCell>
        <mxCell id="KhYljXauQbU0KZyMO2XI-5" value="Общие экраны" style="text;html=1;strokeColor=none;fillColor=none;align=left;verticalAlign=middle;whiteSpace=wrap;rounded=0;" vertex="1" parent="1">
          <mxGeometry x="-60" y="996.25" width="91" height="30" as="geometry" />
        </mxCell>
        <mxCell id="KhYljXauQbU0KZyMO2XI-6" style="edgeStyle=orthogonalEdgeStyle;rounded=0;orthogonalLoop=1;jettySize=auto;html=1;exitX=0.5;exitY=1;exitDx=0;exitDy=0;" edge="1" parent="1" source="KhYljXauQbU0KZyMO2XI-5" target="KhYljXauQbU0KZyMO2XI-5">
          <mxGeometry relative="1" as="geometry" />
        </mxCell>
        <mxCell id="KhYljXauQbU0KZyMO2XI-7" value="Экраны роли &quot;Студент&quot;" style="text;html=1;strokeColor=none;fillColor=none;align=left;verticalAlign=middle;whiteSpace=wrap;rounded=0;" vertex="1" parent="1">
          <mxGeometry x="-60" y="933.75" width="140" height="30" as="geometry" />
        </mxCell>
        <mxCell id="KhYljXauQbU0KZyMO2XI-8" value="Экраны роли &quot;Ответственный за мероприятие&quot;" style="text;html=1;strokeColor=none;fillColor=none;align=left;verticalAlign=middle;whiteSpace=wrap;rounded=0;" vertex="1" parent="1">
          <mxGeometry x="-60" y="873.75" width="280" height="30" as="geometry" />
        </mxCell>
      </root>
    </mxGraphModel>
  </diagram>
  <diagram id="QddbNpQ4t4yIbJZ6FY-q" name="Страница 4">
    <mxGraphModel dx="2764" dy="1071" grid="1" gridSize="10" guides="1" tooltips="1" connect="1" arrows="1" fold="1" page="1" pageScale="1" pageWidth="827" pageHeight="1169" math="0" shadow="0">
      <root>
        <mxCell id="0" />
        <mxCell id="1" parent="0" />
        <mxCell id="pLnrMbW9ifTuEzQkywXx-1" value="&lt;p style=&quot;margin:0px;margin-top:4px;text-align:center;&quot;&gt;EventsFragment&lt;br&gt;&lt;/p&gt;&lt;hr size=&quot;1&quot;&gt;&lt;p style=&quot;margin:0px;margin-left:4px;&quot;&gt;&lt;/p&gt;&lt;br&gt;&lt;hr size=&quot;1&quot;&gt;&lt;p style=&quot;margin:0px;margin-left:4px;&quot;&gt;+ Выбор карточки мероприятия&lt;/p&gt;&lt;p style=&quot;margin:0px;margin-left:4px;&quot;&gt;+ Регистрация на мероприятие&lt;/p&gt;&lt;p style=&quot;margin:0px;margin-left:4px;&quot;&gt;+ Поиск мероприятия по названию&lt;/p&gt;&lt;p style=&quot;margin:0px;margin-left:4px;&quot;&gt;+ Фильтрация мероприятий по типу&lt;/p&gt;" style="verticalAlign=top;align=left;overflow=fill;fontSize=12;fontFamily=Helvetica;html=1;whiteSpace=wrap;fillColor=#d5e8d4;strokeColor=#82b366;" vertex="1" parent="1">
          <mxGeometry x="264" y="330" width="340" height="119" as="geometry" />
        </mxCell>
        <mxCell id="pLnrMbW9ifTuEzQkywXx-2" value="&lt;p style=&quot;margin:0px;margin-top:4px;text-align:center;&quot;&gt;&lt;b&gt;MyEventsFragment&lt;/b&gt;&lt;br&gt;&lt;/p&gt;&lt;hr size=&quot;1&quot;&gt;&lt;p style=&quot;border-color: var(--border-color); margin: 0px 0px 0px 4px;&quot;&gt;&lt;br&gt;&lt;/p&gt;&lt;hr size=&quot;1&quot;&gt;&lt;p style=&quot;margin:0px;margin-left:4px;&quot;&gt;+ Выбор карточки мероприятия&lt;br&gt;&lt;/p&gt;&lt;p style=&quot;margin:0px;margin-left:4px;&quot;&gt;+ Поиск мероприятия по названию&lt;br&gt;&lt;/p&gt;&lt;p style=&quot;margin:0px;margin-left:4px;&quot;&gt;&lt;br&gt;&lt;/p&gt;&lt;p style=&quot;border-color: var(--border-color); margin: 0px 0px 0px 4px;&quot;&gt;&lt;br&gt;&lt;/p&gt;" style="verticalAlign=top;align=left;overflow=fill;fontSize=12;fontFamily=Helvetica;html=1;whiteSpace=wrap;fillColor=#d5e8d4;strokeColor=#82b366;" vertex="1" parent="1">
          <mxGeometry x="253" y="570" width="310" height="100" as="geometry" />
        </mxCell>
        <mxCell id="pLnrMbW9ifTuEzQkywXx-3" value="ProfileCleanFragment&lt;br&gt;&lt;hr size=&quot;1&quot;&gt;&lt;p style=&quot;margin:0px;margin-left:4px;&quot;&gt;&lt;br&gt;&lt;/p&gt;&lt;hr size=&quot;1&quot;&gt;&lt;p style=&quot;margin:0px;margin-left:4px;&quot;&gt;+ Авторизация в системе с помощью имени пользователя и пароля&lt;/p&gt;&lt;p style=&quot;margin:0px;margin-left:4px;&quot;&gt;+ Авторизация в системе с помощью аккаунта личного кабинета&lt;/p&gt;" style="verticalAlign=top;align=left;overflow=fill;fontSize=12;fontFamily=Helvetica;html=1;whiteSpace=wrap;fillColor=#d5e8d4;strokeColor=#82b366;" vertex="1" parent="1">
          <mxGeometry x="1073" y="566" width="260" height="124" as="geometry" />
        </mxCell>
        <mxCell id="pLnrMbW9ifTuEzQkywXx-4" value="&lt;p style=&quot;margin:0px;margin-top:4px;text-align:center;&quot;&gt;SettingsActivity&lt;br&gt;&lt;/p&gt;&lt;hr size=&quot;1&quot;&gt;&lt;p style=&quot;margin:0px;margin-left:4px;&quot;&gt;&lt;br&gt;&lt;/p&gt;&lt;hr size=&quot;1&quot;&gt;&lt;p style=&quot;margin:0px;margin-left:4px;&quot;&gt;+ Изменение графической темы приложения&lt;/p&gt;&lt;p style=&quot;margin:0px;margin-left:4px;&quot;&gt;+ Изменение языка приложения&amp;nbsp;&lt;/p&gt;&lt;p style=&quot;margin:0px;margin-left:4px;&quot;&gt;+ Возврат в предыдущее окно&lt;/p&gt;" style="verticalAlign=top;align=left;overflow=fill;fontSize=12;fontFamily=Helvetica;html=1;whiteSpace=wrap;fillColor=#d5e8d4;strokeColor=#82b366;" vertex="1" parent="1">
          <mxGeometry x="713" y="406" width="270" height="106" as="geometry" />
        </mxCell>
        <mxCell id="pLnrMbW9ifTuEzQkywXx-5" value="&lt;p style=&quot;margin:0px;margin-top:4px;text-align:center;&quot;&gt;&lt;b&gt;EventActivity&lt;/b&gt;&lt;br&gt;&lt;/p&gt;&lt;hr size=&quot;1&quot;&gt;&lt;p style=&quot;margin:0px;margin-left:4px;&quot;&gt;&lt;br&gt;&lt;/p&gt;&lt;hr size=&quot;1&quot;&gt;&lt;p style=&quot;margin:0px;margin-left:4px;&quot;&gt;-&amp;nbsp;onCreate(savedInstanceState: Bundle?)&lt;/p&gt;&lt;p style=&quot;margin:0px;margin-left:4px;&quot;&gt;-&amp;nbsp;checkConnection()&lt;/p&gt;&lt;p style=&quot;margin:0px;margin-left:4px;&quot;&gt;-&amp;nbsp;checkList()&lt;/p&gt;&lt;p style=&quot;margin:0px;margin-left:4px;&quot;&gt;-&amp;nbsp;setContent()&lt;/p&gt;&lt;p style=&quot;margin:0px;margin-left:4px;&quot;&gt;-&amp;nbsp;setImages()&lt;/p&gt;&lt;p style=&quot;margin:0px;margin-left:4px;&quot;&gt;-&amp;nbsp;onCreateOptionsMenu(menu: Menu): Boolean&lt;/p&gt;&lt;p style=&quot;margin:0px;margin-left:4px;&quot;&gt;-&amp;nbsp;onOptionsItemSelected(item: MenuItem): Boolean&lt;/p&gt;&lt;p style=&quot;margin:0px;margin-left:4px;&quot;&gt;-&amp;nbsp;init()&lt;/p&gt;" style="verticalAlign=top;align=left;overflow=fill;fontSize=12;fontFamily=Helvetica;html=1;whiteSpace=wrap;fillColor=#d5e8d4;strokeColor=#82b366;" vertex="1" parent="1">
          <mxGeometry x="-97" y="430" width="260" height="136" as="geometry" />
        </mxCell>
        <mxCell id="pLnrMbW9ifTuEzQkywXx-6" value="&lt;p style=&quot;margin:0px;margin-top:4px;text-align:center;&quot;&gt;MyEventActivity&lt;br&gt;&lt;/p&gt;&lt;hr size=&quot;1&quot;&gt;&lt;p style=&quot;margin:0px;margin-left:4px;&quot;&gt;&lt;br&gt;&lt;/p&gt;&lt;hr size=&quot;1&quot;&gt;&lt;p style=&quot;margin:0px;margin-left:4px;&quot;&gt;+ Отмена регистрации на мероприятие&lt;/p&gt;&lt;p style=&quot;margin:0px;margin-left:4px;&quot;&gt;+ Переход на страницу мероприятия&lt;/p&gt;&lt;p style=&quot;margin:0px;margin-left:4px;&quot;&gt;+ Сохранение данных в pdf-файл&lt;/p&gt;&lt;p style=&quot;margin:0px;margin-left:4px;&quot;&gt;+ Отправка pdf-файла&lt;/p&gt;&lt;p style=&quot;margin:0px;margin-left:4px;&quot;&gt;+ Сохранение данных о мероприятии в календаре&lt;/p&gt;&lt;p style=&quot;margin:0px;margin-left:4px;&quot;&gt;+ Возврат в предыдущее окно&lt;br&gt;&lt;/p&gt;&lt;p style=&quot;margin:0px;margin-left:4px;&quot;&gt;+ Увеличение QR-кода&lt;br&gt;&lt;/p&gt;" style="verticalAlign=top;align=left;overflow=fill;fontSize=12;fontFamily=Helvetica;html=1;whiteSpace=wrap;" vertex="1" parent="1">
          <mxGeometry x="-112" y="600" width="290" height="194" as="geometry" />
        </mxCell>
        <mxCell id="pLnrMbW9ifTuEzQkywXx-7" value="&lt;p style=&quot;margin:0px;margin-top:4px;text-align:center;&quot;&gt;&lt;/p&gt;&lt;p style=&quot;border-color: var(--border-color); margin: 0px 0px 0px 4px;&quot;&gt;&lt;br&gt;&lt;/p&gt;&lt;div style=&quot;text-align: center;&quot;&gt;&lt;b&gt;MainActivity&amp;nbsp;&lt;/b&gt;&lt;/div&gt;&lt;hr size=&quot;1&quot;&gt;&lt;p style=&quot;margin:0px;margin-left:4px;&quot;&gt;-&amp;nbsp;onCreate(savedInstanceState: Bundle?)&lt;/p&gt;&lt;p style=&quot;margin:0px;margin-left:4px;&quot;&gt;-&amp;nbsp;checkConnection()&lt;/p&gt;&lt;p style=&quot;margin:0px;margin-left:4px;&quot;&gt;-&amp;nbsp;getPref()&lt;/p&gt;&lt;p style=&quot;margin:0px;margin-left:4px;&quot;&gt;-&amp;nbsp;setStyle(themeStyle: Int)&lt;/p&gt;&lt;p style=&quot;margin:0px;margin-left:4px;&quot;&gt;- setMenu()&lt;/p&gt;&lt;p style=&quot;margin:0px;margin-left:4px;&quot;&gt;-&amp;nbsp;onCreateOptionsMenu(menu: Menu): Boolean&lt;/p&gt;&lt;p style=&quot;border-color: var(--border-color); margin: 0px 0px 0px 4px;&quot;&gt;-&amp;nbsp;replaceFragment(fragment: Fragment)&lt;/p&gt;&lt;p style=&quot;border-color: var(--border-color); margin: 0px 0px 0px 4px;&quot;&gt;-&amp;nbsp;onOptionsItemSelected(item: MenuItem): Boolean&lt;/p&gt;&lt;p style=&quot;border-color: var(--border-color); margin: 0px 0px 0px 4px;&quot;&gt;-&amp;nbsp;attachBaseContext(newBase: Context?)&lt;/p&gt;&lt;p style=&quot;border-color: var(--border-color); margin: 0px 0px 0px 4px;&quot;&gt;-&amp;nbsp;init()&lt;/p&gt;&lt;p style=&quot;border-color: var(--border-color); margin: 0px 0px 0px 4px;&quot;&gt;&lt;br&gt;&lt;/p&gt;" style="verticalAlign=top;align=left;overflow=fill;fontSize=12;fontFamily=Helvetica;html=1;whiteSpace=wrap;fillColor=#d5e8d4;strokeColor=#82b366;" vertex="1" parent="1">
          <mxGeometry x="693" y="528.5" width="310" height="229" as="geometry" />
        </mxCell>
        <mxCell id="pLnrMbW9ifTuEzQkywXx-8" value="&lt;p style=&quot;margin:0px;margin-top:4px;text-align:center;&quot;&gt;&lt;b style=&quot;border-color: var(--border-color);&quot;&gt;ProfileFragment&lt;/b&gt;&lt;br&gt;&lt;/p&gt;&lt;hr size=&quot;1&quot;&gt;&lt;p style=&quot;margin:0px;margin-left:4px;&quot;&gt;&lt;br&gt;&lt;/p&gt;&lt;hr size=&quot;1&quot;&gt;&lt;p style=&quot;margin:0px;margin-left:4px;&quot;&gt;+ Выход из аккаунта пользователя&lt;/p&gt;" style="verticalAlign=top;align=left;overflow=fill;fontSize=12;fontFamily=Helvetica;html=1;whiteSpace=wrap;fillColor=#d5e8d4;strokeColor=#82b366;" vertex="1" parent="1">
          <mxGeometry x="1394" y="420" width="260" height="81" as="geometry" />
        </mxCell>
        <mxCell id="pLnrMbW9ifTuEzQkywXx-9" value="" style="endArrow=diamondThin;endFill=0;endSize=24;html=1;rounded=0;entryX=0.009;entryY=0.412;entryDx=0;entryDy=0;entryPerimeter=0;exitX=1.003;exitY=0.352;exitDx=0;exitDy=0;exitPerimeter=0;dashed=1;" edge="1" parent="1" source="pLnrMbW9ifTuEzQkywXx-2" target="pLnrMbW9ifTuEzQkywXx-7">
          <mxGeometry width="160" relative="1" as="geometry">
            <mxPoint x="563" y="690" as="sourcePoint" />
            <mxPoint x="633" y="756" as="targetPoint" />
          </mxGeometry>
        </mxCell>
        <mxCell id="pLnrMbW9ifTuEzQkywXx-10" value="" style="endArrow=diamondThin;endFill=0;endSize=24;html=1;rounded=0;exitX=1;exitY=0.5;exitDx=0;exitDy=0;entryX=0;entryY=0.194;entryDx=0;entryDy=0;entryPerimeter=0;dashed=1;" edge="1" parent="1" source="pLnrMbW9ifTuEzQkywXx-1" target="pLnrMbW9ifTuEzQkywXx-7">
          <mxGeometry width="160" relative="1" as="geometry">
            <mxPoint x="593" y="415.5" as="sourcePoint" />
            <mxPoint x="653" y="656" as="targetPoint" />
            <Array as="points">
              <mxPoint x="654" y="390" />
              <mxPoint x="654" y="580" />
            </Array>
          </mxGeometry>
        </mxCell>
        <mxCell id="pLnrMbW9ifTuEzQkywXx-11" value="" style="endArrow=diamondThin;endFill=0;endSize=24;html=1;rounded=0;dashed=1;" edge="1" parent="1">
          <mxGeometry width="160" relative="1" as="geometry">
            <mxPoint x="1073" y="627" as="sourcePoint" />
            <mxPoint x="993" y="627" as="targetPoint" />
          </mxGeometry>
        </mxCell>
        <mxCell id="pLnrMbW9ifTuEzQkywXx-12" value="" style="endArrow=diamondThin;endFill=0;endSize=24;html=1;rounded=0;exitX=0.477;exitY=1.002;exitDx=0;exitDy=0;exitPerimeter=0;entryX=0.517;entryY=-0.015;entryDx=0;entryDy=0;entryPerimeter=0;dashed=1;" edge="1" parent="1" source="pLnrMbW9ifTuEzQkywXx-4" target="pLnrMbW9ifTuEzQkywXx-7">
          <mxGeometry width="160" relative="1" as="geometry">
            <mxPoint x="843" y="476" as="sourcePoint" />
            <mxPoint x="1003" y="476" as="targetPoint" />
          </mxGeometry>
        </mxCell>
        <mxCell id="pLnrMbW9ifTuEzQkywXx-13" value="" style="endArrow=diamondThin;endFill=0;endSize=24;html=1;rounded=0;entryX=0;entryY=0.5;entryDx=0;entryDy=0;dashed=1;exitX=0.892;exitY=-0.012;exitDx=0;exitDy=0;exitPerimeter=0;" edge="1" parent="1" source="pLnrMbW9ifTuEzQkywXx-5" target="pLnrMbW9ifTuEzQkywXx-1">
          <mxGeometry width="160" relative="1" as="geometry">
            <mxPoint x="164" y="211" as="sourcePoint" />
            <mxPoint x="393" y="216" as="targetPoint" />
            <Array as="points">
              <mxPoint x="134" y="390" />
            </Array>
          </mxGeometry>
        </mxCell>
        <mxCell id="pLnrMbW9ifTuEzQkywXx-14" value="" style="endArrow=diamondThin;endFill=0;endSize=24;html=1;rounded=0;exitX=0.999;exitY=0.19;exitDx=0;exitDy=0;exitPerimeter=0;entryX=-0.001;entryY=0.665;entryDx=0;entryDy=0;entryPerimeter=0;dashed=1;" edge="1" parent="1" source="pLnrMbW9ifTuEzQkywXx-6" target="pLnrMbW9ifTuEzQkywXx-2">
          <mxGeometry width="160" relative="1" as="geometry">
            <mxPoint x="183" y="706" as="sourcePoint" />
            <mxPoint x="253" y="706" as="targetPoint" />
          </mxGeometry>
        </mxCell>
        <mxCell id="pLnrMbW9ifTuEzQkywXx-15" value="" style="endArrow=none;endFill=0;endSize=24;html=1;rounded=0;startArrow=diamondThin;startFill=0;startSize=24;exitX=0.427;exitY=1.002;exitDx=0;exitDy=0;exitPerimeter=0;entryX=0.435;entryY=-0.003;entryDx=0;entryDy=0;entryPerimeter=0;dashed=1;" edge="1" parent="1" source="pLnrMbW9ifTuEzQkywXx-5" target="pLnrMbW9ifTuEzQkywXx-6">
          <mxGeometry width="160" relative="1" as="geometry">
            <mxPoint x="3" y="596" as="sourcePoint" />
            <mxPoint x="163" y="596" as="targetPoint" />
          </mxGeometry>
        </mxCell>
        <mxCell id="pLnrMbW9ifTuEzQkywXx-16" value="" style="endArrow=diamondThin;endFill=0;endSize=24;html=1;rounded=0;exitX=-0.01;exitY=0.15;exitDx=0;exitDy=0;exitPerimeter=0;entryX=1;entryY=0.475;entryDx=0;entryDy=0;entryPerimeter=0;dashed=1;" edge="1" parent="1" source="pLnrMbW9ifTuEzQkywXx-28" target="pLnrMbW9ifTuEzQkywXx-6">
          <mxGeometry width="160" relative="1" as="geometry">
            <mxPoint x="252.48000000000025" y="822.7520000000002" as="sourcePoint" />
            <mxPoint x="178" y="916" as="targetPoint" />
          </mxGeometry>
        </mxCell>
        <mxCell id="pLnrMbW9ifTuEzQkywXx-17" value="&lt;p style=&quot;margin:0px;margin-top:4px;text-align:center;&quot;&gt;&lt;b style=&quot;border-color: var(--border-color);&quot;&gt;LogOutDialog&lt;/b&gt;&lt;br&gt;&lt;/p&gt;&lt;hr size=&quot;1&quot;&gt;&lt;p style=&quot;margin:0px;margin-left:4px;&quot;&gt;&lt;br&gt;&lt;/p&gt;&lt;hr size=&quot;1&quot;&gt;&lt;p style=&quot;margin:0px;margin-left:4px;&quot;&gt;+ Выход из аккаунта пользователя&lt;br&gt;&lt;/p&gt;&lt;p style=&quot;margin:0px;margin-left:4px;&quot;&gt;+ Отмена выхода из аккаунта пользователя&lt;/p&gt;" style="verticalAlign=top;align=left;overflow=fill;fontSize=12;fontFamily=Helvetica;html=1;whiteSpace=wrap;fillColor=#d5e8d4;strokeColor=#82b366;" vertex="1" parent="1">
          <mxGeometry x="1073" y="413.5" width="260" height="91" as="geometry" />
        </mxCell>
        <mxCell id="pLnrMbW9ifTuEzQkywXx-18" value="" style="endArrow=diamondThin;endFill=0;endSize=24;html=1;rounded=0;exitX=1;exitY=0.5;exitDx=0;exitDy=0;entryX=0;entryY=0.5;entryDx=0;entryDy=0;dashed=1;" edge="1" parent="1" source="pLnrMbW9ifTuEzQkywXx-17" target="pLnrMbW9ifTuEzQkywXx-8">
          <mxGeometry width="160" relative="1" as="geometry">
            <mxPoint x="1698" y="405.64" as="sourcePoint" />
            <mxPoint x="1654" y="405.64" as="targetPoint" />
          </mxGeometry>
        </mxCell>
        <mxCell id="pLnrMbW9ifTuEzQkywXx-19" value="&lt;p style=&quot;margin:0px;margin-top:4px;text-align:center;&quot;&gt;&lt;b style=&quot;border-color: var(--border-color);&quot;&gt;TranslateDialog&lt;/b&gt;&lt;br&gt;&lt;/p&gt;&lt;hr size=&quot;1&quot;&gt;&lt;p style=&quot;margin:0px;margin-left:4px;&quot;&gt;&lt;br&gt;&lt;/p&gt;&lt;hr size=&quot;1&quot;&gt;&lt;p style=&quot;margin:0px;margin-left:4px;&quot;&gt;+ Смена языка приложения&lt;/p&gt;" style="verticalAlign=top;align=left;overflow=fill;fontSize=12;fontFamily=Helvetica;html=1;whiteSpace=wrap;fillColor=#d5e8d4;strokeColor=#82b366;" vertex="1" parent="1">
          <mxGeometry x="718" y="280" width="260" height="74" as="geometry" />
        </mxCell>
        <mxCell id="pLnrMbW9ifTuEzQkywXx-20" value="" style="endArrow=diamondThin;endFill=0;endSize=24;html=1;rounded=0;exitX=0.477;exitY=1.002;exitDx=0;exitDy=0;exitPerimeter=0;dashed=1;" edge="1" parent="1">
          <mxGeometry width="160" relative="1" as="geometry">
            <mxPoint x="837.25" y="356" as="sourcePoint" />
            <mxPoint x="838.75" y="406" as="targetPoint" />
          </mxGeometry>
        </mxCell>
        <mxCell id="pLnrMbW9ifTuEzQkywXx-21" value="" style="endArrow=diamondThin;endFill=0;endSize=24;html=1;rounded=0;exitX=-0.002;exitY=0.418;exitDx=0;exitDy=0;exitPerimeter=0;entryX=1;entryY=0.475;entryDx=0;entryDy=0;entryPerimeter=0;dashed=1;" edge="1" parent="1">
          <mxGeometry width="160" relative="1" as="geometry">
            <mxPoint x="252" y="790" as="sourcePoint" />
            <mxPoint x="178" y="790" as="targetPoint" />
          </mxGeometry>
        </mxCell>
        <mxCell id="pLnrMbW9ifTuEzQkywXx-22" value="&lt;p style=&quot;margin:0px;margin-top:4px;text-align:center;&quot;&gt;&lt;b style=&quot;border-color: var(--border-color);&quot;&gt;LoginDialog&lt;/b&gt;&lt;br&gt;&lt;/p&gt;&lt;hr size=&quot;1&quot;&gt;&lt;p style=&quot;margin:0px;margin-left:4px;&quot;&gt;&lt;br&gt;&lt;/p&gt;&lt;hr size=&quot;1&quot;&gt;&lt;p style=&quot;margin:0px;margin-left:4px;&quot;&gt;+ Авторизация в качестве студента&lt;/p&gt;&lt;p style=&quot;margin:0px;margin-left:4px;&quot;&gt;+ Авторизация в качестве ответственного за мероприятие&lt;/p&gt;" style="verticalAlign=top;align=left;overflow=fill;fontSize=12;fontFamily=Helvetica;html=1;whiteSpace=wrap;fillColor=#d5e8d4;strokeColor=#82b366;" vertex="1" parent="1">
          <mxGeometry x="1394" y="566" width="260" height="104" as="geometry" />
        </mxCell>
        <mxCell id="pLnrMbW9ifTuEzQkywXx-23" value="" style="endArrow=diamondThin;endFill=0;endSize=24;html=1;rounded=0;dashed=1;exitX=-0.002;exitY=0.364;exitDx=0;exitDy=0;exitPerimeter=0;entryX=1.004;entryY=0.303;entryDx=0;entryDy=0;entryPerimeter=0;" edge="1" parent="1" source="pLnrMbW9ifTuEzQkywXx-22" target="pLnrMbW9ifTuEzQkywXx-3">
          <mxGeometry width="160" relative="1" as="geometry">
            <mxPoint x="1413" y="646" as="sourcePoint" />
            <mxPoint x="1333" y="646" as="targetPoint" />
          </mxGeometry>
        </mxCell>
        <mxCell id="pLnrMbW9ifTuEzQkywXx-24" value="" style="endArrow=diamondThin;endFill=0;endSize=24;html=1;rounded=0;entryX=0.5;entryY=0;entryDx=0;entryDy=0;dashed=1;exitX=0.5;exitY=1;exitDx=0;exitDy=0;" edge="1" parent="1" source="pLnrMbW9ifTuEzQkywXx-8" target="pLnrMbW9ifTuEzQkywXx-22">
          <mxGeometry width="160" relative="1" as="geometry">
            <mxPoint x="1554" y="530" as="sourcePoint" />
            <mxPoint x="1684" y="586" as="targetPoint" />
          </mxGeometry>
        </mxCell>
        <mxCell id="pLnrMbW9ifTuEzQkywXx-25" value="&lt;p style=&quot;margin:0px;margin-top:4px;text-align:center;&quot;&gt;&lt;b style=&quot;border-color: var(--border-color);&quot;&gt;RegistrationDIalog&lt;/b&gt;&lt;br&gt;&lt;/p&gt;&lt;hr size=&quot;1&quot;&gt;&lt;p style=&quot;margin:0px;margin-left:4px;&quot;&gt;&lt;br&gt;&lt;/p&gt;&lt;hr size=&quot;1&quot;&gt;&lt;p style=&quot;margin:0px;margin-left:4px;&quot;&gt;+ Регистрация на мероприятие&lt;/p&gt;" style="verticalAlign=top;align=left;overflow=fill;fontSize=12;fontFamily=Helvetica;html=1;whiteSpace=wrap;" vertex="1" parent="1">
          <mxGeometry x="293" y="460" width="260" height="80" as="geometry" />
        </mxCell>
        <mxCell id="pLnrMbW9ifTuEzQkywXx-26" value="" style="endArrow=diamondThin;endFill=0;endSize=24;html=1;rounded=0;exitX=0.5;exitY=1;exitDx=0;exitDy=0;dashed=1;entryX=0.553;entryY=-0.001;entryDx=0;entryDy=0;entryPerimeter=0;" edge="1" parent="1" source="pLnrMbW9ifTuEzQkywXx-25" target="pLnrMbW9ifTuEzQkywXx-2">
          <mxGeometry width="160" relative="1" as="geometry">
            <mxPoint x="394" y="590" as="sourcePoint" />
            <mxPoint x="374" y="540" as="targetPoint" />
          </mxGeometry>
        </mxCell>
        <mxCell id="pLnrMbW9ifTuEzQkywXx-27" value="" style="endArrow=diamondThin;endFill=0;endSize=24;html=1;rounded=0;dashed=1;entryX=0;entryY=0.25;entryDx=0;entryDy=0;" edge="1" parent="1" target="pLnrMbW9ifTuEzQkywXx-25">
          <mxGeometry width="160" relative="1" as="geometry">
            <mxPoint x="164" y="480" as="sourcePoint" />
            <mxPoint x="234" y="510" as="targetPoint" />
          </mxGeometry>
        </mxCell>
        <mxCell id="pLnrMbW9ifTuEzQkywXx-28" value="&lt;p style=&quot;margin:0px;margin-top:4px;text-align:center;&quot;&gt;QrActivity&lt;br&gt;&lt;/p&gt;&lt;hr size=&quot;1&quot;&gt;&lt;p style=&quot;margin:0px;margin-left:4px;&quot;&gt;&lt;br&gt;&lt;/p&gt;&lt;hr size=&quot;1&quot;&gt;&lt;p style=&quot;margin:0px;margin-left:4px;&quot;&gt;+ Возврат в предыдущее окно&lt;br&gt;&lt;/p&gt;" style="verticalAlign=top;align=left;overflow=fill;fontSize=12;fontFamily=Helvetica;html=1;whiteSpace=wrap;" vertex="1" parent="1">
          <mxGeometry x="253" y="680" width="260" height="77.5" as="geometry" />
        </mxCell>
        <mxCell id="pLnrMbW9ifTuEzQkywXx-29" value="&lt;p style=&quot;margin:0px;margin-top:4px;text-align:center;&quot;&gt;&lt;b style=&quot;border-color: var(--border-color);&quot;&gt;CancelDialog&lt;/b&gt;&lt;br style=&quot;border-color: var(--border-color);&quot;&gt;&lt;/p&gt;&lt;hr size=&quot;1&quot;&gt;&lt;p style=&quot;margin:0px;margin-left:4px;&quot;&gt;&lt;br&gt;&lt;/p&gt;&lt;hr size=&quot;1&quot;&gt;&lt;p style=&quot;margin:0px;margin-left:4px;&quot;&gt;+ Отмена регистрации на мероприятие&lt;br&gt;&lt;/p&gt;" style="verticalAlign=top;align=left;overflow=fill;fontSize=12;fontFamily=Helvetica;html=1;whiteSpace=wrap;" vertex="1" parent="1">
          <mxGeometry x="254" y="770" width="260" height="77.5" as="geometry" />
        </mxCell>
        <mxCell id="pLnrMbW9ifTuEzQkywXx-30" value="&lt;p style=&quot;margin:0px;margin-top:4px;text-align:center;&quot;&gt;&lt;b&gt;PresenceFragment&lt;/b&gt;&lt;br&gt;&lt;/p&gt;&lt;hr size=&quot;1&quot;&gt;&lt;p style=&quot;border-color: var(--border-color); margin: 0px 0px 0px 4px;&quot;&gt;&lt;br&gt;&lt;/p&gt;&lt;hr size=&quot;1&quot;&gt;&lt;p style=&quot;margin:0px;margin-left:4px;&quot;&gt;+ Выбор карточки мероприятия&lt;br&gt;&lt;/p&gt;&lt;p style=&quot;margin:0px;margin-left:4px;&quot;&gt;+ Поиск мероприятия по названию&lt;br&gt;&lt;/p&gt;&lt;p style=&quot;border-color: var(--border-color); margin: 0px 0px 0px 4px;&quot;&gt;&lt;br&gt;&lt;/p&gt;" style="verticalAlign=top;align=left;overflow=fill;fontSize=12;fontFamily=Helvetica;html=1;whiteSpace=wrap;fillColor=#f8cecc;strokeColor=#b85450;" vertex="1" parent="1">
          <mxGeometry x="683" y="720" width="310" height="90" as="geometry" />
        </mxCell>
        <mxCell id="pLnrMbW9ifTuEzQkywXx-31" value="&lt;p style=&quot;margin:0px;margin-top:4px;text-align:center;&quot;&gt;&lt;b&gt;ErrorDialog&lt;/b&gt;&lt;br&gt;&lt;/p&gt;&lt;hr size=&quot;1&quot;&gt;&lt;p style=&quot;margin:0px;margin-left:4px;&quot;&gt;&lt;br&gt;&lt;/p&gt;&lt;hr size=&quot;1&quot;&gt;&lt;p style=&quot;margin:0px;margin-left:4px;&quot;&gt;&lt;br&gt;&lt;/p&gt;" style="verticalAlign=top;align=left;overflow=fill;fontSize=12;fontFamily=Helvetica;html=1;whiteSpace=wrap;fillColor=#f8cecc;strokeColor=#b85450;" vertex="1" parent="1">
          <mxGeometry x="404" y="995" width="260" height="60" as="geometry" />
        </mxCell>
        <mxCell id="pLnrMbW9ifTuEzQkywXx-32" value="&lt;p style=&quot;margin:0px;margin-top:4px;text-align:center;&quot;&gt;&lt;b&gt;SuccessfulDialog&lt;/b&gt;&lt;br&gt;&lt;/p&gt;&lt;hr size=&quot;1&quot;&gt;&lt;p style=&quot;margin:0px;margin-left:4px;&quot;&gt;&lt;br&gt;&lt;/p&gt;&lt;hr size=&quot;1&quot;&gt;&lt;p style=&quot;margin:0px;margin-left:4px;&quot;&gt;&lt;br&gt;&lt;/p&gt;" style="verticalAlign=top;align=left;overflow=fill;fontSize=12;fontFamily=Helvetica;html=1;whiteSpace=wrap;fillColor=#f8cecc;strokeColor=#b85450;" vertex="1" parent="1">
          <mxGeometry x="1004" y="1000" width="260" height="60" as="geometry" />
        </mxCell>
        <mxCell id="pLnrMbW9ifTuEzQkywXx-33" value="&lt;p style=&quot;margin:0px;margin-top:4px;text-align:center;&quot;&gt;ResultScannerActivity&lt;br&gt;&lt;/p&gt;&lt;hr size=&quot;1&quot;&gt;&lt;p style=&quot;margin:0px;margin-left:4px;&quot;&gt;&lt;br&gt;&lt;/p&gt;&lt;hr size=&quot;1&quot;&gt;&lt;p style=&quot;margin:0px;margin-left:4px;&quot;&gt;+ Возврат в предыдущее окно&lt;br&gt;&lt;/p&gt;&lt;p style=&quot;margin:0px;margin-left:4px;&quot;&gt;&lt;span style=&quot;background-color: initial;&quot;&gt;+ Подтверждение присутствия&lt;/span&gt;&lt;/p&gt;" style="verticalAlign=top;align=left;overflow=fill;fontSize=12;fontFamily=Helvetica;html=1;whiteSpace=wrap;fillColor=#f8cecc;strokeColor=#b85450;" vertex="1" parent="1">
          <mxGeometry x="703" y="980" width="270" height="90" as="geometry" />
        </mxCell>
        <mxCell id="pLnrMbW9ifTuEzQkywXx-34" value="&lt;p style=&quot;margin:0px;margin-top:4px;text-align:center;&quot;&gt;ScannerActivity&lt;br&gt;&lt;/p&gt;&lt;hr size=&quot;1&quot;&gt;&lt;p style=&quot;margin:0px;margin-left:4px;&quot;&gt;&lt;br&gt;&lt;/p&gt;&lt;hr size=&quot;1&quot;&gt;&lt;p style=&quot;margin:0px;margin-left:4px;&quot;&gt;&lt;span style=&quot;background-color: initial;&quot;&gt;+ Возврат в предыдущее окно&lt;/span&gt;&lt;br&gt;&lt;/p&gt;&lt;p style=&quot;margin:0px;margin-left:4px;&quot;&gt;&lt;span style=&quot;background-color: initial;&quot;&gt;+ Сканирование QR-кода&lt;/span&gt;&lt;/p&gt;" style="verticalAlign=top;align=left;overflow=fill;fontSize=12;fontFamily=Helvetica;html=1;whiteSpace=wrap;fillColor=#f8cecc;strokeColor=#b85450;" vertex="1" parent="1">
          <mxGeometry x="703" y="847.5" width="270" height="90" as="geometry" />
        </mxCell>
        <mxCell id="pLnrMbW9ifTuEzQkywXx-35" value="" style="endArrow=diamondThin;endFill=0;endSize=24;html=1;rounded=0;dashed=1;entryX=0.5;entryY=1;entryDx=0;entryDy=0;exitX=0.5;exitY=0;exitDx=0;exitDy=0;" edge="1" parent="1" source="pLnrMbW9ifTuEzQkywXx-30" target="pLnrMbW9ifTuEzQkywXx-7">
          <mxGeometry width="160" relative="1" as="geometry">
            <mxPoint x="934" y="696.41" as="sourcePoint" />
            <mxPoint x="854" y="696.41" as="targetPoint" />
          </mxGeometry>
        </mxCell>
        <mxCell id="pLnrMbW9ifTuEzQkywXx-36" value="" style="endArrow=diamondThin;endFill=0;endSize=24;html=1;rounded=0;dashed=1;entryX=0.5;entryY=1;entryDx=0;entryDy=0;exitX=0.5;exitY=0;exitDx=0;exitDy=0;" edge="1" parent="1">
          <mxGeometry width="160" relative="1" as="geometry">
            <mxPoint x="836.5799999999999" y="845" as="sourcePoint" />
            <mxPoint x="836.5799999999999" y="810" as="targetPoint" />
          </mxGeometry>
        </mxCell>
        <mxCell id="pLnrMbW9ifTuEzQkywXx-37" value="" style="endArrow=diamondThin;endFill=0;endSize=24;html=1;rounded=0;dashed=1;entryX=0.5;entryY=1;entryDx=0;entryDy=0;exitX=0.498;exitY=-0.018;exitDx=0;exitDy=0;exitPerimeter=0;" edge="1" parent="1" source="pLnrMbW9ifTuEzQkywXx-33">
          <mxGeometry width="160" relative="1" as="geometry">
            <mxPoint x="837.5799999999999" y="972.5" as="sourcePoint" />
            <mxPoint x="837.5799999999999" y="937.5" as="targetPoint" />
          </mxGeometry>
        </mxCell>
        <mxCell id="pLnrMbW9ifTuEzQkywXx-38" value="" style="endArrow=diamondThin;endFill=0;endSize=24;html=1;rounded=0;dashed=1;entryX=-0.001;entryY=0.565;entryDx=0;entryDy=0;entryPerimeter=0;" edge="1" parent="1" target="pLnrMbW9ifTuEzQkywXx-33">
          <mxGeometry width="160" relative="1" as="geometry">
            <mxPoint x="664" y="1030" as="sourcePoint" />
            <mxPoint x="682.31" y="1040" as="targetPoint" />
          </mxGeometry>
        </mxCell>
        <mxCell id="pLnrMbW9ifTuEzQkywXx-39" value="" style="endArrow=diamondThin;endFill=0;endSize=24;html=1;rounded=0;dashed=1;entryX=0.999;entryY=0.573;entryDx=0;entryDy=0;entryPerimeter=0;" edge="1" parent="1" target="pLnrMbW9ifTuEzQkywXx-33">
          <mxGeometry width="160" relative="1" as="geometry">
            <mxPoint x="1004" y="1030" as="sourcePoint" />
            <mxPoint x="993" y="961" as="targetPoint" />
          </mxGeometry>
        </mxCell>
        <mxCell id="pLnrMbW9ifTuEzQkywXx-40" value="&lt;p style=&quot;margin:0px;margin-top:4px;text-align:center;&quot;&gt;EventInfoActivity&lt;br&gt;&lt;/p&gt;&lt;hr size=&quot;1&quot;&gt;&lt;p style=&quot;margin:0px;margin-left:4px;&quot;&gt;&lt;br&gt;&lt;/p&gt;&lt;hr size=&quot;1&quot;&gt;&lt;p style=&quot;margin:0px;margin-left:4px;&quot;&gt;&lt;span style=&quot;background-color: initial;&quot;&gt;+ Возврат в предыдущее окно&lt;/span&gt;&lt;br&gt;&lt;/p&gt;&lt;p style=&quot;margin:0px;margin-left:4px;&quot;&gt;+ Переход в окно статистики мероприятия&lt;br&gt;&lt;/p&gt;" style="verticalAlign=top;align=left;overflow=fill;fontSize=12;fontFamily=Helvetica;html=1;whiteSpace=wrap;fillColor=#f8cecc;strokeColor=#b85450;" vertex="1" parent="1">
          <mxGeometry x="384" y="870" width="290" height="100" as="geometry" />
        </mxCell>
        <mxCell id="pLnrMbW9ifTuEzQkywXx-41" value="" style="endArrow=diamondThin;endFill=0;endSize=24;html=1;rounded=0;entryX=0.907;entryY=1.007;entryDx=0;entryDy=0;entryPerimeter=0;exitX=0.516;exitY=0.003;exitDx=0;exitDy=0;exitPerimeter=0;dashed=1;" edge="1" parent="1" source="pLnrMbW9ifTuEzQkywXx-40" target="pLnrMbW9ifTuEzQkywXx-2">
          <mxGeometry width="160" relative="1" as="geometry">
            <mxPoint x="534" y="846.0699999999999" as="sourcePoint" />
            <mxPoint x="657" y="846.0699999999999" as="targetPoint" />
          </mxGeometry>
        </mxCell>
        <mxCell id="pLnrMbW9ifTuEzQkywXx-42" value="&lt;p style=&quot;margin:0px;margin-top:4px;text-align:center;&quot;&gt;EventStatsActivity&lt;br&gt;&lt;/p&gt;&lt;hr size=&quot;1&quot;&gt;&lt;p style=&quot;margin:0px;margin-left:4px;&quot;&gt;&lt;br&gt;&lt;/p&gt;&lt;hr size=&quot;1&quot;&gt;&lt;p style=&quot;margin:0px;margin-left:4px;&quot;&gt;&lt;span style=&quot;background-color: initial;&quot;&gt;+ Возврат в предыдущее окно&lt;/span&gt;&lt;br&gt;&lt;/p&gt;" style="verticalAlign=top;align=left;overflow=fill;fontSize=12;fontFamily=Helvetica;html=1;whiteSpace=wrap;fillColor=#f8cecc;strokeColor=#b85450;" vertex="1" parent="1">
          <mxGeometry x="-156" y="320" width="270" height="80" as="geometry" />
        </mxCell>
        <mxCell id="pLnrMbW9ifTuEzQkywXx-43" value="" style="endArrow=diamondThin;endFill=0;endSize=24;html=1;rounded=0;exitX=0.5;exitY=1;exitDx=0;exitDy=0;dashed=1;entryX=0.553;entryY=-0.001;entryDx=0;entryDy=0;entryPerimeter=0;" edge="1" parent="1">
          <mxGeometry width="160" relative="1" as="geometry">
            <mxPoint x="4" y="400" as="sourcePoint" />
            <mxPoint x="5" y="430" as="targetPoint" />
          </mxGeometry>
        </mxCell>
      </root>
    </mxGraphModel>
  </diagram>
  <diagram id="16gp2VawD8WBMYR_w-sc" name="Страница 5">
    <mxGraphModel dx="3345" dy="1392" grid="1" gridSize="10" guides="1" tooltips="1" connect="1" arrows="1" fold="1" page="1" pageScale="1" pageWidth="827" pageHeight="1169" math="0" shadow="0">
      <root>
        <mxCell id="0" />
        <mxCell id="1" parent="0" />
        <mxCell id="Kc7QPpBg_fB57GedgZL--1" value="&lt;b style=&quot;border-color: var(--border-color);&quot;&gt;MainActivity&lt;br&gt;&lt;/b&gt;" style="ellipse;whiteSpace=wrap;html=1;fillColor=#d5e8d4;strokeColor=#82b366;" vertex="1" parent="1">
          <mxGeometry x="-227" y="653" width="120" height="80" as="geometry" />
        </mxCell>
        <mxCell id="3lJD7eNMwuEVn2ZhUOdO-1" value="&lt;b&gt;ProfileCleanFragment&lt;/b&gt;" style="ellipse;whiteSpace=wrap;html=1;fillColor=#d5e8d4;strokeColor=#82b366;" vertex="1" parent="1">
          <mxGeometry x="-27" y="653" width="120" height="80" as="geometry" />
        </mxCell>
        <mxCell id="V_oDw4c6Tp2RIiW6yXCA-1" value="" style="endArrow=diamondThin;endFill=0;endSize=24;html=1;rounded=0;dashed=1;" edge="1" parent="1">
          <mxGeometry width="160" relative="1" as="geometry">
            <mxPoint x="-27" y="692.5" as="sourcePoint" />
            <mxPoint x="-107" y="692.5" as="targetPoint" />
          </mxGeometry>
        </mxCell>
        <mxCell id="o-J1hWTyq0_xwSGRahra-1" value="&lt;b style=&quot;border-color: var(--border-color);&quot;&gt;LoginDialog&lt;/b&gt;" style="ellipse;whiteSpace=wrap;html=1;fillColor=#d5e8d4;strokeColor=#82b366;" vertex="1" parent="1">
          <mxGeometry x="173" y="653" width="120" height="80" as="geometry" />
        </mxCell>
        <mxCell id="o-J1hWTyq0_xwSGRahra-3" value="" style="endArrow=diamondThin;endFill=0;endSize=24;html=1;rounded=0;dashed=1;" edge="1" parent="1">
          <mxGeometry width="160" relative="1" as="geometry">
            <mxPoint x="173" y="692.5" as="sourcePoint" />
            <mxPoint x="93" y="692.5" as="targetPoint" />
          </mxGeometry>
        </mxCell>
        <mxCell id="rJAKJvTzFIzgS8TgEZ3G-1" value="&lt;b style=&quot;border-color: var(--border-color);&quot;&gt;ProfileFragment&lt;/b&gt;" style="ellipse;whiteSpace=wrap;html=1;fillColor=#d5e8d4;strokeColor=#82b366;" vertex="1" parent="1">
          <mxGeometry x="173" y="508" width="120" height="80" as="geometry" />
        </mxCell>
        <mxCell id="FyH1EWz_0RUci38Slw8--1" value="" style="endArrow=diamondThin;endFill=0;endSize=24;html=1;rounded=0;entryX=0.5;entryY=0;entryDx=0;entryDy=0;dashed=1;exitX=0.5;exitY=1;exitDx=0;exitDy=0;" edge="1" parent="1">
          <mxGeometry width="160" relative="1" as="geometry">
            <mxPoint x="233" y="588" as="sourcePoint" />
            <mxPoint x="233" y="653" as="targetPoint" />
          </mxGeometry>
        </mxCell>
        <mxCell id="It7fCShmsYuOiBBhY39U-2" value="" style="edgeStyle=orthogonalEdgeStyle;rounded=0;orthogonalLoop=1;jettySize=auto;html=1;endArrow=diamondThin;endFill=0;strokeWidth=1;endSize=24;dashed=1;" edge="1" parent="1" source="It7fCShmsYuOiBBhY39U-1" target="rJAKJvTzFIzgS8TgEZ3G-1">
          <mxGeometry relative="1" as="geometry" />
        </mxCell>
        <mxCell id="It7fCShmsYuOiBBhY39U-1" value="&lt;b style=&quot;border-color: var(--border-color);&quot;&gt;LogOutDialog&lt;/b&gt;" style="ellipse;whiteSpace=wrap;html=1;fillColor=#d5e8d4;strokeColor=#82b366;" vertex="1" parent="1">
          <mxGeometry x="-27" y="508" width="120" height="80" as="geometry" />
        </mxCell>
        <mxCell id="HhmJ4vYmz1HwCFypSp5X-1" value="&lt;b&gt;SettingsActivity&lt;/b&gt;" style="ellipse;whiteSpace=wrap;html=1;fillColor=#d5e8d4;strokeColor=#82b366;" vertex="1" parent="1">
          <mxGeometry x="-227" y="508" width="120" height="80" as="geometry" />
        </mxCell>
        <mxCell id="GYyzb4krmIdym9U0ge7A-1" value="" style="endArrow=diamondThin;endFill=0;endSize=24;html=1;rounded=0;entryX=0.5;entryY=0;entryDx=0;entryDy=0;dashed=1;exitX=0.5;exitY=1;exitDx=0;exitDy=0;" edge="1" parent="1">
          <mxGeometry width="160" relative="1" as="geometry">
            <mxPoint x="-167.5" y="588" as="sourcePoint" />
            <mxPoint x="-167.5" y="653" as="targetPoint" />
          </mxGeometry>
        </mxCell>
        <mxCell id="FAFkdJ-UJkCa6JW-rXB2-1" value="&lt;b style=&quot;border-color: var(--border-color);&quot;&gt;TranslateDialog&lt;/b&gt;" style="ellipse;whiteSpace=wrap;html=1;fillColor=#d5e8d4;strokeColor=#82b366;" vertex="1" parent="1">
          <mxGeometry x="-227" y="363" width="120" height="80" as="geometry" />
        </mxCell>
        <mxCell id="FAFkdJ-UJkCa6JW-rXB2-2" value="" style="endArrow=diamondThin;endFill=0;endSize=24;html=1;rounded=0;entryX=0.5;entryY=0;entryDx=0;entryDy=0;dashed=1;exitX=0.5;exitY=1;exitDx=0;exitDy=0;" edge="1" parent="1">
          <mxGeometry width="160" relative="1" as="geometry">
            <mxPoint x="-167.5" y="443" as="sourcePoint" />
            <mxPoint x="-167.5" y="508" as="targetPoint" />
          </mxGeometry>
        </mxCell>
        <mxCell id="SiUoaTs2jGvoLVYVvDI4-1" value="&lt;b style=&quot;border-color: var(--border-color);&quot;&gt;PresenceFragment&lt;/b&gt;" style="ellipse;whiteSpace=wrap;html=1;fillColor=#f8cecc;strokeColor=#b85450;" vertex="1" parent="1">
          <mxGeometry x="-227" y="798" width="120" height="80" as="geometry" />
        </mxCell>
        <mxCell id="SiUoaTs2jGvoLVYVvDI4-3" value="" style="endArrow=diamondThin;endFill=0;endSize=24;html=1;rounded=0;dashed=1;" edge="1" parent="1">
          <mxGeometry width="160" relative="1" as="geometry">
            <mxPoint x="-167" y="798" as="sourcePoint" />
            <mxPoint x="-167.5" y="733" as="targetPoint" />
          </mxGeometry>
        </mxCell>
        <mxCell id="VP0FpTWE4HXnTIl8DVWH-1" value="&lt;b&gt;ScannerActivity&lt;/b&gt;" style="ellipse;whiteSpace=wrap;html=1;fillColor=#f8cecc;strokeColor=#b85450;" vertex="1" parent="1">
          <mxGeometry x="-227" y="943.5" width="120" height="80" as="geometry" />
        </mxCell>
        <mxCell id="VP0FpTWE4HXnTIl8DVWH-2" value="" style="endArrow=diamondThin;endFill=0;endSize=24;html=1;rounded=0;dashed=1;" edge="1" parent="1">
          <mxGeometry width="160" relative="1" as="geometry">
            <mxPoint x="-167" y="943" as="sourcePoint" />
            <mxPoint x="-167.5" y="878" as="targetPoint" />
          </mxGeometry>
        </mxCell>
        <mxCell id="eFCAbk1JivBtaBmrS-OK-1" value="&lt;b&gt;ResultScannerActivity&lt;/b&gt;" style="ellipse;whiteSpace=wrap;html=1;fillColor=#f8cecc;strokeColor=#b85450;" vertex="1" parent="1">
          <mxGeometry x="-227" y="1089" width="120" height="80" as="geometry" />
        </mxCell>
        <mxCell id="eFCAbk1JivBtaBmrS-OK-2" value="" style="endArrow=diamondThin;endFill=0;endSize=24;html=1;rounded=0;dashed=1;" edge="1" parent="1">
          <mxGeometry width="160" relative="1" as="geometry">
            <mxPoint x="-167" y="1088.5" as="sourcePoint" />
            <mxPoint x="-167.5" y="1023.5" as="targetPoint" />
          </mxGeometry>
        </mxCell>
        <mxCell id="kVkASC1NvAcIZgVZDe_j-1" value="&lt;b style=&quot;border-color: var(--border-color);&quot;&gt;ErrorDialog&lt;/b&gt;" style="ellipse;whiteSpace=wrap;html=1;fillColor=#f8cecc;strokeColor=#b85450;" vertex="1" parent="1">
          <mxGeometry x="-427" y="1089" width="120" height="80" as="geometry" />
        </mxCell>
        <mxCell id="kVkASC1NvAcIZgVZDe_j-2" value="" style="edgeStyle=orthogonalEdgeStyle;rounded=0;orthogonalLoop=1;jettySize=auto;html=1;endArrow=diamondThin;endFill=0;strokeWidth=1;endSize=24;dashed=1;" edge="1" parent="1">
          <mxGeometry relative="1" as="geometry">
            <mxPoint x="-307" y="1128.5" as="sourcePoint" />
            <mxPoint x="-227" y="1128.5" as="targetPoint" />
          </mxGeometry>
        </mxCell>
        <mxCell id="5ANIMV7lYcnSJquwEyAf-1" value="&lt;b style=&quot;border-color: var(--border-color);&quot;&gt;SuccessfulDialog&lt;/b&gt;" style="ellipse;whiteSpace=wrap;html=1;fillColor=#f8cecc;strokeColor=#b85450;" vertex="1" parent="1">
          <mxGeometry x="-27" y="1089" width="120" height="80" as="geometry" />
        </mxCell>
        <mxCell id="5ANIMV7lYcnSJquwEyAf-2" value="" style="endArrow=diamondThin;endFill=0;endSize=24;html=1;rounded=0;dashed=1;" edge="1" parent="1">
          <mxGeometry width="160" relative="1" as="geometry">
            <mxPoint x="-27" y="1128.5" as="sourcePoint" />
            <mxPoint x="-107" y="1128.5" as="targetPoint" />
          </mxGeometry>
        </mxCell>
        <mxCell id="oG1KZLNXGyVFxmbmRq6b-1" value="&lt;b style=&quot;border-color: var(--border-color);&quot;&gt;MyEventsFragment&lt;/b&gt;" style="ellipse;whiteSpace=wrap;html=1;fillColor=#d5e8d4;strokeColor=#82b366;" vertex="1" parent="1">
          <mxGeometry x="-427" y="653" width="120" height="80" as="geometry" />
        </mxCell>
        <mxCell id="tnk8-vu49QR1Cug7Oujm-1" value="" style="edgeStyle=orthogonalEdgeStyle;rounded=0;orthogonalLoop=1;jettySize=auto;html=1;endArrow=diamondThin;endFill=0;strokeWidth=1;endSize=24;dashed=1;" edge="1" parent="1">
          <mxGeometry relative="1" as="geometry">
            <mxPoint x="-307" y="692.5" as="sourcePoint" />
            <mxPoint x="-227" y="692.5" as="targetPoint" />
          </mxGeometry>
        </mxCell>
        <mxCell id="tRQYS3x4ARoCPY5wR9Ei-1" value="&lt;b&gt;EventInfoActivity&lt;/b&gt;" style="ellipse;whiteSpace=wrap;html=1;fillColor=#f8cecc;strokeColor=#b85450;" vertex="1" parent="1">
          <mxGeometry x="-427" y="798" width="120" height="80" as="geometry" />
        </mxCell>
        <mxCell id="vkGRxeqQ2DD-iXNaBvac-1" value="&lt;b&gt;MyEventActivity&lt;/b&gt;" style="ellipse;whiteSpace=wrap;html=1;" vertex="1" parent="1">
          <mxGeometry x="-627" y="653" width="120" height="80" as="geometry" />
        </mxCell>
        <mxCell id="vkGRxeqQ2DD-iXNaBvac-2" value="" style="edgeStyle=orthogonalEdgeStyle;rounded=0;orthogonalLoop=1;jettySize=auto;html=1;endArrow=diamondThin;endFill=0;strokeWidth=1;endSize=24;dashed=1;" edge="1" parent="1">
          <mxGeometry relative="1" as="geometry">
            <mxPoint x="-507" y="692.5" as="sourcePoint" />
            <mxPoint x="-427" y="692.5" as="targetPoint" />
          </mxGeometry>
        </mxCell>
        <mxCell id="6ltahnSirm9vvcPdW5WG-1" value="&lt;b&gt;QrActivity&lt;/b&gt;" style="ellipse;whiteSpace=wrap;html=1;" vertex="1" parent="1">
          <mxGeometry x="-627" y="798" width="120" height="80" as="geometry" />
        </mxCell>
        <mxCell id="6ltahnSirm9vvcPdW5WG-2" value="" style="endArrow=diamondThin;endFill=0;endSize=24;html=1;rounded=0;dashed=1;" edge="1" parent="1">
          <mxGeometry width="160" relative="1" as="geometry">
            <mxPoint x="-567.5" y="798" as="sourcePoint" />
            <mxPoint x="-568" y="733" as="targetPoint" />
          </mxGeometry>
        </mxCell>
        <mxCell id="M3BNAmNjJ3bXPYxDzvdj-1" value="&lt;b style=&quot;border-color: var(--border-color);&quot;&gt;CancelDialog&lt;/b&gt;" style="ellipse;whiteSpace=wrap;html=1;" vertex="1" parent="1">
          <mxGeometry x="-827" y="653" width="120" height="80" as="geometry" />
        </mxCell>
        <mxCell id="M3BNAmNjJ3bXPYxDzvdj-2" value="" style="edgeStyle=orthogonalEdgeStyle;rounded=0;orthogonalLoop=1;jettySize=auto;html=1;endArrow=diamondThin;endFill=0;strokeWidth=1;endSize=24;dashed=1;" edge="1" parent="1">
          <mxGeometry relative="1" as="geometry">
            <mxPoint x="-707" y="692.5" as="sourcePoint" />
            <mxPoint x="-627" y="692.5" as="targetPoint" />
          </mxGeometry>
        </mxCell>
        <mxCell id="GgLNRVp_9xzKkKqC8GVk-1" value="&lt;b style=&quot;border-color: var(--border-color);&quot;&gt;EventActivity&lt;/b&gt;" style="ellipse;whiteSpace=wrap;html=1;fillColor=#d5e8d4;strokeColor=#82b366;" vertex="1" parent="1">
          <mxGeometry x="-627" y="508" width="120" height="80" as="geometry" />
        </mxCell>
        <mxCell id="GgLNRVp_9xzKkKqC8GVk-2" value="" style="endArrow=diamondThin;endFill=0;endSize=24;html=1;rounded=0;entryX=0.5;entryY=0;entryDx=0;entryDy=0;dashed=1;exitX=0.5;exitY=1;exitDx=0;exitDy=0;" edge="1" parent="1">
          <mxGeometry width="160" relative="1" as="geometry">
            <mxPoint x="-567" y="588" as="sourcePoint" />
            <mxPoint x="-567" y="653" as="targetPoint" />
          </mxGeometry>
        </mxCell>
        <mxCell id="Bf-TyYlXKBAnMlf5DTUM-1" value="&lt;b style=&quot;border-color: var(--border-color);&quot;&gt;RegistrationDIalog&lt;/b&gt;" style="ellipse;whiteSpace=wrap;html=1;" vertex="1" parent="1">
          <mxGeometry x="-520" y="363" width="120" height="80" as="geometry" />
        </mxCell>
        <mxCell id="JBJX6TEc_S0xe1gx6JZv-1" value="" style="endArrow=diamondThin;endFill=0;endSize=24;html=1;rounded=0;dashed=1;entryX=0.225;entryY=0.063;entryDx=0;entryDy=0;entryPerimeter=0;exitX=0.746;exitY=1.023;exitDx=0;exitDy=0;exitPerimeter=0;" edge="1" parent="1" source="Bf-TyYlXKBAnMlf5DTUM-1" target="gCZM8iGtZYksQh5xzWLP-1">
          <mxGeometry width="160" relative="1" as="geometry">
            <mxPoint x="-270" y="440" as="sourcePoint" />
            <mxPoint x="-350" y="440" as="targetPoint" />
          </mxGeometry>
        </mxCell>
        <mxCell id="KO8H7C4xMZ2XkPe_KOGX-1" value="&lt;b&gt;EventStatsActivity&lt;/b&gt;" style="ellipse;whiteSpace=wrap;html=1;fillColor=#f8cecc;strokeColor=#b85450;" vertex="1" parent="1">
          <mxGeometry x="-827" y="508" width="120" height="80" as="geometry" />
        </mxCell>
        <mxCell id="KO8H7C4xMZ2XkPe_KOGX-2" value="" style="edgeStyle=orthogonalEdgeStyle;rounded=0;orthogonalLoop=1;jettySize=auto;html=1;endArrow=diamondThin;endFill=0;strokeWidth=1;endSize=24;dashed=1;" edge="1" parent="1">
          <mxGeometry relative="1" as="geometry">
            <mxPoint x="-707" y="547.5" as="sourcePoint" />
            <mxPoint x="-627" y="547.5" as="targetPoint" />
          </mxGeometry>
        </mxCell>
        <mxCell id="gCZM8iGtZYksQh5xzWLP-1" value="&lt;b&gt;EventsFragment&lt;/b&gt;" style="ellipse;whiteSpace=wrap;html=1;fillColor=#d5e8d4;strokeColor=#82b366;" vertex="1" parent="1">
          <mxGeometry x="-427" y="505" width="120" height="80" as="geometry" />
        </mxCell>
        <mxCell id="gCZM8iGtZYksQh5xzWLP-2" value="" style="endArrow=diamondThin;endFill=0;endSize=24;html=1;rounded=0;dashed=1;exitX=0.884;exitY=0.867;exitDx=0;exitDy=0;exitPerimeter=0;" edge="1" parent="1" source="gCZM8iGtZYksQh5xzWLP-1" target="Kc7QPpBg_fB57GedgZL--1">
          <mxGeometry width="160" relative="1" as="geometry">
            <mxPoint x="-270" y="588" as="sourcePoint" />
            <mxPoint x="-270" y="653" as="targetPoint" />
          </mxGeometry>
        </mxCell>
        <mxCell id="c4C9v-JJR9_6UIji1DNI-1" value="" style="endArrow=diamondThin;endFill=0;endSize=24;html=1;rounded=0;dashed=1;" edge="1" parent="1">
          <mxGeometry width="160" relative="1" as="geometry">
            <mxPoint x="-367.21000000000004" y="798" as="sourcePoint" />
            <mxPoint x="-367.71000000000004" y="733" as="targetPoint" />
          </mxGeometry>
        </mxCell>
        <mxCell id="zdyJRBSEOJlvEha8L0Zn-1" value="" style="whiteSpace=wrap;html=1;aspect=fixed;fillColor=#f8cecc;strokeColor=#b85450;" vertex="1" parent="1">
          <mxGeometry x="-800" y="960" width="42.5" height="42.5" as="geometry" />
        </mxCell>
        <mxCell id="zdyJRBSEOJlvEha8L0Zn-2" value="" style="whiteSpace=wrap;html=1;aspect=fixed;" vertex="1" parent="1">
          <mxGeometry x="-800" y="1020" width="42.5" height="42.5" as="geometry" />
        </mxCell>
        <mxCell id="zdyJRBSEOJlvEha8L0Zn-3" value="" style="whiteSpace=wrap;html=1;aspect=fixed;fillColor=#d5e8d4;strokeColor=#82b366;" vertex="1" parent="1">
          <mxGeometry x="-800" y="1082.5" width="42.5" height="42.5" as="geometry" />
        </mxCell>
        <mxCell id="zdyJRBSEOJlvEha8L0Zn-4" value="Общие классы" style="text;html=1;strokeColor=none;fillColor=none;align=left;verticalAlign=middle;whiteSpace=wrap;rounded=0;" vertex="1" parent="1">
          <mxGeometry x="-748" y="1088.75" width="91" height="30" as="geometry" />
        </mxCell>
        <mxCell id="zdyJRBSEOJlvEha8L0Zn-5" style="edgeStyle=orthogonalEdgeStyle;rounded=0;orthogonalLoop=1;jettySize=auto;html=1;exitX=0.5;exitY=1;exitDx=0;exitDy=0;" edge="1" parent="1" source="zdyJRBSEOJlvEha8L0Zn-4" target="zdyJRBSEOJlvEha8L0Zn-4">
          <mxGeometry relative="1" as="geometry" />
        </mxCell>
        <mxCell id="zdyJRBSEOJlvEha8L0Zn-6" value="Классы роли &quot;Студент&quot;" style="text;html=1;strokeColor=none;fillColor=none;align=left;verticalAlign=middle;whiteSpace=wrap;rounded=0;" vertex="1" parent="1">
          <mxGeometry x="-748" y="1026.25" width="140" height="30" as="geometry" />
        </mxCell>
        <mxCell id="zdyJRBSEOJlvEha8L0Zn-7" value="Классы роли &quot;Ответственный за мероприятие&quot;" style="text;html=1;strokeColor=none;fillColor=none;align=left;verticalAlign=middle;whiteSpace=wrap;rounded=0;" vertex="1" parent="1">
          <mxGeometry x="-748" y="966.25" width="280" height="30" as="geometry" />
        </mxCell>
        <mxCell id="Jy5aSXT-KlPI0_jBHa_I-1" value="" style="edgeStyle=orthogonalEdgeStyle;rounded=0;orthogonalLoop=1;jettySize=auto;html=1;endArrow=diamondThin;endFill=0;strokeWidth=1;endSize=24;dashed=1;" edge="1" parent="1">
          <mxGeometry relative="1" as="geometry">
            <mxPoint x="-507" y="547.52" as="sourcePoint" />
            <mxPoint x="-427" y="547.52" as="targetPoint" />
          </mxGeometry>
        </mxCell>
        <mxCell id="Jy5aSXT-KlPI0_jBHa_I-2" value="" style="endArrow=diamondThin;endFill=0;endSize=24;html=1;rounded=0;dashed=1;entryX=0.591;entryY=-0.02;entryDx=0;entryDy=0;entryPerimeter=0;" edge="1" parent="1" source="Bf-TyYlXKBAnMlf5DTUM-1" target="GgLNRVp_9xzKkKqC8GVk-1">
          <mxGeometry width="160" relative="1" as="geometry">
            <mxPoint x="-420" y="482" as="sourcePoint" />
            <mxPoint x="-390" y="520" as="targetPoint" />
          </mxGeometry>
        </mxCell>
      </root>
    </mxGraphModel>
  </diagram>
</mxfile>
